G04 #@! TF.FileFunction,Paste,Bot*
%FSLAX46Y46*%
G04 Gerber Fmt 4.6, Leading zero omitted, Abs format (unit mm)*
G04 Created by KiCad (PCBNEW 4.0.7) date 07/18/18 17:21:38*
%MOMM*%
%LPD*%
G01*
G04 APERTURE LIST*
%ADD10C,0.100000*%
%ADD11R,2.540000X3.510000*%
%ADD12R,2.000000X1.700000*%
%ADD13R,1.300000X1.500000*%
%ADD14R,1.500000X1.300000*%
%ADD15R,2.184400X0.558800*%
%ADD16R,2.500000X1.200000*%
G04 APERTURE END LIST*
D10*
D11*
X145454201Y-117511229D03*
X174814201Y-117511229D03*
D12*
X143452601Y-128933800D03*
X147452601Y-128933800D03*
X171424201Y-128933800D03*
X175424201Y-128933800D03*
X123640601Y-109113000D03*
X127640601Y-109113000D03*
X175276199Y-61422600D03*
X171276199Y-61422600D03*
X195154799Y-81167200D03*
X191154799Y-81167200D03*
X195095799Y-109137400D03*
X191095799Y-109137400D03*
X123613801Y-81210200D03*
X127613801Y-81210200D03*
X143341401Y-61522200D03*
X147341401Y-61522200D03*
D13*
X174794800Y-107371601D03*
X174794800Y-110071601D03*
D14*
X193008999Y-95534200D03*
X190308999Y-95534200D03*
D15*
X157671381Y-99286999D03*
X157671381Y-98016999D03*
X157671381Y-96746999D03*
X157671381Y-95476999D03*
X157671381Y-94206999D03*
X157671381Y-92936999D03*
X157671381Y-91666999D03*
X157671381Y-90396999D03*
X162395781Y-90396999D03*
X162395781Y-91666999D03*
X162395781Y-92936999D03*
X162395781Y-94206999D03*
X162395781Y-95476999D03*
X162395781Y-96746999D03*
X162395781Y-98016999D03*
X162395781Y-99286999D03*
D16*
X137357164Y-119975081D03*
X137357164Y-117475081D03*
X137357164Y-114975081D03*
X131857164Y-114975081D03*
X131857164Y-117475081D03*
X131857164Y-119975081D03*
M02*
