G04 #@! TF.FileFunction,Soldermask,Top*
%FSLAX46Y46*%
G04 Gerber Fmt 4.6, Leading zero omitted, Abs format (unit mm)*
G04 Created by KiCad (PCBNEW 4.0.7) date 07/18/18 17:21:38*
%MOMM*%
%LPD*%
G01*
G04 APERTURE LIST*
%ADD10C,0.100000*%
%ADD11C,0.010000*%
%ADD12C,5.547986*%
%ADD13R,2.400000X2.400000*%
%ADD14O,2.400000X2.400000*%
%ADD15C,2.100000*%
%ADD16O,2.100000X2.100000*%
G04 APERTURE END LIST*
D10*
D11*
G36*
X145633664Y-124962636D02*
X145901349Y-124983966D01*
X145954474Y-124990964D01*
X146359570Y-125069412D01*
X146749111Y-125186964D01*
X147121476Y-125342794D01*
X147475045Y-125536078D01*
X147808195Y-125765991D01*
X148119307Y-126031706D01*
X148247491Y-126158402D01*
X148517666Y-126463242D01*
X148749400Y-126781179D01*
X148944302Y-127115424D01*
X149103983Y-127469184D01*
X149230052Y-127845669D01*
X149324119Y-128248087D01*
X149339882Y-128335747D01*
X149360021Y-128494989D01*
X149372439Y-128683584D01*
X149377230Y-128889277D01*
X149374484Y-129099817D01*
X149364294Y-129302948D01*
X149346752Y-129486417D01*
X149330429Y-129595034D01*
X149238337Y-129999094D01*
X149111474Y-130381178D01*
X148947802Y-130746156D01*
X148745283Y-131098895D01*
X148628100Y-131273217D01*
X148537793Y-131390593D01*
X148422074Y-131524930D01*
X148289338Y-131667710D01*
X148147980Y-131810416D01*
X148006396Y-131944530D01*
X147872980Y-132061533D01*
X147773694Y-132140119D01*
X147463103Y-132346475D01*
X147126548Y-132527116D01*
X146774239Y-132677338D01*
X146416387Y-132792435D01*
X146289184Y-132824133D01*
X146052091Y-132867851D01*
X145788851Y-132897941D01*
X145513597Y-132913788D01*
X145240465Y-132914777D01*
X144983591Y-132900292D01*
X144860434Y-132886345D01*
X144463780Y-132811295D01*
X144081390Y-132697744D01*
X143715493Y-132547776D01*
X143368316Y-132363471D01*
X143042088Y-132146911D01*
X142739039Y-131900179D01*
X142461396Y-131625355D01*
X142211388Y-131324523D01*
X141991243Y-130999763D01*
X141803190Y-130653158D01*
X141649458Y-130286790D01*
X141532275Y-129902740D01*
X141495838Y-129743200D01*
X141435081Y-129345756D01*
X141415095Y-128942325D01*
X141435625Y-128537375D01*
X141496419Y-128135373D01*
X141597224Y-127740788D01*
X141611714Y-127695023D01*
X141669420Y-127537578D01*
X141746386Y-127358256D01*
X141836597Y-127169012D01*
X141934035Y-126981799D01*
X142032684Y-126808569D01*
X142126527Y-126661277D01*
X142146140Y-126633248D01*
X142244962Y-126504643D01*
X142367220Y-126360533D01*
X142503184Y-126211306D01*
X142643125Y-126067346D01*
X142777312Y-125939040D01*
X142880719Y-125849114D01*
X143161872Y-125641508D01*
X143469035Y-125454614D01*
X143792657Y-125293133D01*
X144123187Y-125161763D01*
X144451075Y-125065205D01*
X144493933Y-125055247D01*
X144761336Y-125006631D01*
X145049719Y-124974582D01*
X145345141Y-124959712D01*
X145633664Y-124962636D01*
X145633664Y-124962636D01*
G37*
X145633664Y-124962636D02*
X145901349Y-124983966D01*
X145954474Y-124990964D01*
X146359570Y-125069412D01*
X146749111Y-125186964D01*
X147121476Y-125342794D01*
X147475045Y-125536078D01*
X147808195Y-125765991D01*
X148119307Y-126031706D01*
X148247491Y-126158402D01*
X148517666Y-126463242D01*
X148749400Y-126781179D01*
X148944302Y-127115424D01*
X149103983Y-127469184D01*
X149230052Y-127845669D01*
X149324119Y-128248087D01*
X149339882Y-128335747D01*
X149360021Y-128494989D01*
X149372439Y-128683584D01*
X149377230Y-128889277D01*
X149374484Y-129099817D01*
X149364294Y-129302948D01*
X149346752Y-129486417D01*
X149330429Y-129595034D01*
X149238337Y-129999094D01*
X149111474Y-130381178D01*
X148947802Y-130746156D01*
X148745283Y-131098895D01*
X148628100Y-131273217D01*
X148537793Y-131390593D01*
X148422074Y-131524930D01*
X148289338Y-131667710D01*
X148147980Y-131810416D01*
X148006396Y-131944530D01*
X147872980Y-132061533D01*
X147773694Y-132140119D01*
X147463103Y-132346475D01*
X147126548Y-132527116D01*
X146774239Y-132677338D01*
X146416387Y-132792435D01*
X146289184Y-132824133D01*
X146052091Y-132867851D01*
X145788851Y-132897941D01*
X145513597Y-132913788D01*
X145240465Y-132914777D01*
X144983591Y-132900292D01*
X144860434Y-132886345D01*
X144463780Y-132811295D01*
X144081390Y-132697744D01*
X143715493Y-132547776D01*
X143368316Y-132363471D01*
X143042088Y-132146911D01*
X142739039Y-131900179D01*
X142461396Y-131625355D01*
X142211388Y-131324523D01*
X141991243Y-130999763D01*
X141803190Y-130653158D01*
X141649458Y-130286790D01*
X141532275Y-129902740D01*
X141495838Y-129743200D01*
X141435081Y-129345756D01*
X141415095Y-128942325D01*
X141435625Y-128537375D01*
X141496419Y-128135373D01*
X141597224Y-127740788D01*
X141611714Y-127695023D01*
X141669420Y-127537578D01*
X141746386Y-127358256D01*
X141836597Y-127169012D01*
X141934035Y-126981799D01*
X142032684Y-126808569D01*
X142126527Y-126661277D01*
X142146140Y-126633248D01*
X142244962Y-126504643D01*
X142367220Y-126360533D01*
X142503184Y-126211306D01*
X142643125Y-126067346D01*
X142777312Y-125939040D01*
X142880719Y-125849114D01*
X143161872Y-125641508D01*
X143469035Y-125454614D01*
X143792657Y-125293133D01*
X144123187Y-125161763D01*
X144451075Y-125065205D01*
X144493933Y-125055247D01*
X144761336Y-125006631D01*
X145049719Y-124974582D01*
X145345141Y-124959712D01*
X145633664Y-124962636D01*
G36*
X173709775Y-124967680D02*
X173909925Y-124984621D01*
X173949111Y-124989725D01*
X174349534Y-125066403D01*
X174734951Y-125181098D01*
X175103165Y-125331866D01*
X175451983Y-125516762D01*
X175779211Y-125733841D01*
X176082654Y-125981157D01*
X176360117Y-126256766D01*
X176609407Y-126558723D01*
X176828328Y-126885083D01*
X177014687Y-127233902D01*
X177166289Y-127603233D01*
X177265472Y-127929074D01*
X177347715Y-128328531D01*
X177389123Y-128725256D01*
X177391187Y-129117056D01*
X177355402Y-129501741D01*
X177283261Y-129877120D01*
X177176257Y-130241000D01*
X177035884Y-130591190D01*
X176863636Y-130925500D01*
X176661005Y-131241737D01*
X176429486Y-131537711D01*
X176170572Y-131811229D01*
X175885756Y-132060101D01*
X175576532Y-132282134D01*
X175244394Y-132475139D01*
X174890834Y-132636922D01*
X174517346Y-132765294D01*
X174125423Y-132858062D01*
X173880489Y-132895915D01*
X173773142Y-132905321D01*
X173636245Y-132911536D01*
X173481774Y-132914568D01*
X173321706Y-132914428D01*
X173168016Y-132911124D01*
X173032681Y-132904667D01*
X172928331Y-132895151D01*
X172532750Y-132823547D01*
X172146831Y-132713324D01*
X171774339Y-132566471D01*
X171419035Y-132384977D01*
X171084683Y-132170828D01*
X170775047Y-131926014D01*
X170493889Y-131652522D01*
X170419739Y-131569879D01*
X170165404Y-131245880D01*
X169946228Y-130899933D01*
X169763592Y-130535029D01*
X169618877Y-130154162D01*
X169513465Y-129760325D01*
X169467969Y-129507650D01*
X169450316Y-129345335D01*
X169439563Y-129154909D01*
X169435714Y-128950027D01*
X169438771Y-128744345D01*
X169448737Y-128551520D01*
X169465614Y-128385207D01*
X169467751Y-128370083D01*
X169546924Y-127969559D01*
X169664198Y-127584879D01*
X169817657Y-127218070D01*
X170005386Y-126871162D01*
X170225471Y-126546184D01*
X170475996Y-126245162D01*
X170755047Y-125970127D01*
X171060707Y-125723107D01*
X171391062Y-125506130D01*
X171744196Y-125321224D01*
X172118196Y-125170419D01*
X172511145Y-125055743D01*
X172619826Y-125031325D01*
X172806584Y-125000165D01*
X173021895Y-124977816D01*
X173252822Y-124964682D01*
X173486428Y-124961168D01*
X173709775Y-124967680D01*
X173709775Y-124967680D01*
G37*
X173709775Y-124967680D02*
X173909925Y-124984621D01*
X173949111Y-124989725D01*
X174349534Y-125066403D01*
X174734951Y-125181098D01*
X175103165Y-125331866D01*
X175451983Y-125516762D01*
X175779211Y-125733841D01*
X176082654Y-125981157D01*
X176360117Y-126256766D01*
X176609407Y-126558723D01*
X176828328Y-126885083D01*
X177014687Y-127233902D01*
X177166289Y-127603233D01*
X177265472Y-127929074D01*
X177347715Y-128328531D01*
X177389123Y-128725256D01*
X177391187Y-129117056D01*
X177355402Y-129501741D01*
X177283261Y-129877120D01*
X177176257Y-130241000D01*
X177035884Y-130591190D01*
X176863636Y-130925500D01*
X176661005Y-131241737D01*
X176429486Y-131537711D01*
X176170572Y-131811229D01*
X175885756Y-132060101D01*
X175576532Y-132282134D01*
X175244394Y-132475139D01*
X174890834Y-132636922D01*
X174517346Y-132765294D01*
X174125423Y-132858062D01*
X173880489Y-132895915D01*
X173773142Y-132905321D01*
X173636245Y-132911536D01*
X173481774Y-132914568D01*
X173321706Y-132914428D01*
X173168016Y-132911124D01*
X173032681Y-132904667D01*
X172928331Y-132895151D01*
X172532750Y-132823547D01*
X172146831Y-132713324D01*
X171774339Y-132566471D01*
X171419035Y-132384977D01*
X171084683Y-132170828D01*
X170775047Y-131926014D01*
X170493889Y-131652522D01*
X170419739Y-131569879D01*
X170165404Y-131245880D01*
X169946228Y-130899933D01*
X169763592Y-130535029D01*
X169618877Y-130154162D01*
X169513465Y-129760325D01*
X169467969Y-129507650D01*
X169450316Y-129345335D01*
X169439563Y-129154909D01*
X169435714Y-128950027D01*
X169438771Y-128744345D01*
X169448737Y-128551520D01*
X169465614Y-128385207D01*
X169467751Y-128370083D01*
X169546924Y-127969559D01*
X169664198Y-127584879D01*
X169817657Y-127218070D01*
X170005386Y-126871162D01*
X170225471Y-126546184D01*
X170475996Y-126245162D01*
X170755047Y-125970127D01*
X171060707Y-125723107D01*
X171391062Y-125506130D01*
X171744196Y-125321224D01*
X172118196Y-125170419D01*
X172511145Y-125055743D01*
X172619826Y-125031325D01*
X172806584Y-125000165D01*
X173021895Y-124977816D01*
X173252822Y-124964682D01*
X173486428Y-124961168D01*
X173709775Y-124967680D01*
G36*
X125938807Y-105241147D02*
X126326520Y-105288364D01*
X126703374Y-105372697D01*
X127067203Y-105492481D01*
X127415837Y-105646052D01*
X127747110Y-105831747D01*
X128058853Y-106047900D01*
X128348900Y-106292848D01*
X128615082Y-106564927D01*
X128855233Y-106862471D01*
X129067183Y-107183817D01*
X129248767Y-107527301D01*
X129397815Y-107891258D01*
X129512161Y-108274024D01*
X129589636Y-108673935D01*
X129590833Y-108682367D01*
X129609716Y-108871669D01*
X129618288Y-109087702D01*
X129616963Y-109317507D01*
X129606153Y-109548126D01*
X129586272Y-109766600D01*
X129557733Y-109959969D01*
X129548642Y-110005974D01*
X129442434Y-110410224D01*
X129298592Y-110795803D01*
X129118232Y-111161057D01*
X128902472Y-111504335D01*
X128652430Y-111823983D01*
X128369223Y-112118349D01*
X128053969Y-112385780D01*
X127832704Y-112544177D01*
X127549875Y-112714099D01*
X127244314Y-112862788D01*
X126925016Y-112987112D01*
X126600976Y-113083935D01*
X126281188Y-113150123D01*
X126005503Y-113180845D01*
X125905159Y-113186991D01*
X125806277Y-113193064D01*
X125727339Y-113197928D01*
X125715184Y-113198680D01*
X125649837Y-113199993D01*
X125556184Y-113198404D01*
X125448127Y-113194270D01*
X125365934Y-113189711D01*
X124973321Y-113143804D01*
X124587182Y-113057678D01*
X124211200Y-112933234D01*
X123849060Y-112772374D01*
X123504444Y-112577000D01*
X123181037Y-112349012D01*
X122882523Y-112090312D01*
X122612585Y-111802801D01*
X122563136Y-111742980D01*
X122315665Y-111405200D01*
X122107626Y-111052146D01*
X121938717Y-110683103D01*
X121808639Y-110297358D01*
X121717091Y-109894197D01*
X121680930Y-109647034D01*
X121670538Y-109515724D01*
X121665723Y-109355491D01*
X121666139Y-109178093D01*
X121671436Y-108995291D01*
X121681268Y-108818844D01*
X121695285Y-108660511D01*
X121713141Y-108532051D01*
X121714077Y-108526899D01*
X121808608Y-108126141D01*
X121940174Y-107743208D01*
X122106781Y-107380000D01*
X122306433Y-107038417D01*
X122537136Y-106720357D01*
X122796895Y-106427722D01*
X123083717Y-106162409D01*
X123395606Y-105926320D01*
X123730568Y-105721353D01*
X124086607Y-105549407D01*
X124461731Y-105412384D01*
X124853943Y-105312181D01*
X125139476Y-105264719D01*
X125542403Y-105232711D01*
X125938807Y-105241147D01*
X125938807Y-105241147D01*
G37*
X125938807Y-105241147D02*
X126326520Y-105288364D01*
X126703374Y-105372697D01*
X127067203Y-105492481D01*
X127415837Y-105646052D01*
X127747110Y-105831747D01*
X128058853Y-106047900D01*
X128348900Y-106292848D01*
X128615082Y-106564927D01*
X128855233Y-106862471D01*
X129067183Y-107183817D01*
X129248767Y-107527301D01*
X129397815Y-107891258D01*
X129512161Y-108274024D01*
X129589636Y-108673935D01*
X129590833Y-108682367D01*
X129609716Y-108871669D01*
X129618288Y-109087702D01*
X129616963Y-109317507D01*
X129606153Y-109548126D01*
X129586272Y-109766600D01*
X129557733Y-109959969D01*
X129548642Y-110005974D01*
X129442434Y-110410224D01*
X129298592Y-110795803D01*
X129118232Y-111161057D01*
X128902472Y-111504335D01*
X128652430Y-111823983D01*
X128369223Y-112118349D01*
X128053969Y-112385780D01*
X127832704Y-112544177D01*
X127549875Y-112714099D01*
X127244314Y-112862788D01*
X126925016Y-112987112D01*
X126600976Y-113083935D01*
X126281188Y-113150123D01*
X126005503Y-113180845D01*
X125905159Y-113186991D01*
X125806277Y-113193064D01*
X125727339Y-113197928D01*
X125715184Y-113198680D01*
X125649837Y-113199993D01*
X125556184Y-113198404D01*
X125448127Y-113194270D01*
X125365934Y-113189711D01*
X124973321Y-113143804D01*
X124587182Y-113057678D01*
X124211200Y-112933234D01*
X123849060Y-112772374D01*
X123504444Y-112577000D01*
X123181037Y-112349012D01*
X122882523Y-112090312D01*
X122612585Y-111802801D01*
X122563136Y-111742980D01*
X122315665Y-111405200D01*
X122107626Y-111052146D01*
X121938717Y-110683103D01*
X121808639Y-110297358D01*
X121717091Y-109894197D01*
X121680930Y-109647034D01*
X121670538Y-109515724D01*
X121665723Y-109355491D01*
X121666139Y-109178093D01*
X121671436Y-108995291D01*
X121681268Y-108818844D01*
X121695285Y-108660511D01*
X121713141Y-108532051D01*
X121714077Y-108526899D01*
X121808608Y-108126141D01*
X121940174Y-107743208D01*
X122106781Y-107380000D01*
X122306433Y-107038417D01*
X122537136Y-106720357D01*
X122796895Y-106427722D01*
X123083717Y-106162409D01*
X123395606Y-105926320D01*
X123730568Y-105721353D01*
X124086607Y-105549407D01*
X124461731Y-105412384D01*
X124853943Y-105312181D01*
X125139476Y-105264719D01*
X125542403Y-105232711D01*
X125938807Y-105241147D01*
G36*
X160574504Y-77248830D02*
X161433201Y-77327018D01*
X162289241Y-77446856D01*
X162957934Y-77570142D01*
X163812270Y-77765909D01*
X164651907Y-78001280D01*
X165476148Y-78275909D01*
X166284297Y-78589450D01*
X167075660Y-78941557D01*
X167849539Y-79331884D01*
X168605240Y-79760085D01*
X169342066Y-80225814D01*
X170059323Y-80728726D01*
X170756314Y-81268473D01*
X171276434Y-81706938D01*
X171399561Y-81817629D01*
X171545504Y-81953918D01*
X171708578Y-82110102D01*
X171883095Y-82280478D01*
X172063369Y-82459343D01*
X172243715Y-82640994D01*
X172418447Y-82819729D01*
X172581877Y-82989844D01*
X172728320Y-83145637D01*
X172852090Y-83281405D01*
X172896903Y-83332183D01*
X173463391Y-84013509D01*
X173992150Y-84713952D01*
X174483347Y-85433759D01*
X174937148Y-86173178D01*
X175353719Y-86932456D01*
X175463253Y-87147731D01*
X175834690Y-87937066D01*
X176166480Y-88740317D01*
X176458403Y-89556085D01*
X176710238Y-90382969D01*
X176921766Y-91219569D01*
X177092767Y-92064483D01*
X177223021Y-92916310D01*
X177312308Y-93773651D01*
X177360408Y-94635104D01*
X177367101Y-95499269D01*
X177332168Y-96364745D01*
X177255387Y-97230131D01*
X177159274Y-97950238D01*
X177006381Y-98805890D01*
X176813612Y-99648668D01*
X176581772Y-100477419D01*
X176311665Y-101290990D01*
X176004093Y-102088226D01*
X175659860Y-102867974D01*
X175279770Y-103629082D01*
X174864627Y-104370395D01*
X174415233Y-105090760D01*
X173932394Y-105789024D01*
X173416911Y-106464033D01*
X172869590Y-107114634D01*
X172291232Y-107739672D01*
X171682643Y-108337996D01*
X171044625Y-108908450D01*
X170377983Y-109449883D01*
X169683519Y-109961140D01*
X168962037Y-110441067D01*
X168214342Y-110888512D01*
X168101434Y-110951944D01*
X167336619Y-111353969D01*
X166555193Y-111717063D01*
X165757147Y-112041229D01*
X164942476Y-112326467D01*
X164111172Y-112572781D01*
X163263230Y-112780172D01*
X162398643Y-112948641D01*
X161517404Y-113078192D01*
X160619507Y-113168825D01*
X160608434Y-113169692D01*
X160489931Y-113177004D01*
X160336301Y-113183520D01*
X160154744Y-113189169D01*
X159952461Y-113193879D01*
X159736650Y-113197577D01*
X159514513Y-113200192D01*
X159293249Y-113201652D01*
X159080058Y-113201885D01*
X158882140Y-113200819D01*
X158706696Y-113198382D01*
X158560926Y-113194503D01*
X158481184Y-113190935D01*
X157589518Y-113120513D01*
X156711964Y-113010200D01*
X155848286Y-112859936D01*
X154998251Y-112669658D01*
X154161623Y-112439304D01*
X153338169Y-112168813D01*
X152527655Y-111858124D01*
X151729845Y-111507174D01*
X151308131Y-111302853D01*
X150541644Y-110895874D01*
X149798048Y-110453701D01*
X149078412Y-109977415D01*
X148383807Y-109468096D01*
X147715302Y-108926826D01*
X147073968Y-108354686D01*
X146460874Y-107752758D01*
X145877089Y-107122123D01*
X145323685Y-106463861D01*
X144801730Y-105779055D01*
X144312294Y-105068786D01*
X143856448Y-104334134D01*
X143435261Y-103576181D01*
X143196837Y-103104950D01*
X142849249Y-102351438D01*
X142539915Y-101593940D01*
X142267978Y-100829248D01*
X142032579Y-100054150D01*
X141832860Y-99265437D01*
X141667964Y-98459900D01*
X141537034Y-97634328D01*
X141439210Y-96785512D01*
X141406579Y-96405700D01*
X141398807Y-96276178D01*
X141392422Y-96111244D01*
X141387425Y-95917796D01*
X141383814Y-95702732D01*
X141381588Y-95472950D01*
X141380748Y-95235348D01*
X141381053Y-95101429D01*
X142385428Y-95101429D01*
X142385461Y-95329129D01*
X142386849Y-95552778D01*
X142389593Y-95764650D01*
X142393693Y-95957018D01*
X142399149Y-96122153D01*
X142405600Y-96246950D01*
X142483310Y-97109267D01*
X142601334Y-97958855D01*
X142759430Y-98795136D01*
X142957360Y-99617533D01*
X143194885Y-100425466D01*
X143471763Y-101218357D01*
X143787757Y-101995628D01*
X144142627Y-102756701D01*
X144536132Y-103500996D01*
X144968034Y-104227937D01*
X145438092Y-104936943D01*
X145946068Y-105627438D01*
X146491721Y-106298842D01*
X146639944Y-106470450D01*
X146762527Y-106606722D01*
X146910394Y-106764737D01*
X147077167Y-106938137D01*
X147256466Y-107120566D01*
X147441913Y-107305668D01*
X147627128Y-107487086D01*
X147805733Y-107658464D01*
X147971348Y-107813445D01*
X148117594Y-107945672D01*
X148141267Y-107966477D01*
X148801901Y-108516869D01*
X149481709Y-109029546D01*
X150181091Y-109504738D01*
X150900451Y-109942672D01*
X151640190Y-110343578D01*
X152400709Y-110707686D01*
X153182412Y-111035224D01*
X153985699Y-111326420D01*
X154110267Y-111367696D01*
X154875984Y-111597901D01*
X155655294Y-111792256D01*
X156442092Y-111949551D01*
X157230271Y-112068579D01*
X158013724Y-112148131D01*
X158079017Y-112152970D01*
X158197049Y-112161556D01*
X158305838Y-112169637D01*
X158395647Y-112176477D01*
X158456737Y-112181342D01*
X158470600Y-112182539D01*
X158533742Y-112186045D01*
X158633117Y-112188781D01*
X158762629Y-112190774D01*
X158916187Y-112192050D01*
X159087695Y-112192636D01*
X159271061Y-112192558D01*
X159460191Y-112191843D01*
X159648990Y-112190518D01*
X159831366Y-112188609D01*
X160001224Y-112186142D01*
X160152472Y-112183144D01*
X160279014Y-112179642D01*
X160374758Y-112175662D01*
X160400375Y-112174127D01*
X161267538Y-112095228D01*
X162120353Y-111976655D01*
X162958491Y-111818530D01*
X163781623Y-111620973D01*
X164589420Y-111384106D01*
X165381554Y-111108050D01*
X166157695Y-110792925D01*
X166917515Y-110438853D01*
X167660685Y-110045954D01*
X168386877Y-109614349D01*
X169095761Y-109144160D01*
X169572056Y-108799225D01*
X169872354Y-108570025D01*
X170149961Y-108349065D01*
X170413464Y-108128864D01*
X170671452Y-107901942D01*
X170932513Y-107660819D01*
X171205233Y-107398016D01*
X171382626Y-107222226D01*
X171662852Y-106937686D01*
X171916735Y-106670129D01*
X172151709Y-106411017D01*
X172375207Y-106151815D01*
X172594665Y-105883986D01*
X172817516Y-105598994D01*
X172959015Y-105412117D01*
X173455570Y-104714684D01*
X173913783Y-103999405D01*
X174333491Y-103266723D01*
X174714532Y-102517082D01*
X175056740Y-101750926D01*
X175359954Y-100968698D01*
X175624010Y-100170842D01*
X175848745Y-99357802D01*
X176033995Y-98530021D01*
X176179597Y-97687943D01*
X176285388Y-96832012D01*
X176334658Y-96239975D01*
X176341800Y-96102727D01*
X176347468Y-95931089D01*
X176351662Y-95732977D01*
X176354380Y-95516309D01*
X176355625Y-95289000D01*
X176355395Y-95058968D01*
X176353690Y-94834129D01*
X176350511Y-94622402D01*
X176345858Y-94431702D01*
X176339730Y-94269946D01*
X176334658Y-94179592D01*
X176256158Y-93313665D01*
X176137875Y-92461903D01*
X175979885Y-91624534D01*
X175782265Y-90801788D01*
X175545092Y-89993893D01*
X175268444Y-89201077D01*
X174952396Y-88423569D01*
X174597025Y-87661597D01*
X174202410Y-86915390D01*
X173768626Y-86185177D01*
X173513481Y-85790617D01*
X173030009Y-85102466D01*
X172511756Y-84437676D01*
X171960402Y-83798105D01*
X171377630Y-83185609D01*
X170765122Y-82602045D01*
X170124562Y-82049271D01*
X170122850Y-82047866D01*
X169468759Y-81538438D01*
X168788928Y-81061871D01*
X168085351Y-80619044D01*
X167360020Y-80210834D01*
X166614930Y-79838119D01*
X165852073Y-79501777D01*
X165073444Y-79202686D01*
X164281035Y-78941724D01*
X163476841Y-78719768D01*
X162662854Y-78537696D01*
X161841068Y-78396386D01*
X161825517Y-78394120D01*
X161579434Y-78359148D01*
X161357697Y-78329619D01*
X161153497Y-78305086D01*
X160960026Y-78285101D01*
X160770476Y-78269219D01*
X160578038Y-78256993D01*
X160375905Y-78247975D01*
X160157268Y-78241719D01*
X159915319Y-78237779D01*
X159643250Y-78235707D01*
X159401934Y-78235098D01*
X159148256Y-78235037D01*
X158930658Y-78235555D01*
X158742886Y-78236930D01*
X158578686Y-78239442D01*
X158431806Y-78243370D01*
X158295991Y-78248994D01*
X158164990Y-78256592D01*
X158032548Y-78266445D01*
X157892413Y-78278831D01*
X157738331Y-78294029D01*
X157564049Y-78312320D01*
X157486350Y-78320665D01*
X156674007Y-78429378D01*
X155865019Y-78579562D01*
X155061718Y-78770362D01*
X154266431Y-79000929D01*
X153481490Y-79270410D01*
X152709224Y-79577954D01*
X151951963Y-79922710D01*
X151212036Y-80303824D01*
X150491774Y-80720447D01*
X149919499Y-81086617D01*
X149355373Y-81479748D01*
X148819228Y-81886679D01*
X148302300Y-82314630D01*
X147795827Y-82770822D01*
X147346680Y-83206513D01*
X147048003Y-83511115D01*
X146775752Y-83800718D01*
X146521764Y-84084733D01*
X146277880Y-84372574D01*
X146035938Y-84673654D01*
X145787778Y-84997384D01*
X145748539Y-85049784D01*
X145258072Y-85741645D01*
X144804754Y-86453494D01*
X144388921Y-87184416D01*
X144010905Y-87933499D01*
X143671042Y-88699833D01*
X143369665Y-89482504D01*
X143107109Y-90280601D01*
X142883709Y-91093211D01*
X142699797Y-91919423D01*
X142555709Y-92758324D01*
X142451779Y-93609002D01*
X142405600Y-94172617D01*
X142398854Y-94304664D01*
X142393464Y-94471296D01*
X142389429Y-94664785D01*
X142386751Y-94877405D01*
X142385428Y-95101429D01*
X141381053Y-95101429D01*
X141381292Y-94996826D01*
X141383219Y-94764280D01*
X141386529Y-94544609D01*
X141391222Y-94344712D01*
X141397297Y-94171486D01*
X141404752Y-94031830D01*
X141406807Y-94003284D01*
X141492169Y-93129735D01*
X141612499Y-92278547D01*
X141768464Y-91447266D01*
X141960732Y-90633443D01*
X142189968Y-89834625D01*
X142456842Y-89048363D01*
X142762019Y-88272204D01*
X143106167Y-87503697D01*
X143264278Y-87179032D01*
X143671887Y-86408585D01*
X144114244Y-85661624D01*
X144590337Y-84939160D01*
X145099154Y-84242200D01*
X145639685Y-83571754D01*
X146210919Y-82928831D01*
X146811843Y-82314439D01*
X147441448Y-81729588D01*
X148098721Y-81175287D01*
X148782651Y-80652543D01*
X149492228Y-80162368D01*
X150226439Y-79705768D01*
X150984274Y-79283754D01*
X151379767Y-79082057D01*
X152169317Y-78714931D01*
X152972606Y-78387315D01*
X153788142Y-78099403D01*
X154614436Y-77851391D01*
X155449998Y-77643472D01*
X156293335Y-77475842D01*
X157142959Y-77348695D01*
X157997378Y-77262225D01*
X158855102Y-77216628D01*
X159714641Y-77212098D01*
X160574504Y-77248830D01*
X160574504Y-77248830D01*
G37*
X160574504Y-77248830D02*
X161433201Y-77327018D01*
X162289241Y-77446856D01*
X162957934Y-77570142D01*
X163812270Y-77765909D01*
X164651907Y-78001280D01*
X165476148Y-78275909D01*
X166284297Y-78589450D01*
X167075660Y-78941557D01*
X167849539Y-79331884D01*
X168605240Y-79760085D01*
X169342066Y-80225814D01*
X170059323Y-80728726D01*
X170756314Y-81268473D01*
X171276434Y-81706938D01*
X171399561Y-81817629D01*
X171545504Y-81953918D01*
X171708578Y-82110102D01*
X171883095Y-82280478D01*
X172063369Y-82459343D01*
X172243715Y-82640994D01*
X172418447Y-82819729D01*
X172581877Y-82989844D01*
X172728320Y-83145637D01*
X172852090Y-83281405D01*
X172896903Y-83332183D01*
X173463391Y-84013509D01*
X173992150Y-84713952D01*
X174483347Y-85433759D01*
X174937148Y-86173178D01*
X175353719Y-86932456D01*
X175463253Y-87147731D01*
X175834690Y-87937066D01*
X176166480Y-88740317D01*
X176458403Y-89556085D01*
X176710238Y-90382969D01*
X176921766Y-91219569D01*
X177092767Y-92064483D01*
X177223021Y-92916310D01*
X177312308Y-93773651D01*
X177360408Y-94635104D01*
X177367101Y-95499269D01*
X177332168Y-96364745D01*
X177255387Y-97230131D01*
X177159274Y-97950238D01*
X177006381Y-98805890D01*
X176813612Y-99648668D01*
X176581772Y-100477419D01*
X176311665Y-101290990D01*
X176004093Y-102088226D01*
X175659860Y-102867974D01*
X175279770Y-103629082D01*
X174864627Y-104370395D01*
X174415233Y-105090760D01*
X173932394Y-105789024D01*
X173416911Y-106464033D01*
X172869590Y-107114634D01*
X172291232Y-107739672D01*
X171682643Y-108337996D01*
X171044625Y-108908450D01*
X170377983Y-109449883D01*
X169683519Y-109961140D01*
X168962037Y-110441067D01*
X168214342Y-110888512D01*
X168101434Y-110951944D01*
X167336619Y-111353969D01*
X166555193Y-111717063D01*
X165757147Y-112041229D01*
X164942476Y-112326467D01*
X164111172Y-112572781D01*
X163263230Y-112780172D01*
X162398643Y-112948641D01*
X161517404Y-113078192D01*
X160619507Y-113168825D01*
X160608434Y-113169692D01*
X160489931Y-113177004D01*
X160336301Y-113183520D01*
X160154744Y-113189169D01*
X159952461Y-113193879D01*
X159736650Y-113197577D01*
X159514513Y-113200192D01*
X159293249Y-113201652D01*
X159080058Y-113201885D01*
X158882140Y-113200819D01*
X158706696Y-113198382D01*
X158560926Y-113194503D01*
X158481184Y-113190935D01*
X157589518Y-113120513D01*
X156711964Y-113010200D01*
X155848286Y-112859936D01*
X154998251Y-112669658D01*
X154161623Y-112439304D01*
X153338169Y-112168813D01*
X152527655Y-111858124D01*
X151729845Y-111507174D01*
X151308131Y-111302853D01*
X150541644Y-110895874D01*
X149798048Y-110453701D01*
X149078412Y-109977415D01*
X148383807Y-109468096D01*
X147715302Y-108926826D01*
X147073968Y-108354686D01*
X146460874Y-107752758D01*
X145877089Y-107122123D01*
X145323685Y-106463861D01*
X144801730Y-105779055D01*
X144312294Y-105068786D01*
X143856448Y-104334134D01*
X143435261Y-103576181D01*
X143196837Y-103104950D01*
X142849249Y-102351438D01*
X142539915Y-101593940D01*
X142267978Y-100829248D01*
X142032579Y-100054150D01*
X141832860Y-99265437D01*
X141667964Y-98459900D01*
X141537034Y-97634328D01*
X141439210Y-96785512D01*
X141406579Y-96405700D01*
X141398807Y-96276178D01*
X141392422Y-96111244D01*
X141387425Y-95917796D01*
X141383814Y-95702732D01*
X141381588Y-95472950D01*
X141380748Y-95235348D01*
X141381053Y-95101429D01*
X142385428Y-95101429D01*
X142385461Y-95329129D01*
X142386849Y-95552778D01*
X142389593Y-95764650D01*
X142393693Y-95957018D01*
X142399149Y-96122153D01*
X142405600Y-96246950D01*
X142483310Y-97109267D01*
X142601334Y-97958855D01*
X142759430Y-98795136D01*
X142957360Y-99617533D01*
X143194885Y-100425466D01*
X143471763Y-101218357D01*
X143787757Y-101995628D01*
X144142627Y-102756701D01*
X144536132Y-103500996D01*
X144968034Y-104227937D01*
X145438092Y-104936943D01*
X145946068Y-105627438D01*
X146491721Y-106298842D01*
X146639944Y-106470450D01*
X146762527Y-106606722D01*
X146910394Y-106764737D01*
X147077167Y-106938137D01*
X147256466Y-107120566D01*
X147441913Y-107305668D01*
X147627128Y-107487086D01*
X147805733Y-107658464D01*
X147971348Y-107813445D01*
X148117594Y-107945672D01*
X148141267Y-107966477D01*
X148801901Y-108516869D01*
X149481709Y-109029546D01*
X150181091Y-109504738D01*
X150900451Y-109942672D01*
X151640190Y-110343578D01*
X152400709Y-110707686D01*
X153182412Y-111035224D01*
X153985699Y-111326420D01*
X154110267Y-111367696D01*
X154875984Y-111597901D01*
X155655294Y-111792256D01*
X156442092Y-111949551D01*
X157230271Y-112068579D01*
X158013724Y-112148131D01*
X158079017Y-112152970D01*
X158197049Y-112161556D01*
X158305838Y-112169637D01*
X158395647Y-112176477D01*
X158456737Y-112181342D01*
X158470600Y-112182539D01*
X158533742Y-112186045D01*
X158633117Y-112188781D01*
X158762629Y-112190774D01*
X158916187Y-112192050D01*
X159087695Y-112192636D01*
X159271061Y-112192558D01*
X159460191Y-112191843D01*
X159648990Y-112190518D01*
X159831366Y-112188609D01*
X160001224Y-112186142D01*
X160152472Y-112183144D01*
X160279014Y-112179642D01*
X160374758Y-112175662D01*
X160400375Y-112174127D01*
X161267538Y-112095228D01*
X162120353Y-111976655D01*
X162958491Y-111818530D01*
X163781623Y-111620973D01*
X164589420Y-111384106D01*
X165381554Y-111108050D01*
X166157695Y-110792925D01*
X166917515Y-110438853D01*
X167660685Y-110045954D01*
X168386877Y-109614349D01*
X169095761Y-109144160D01*
X169572056Y-108799225D01*
X169872354Y-108570025D01*
X170149961Y-108349065D01*
X170413464Y-108128864D01*
X170671452Y-107901942D01*
X170932513Y-107660819D01*
X171205233Y-107398016D01*
X171382626Y-107222226D01*
X171662852Y-106937686D01*
X171916735Y-106670129D01*
X172151709Y-106411017D01*
X172375207Y-106151815D01*
X172594665Y-105883986D01*
X172817516Y-105598994D01*
X172959015Y-105412117D01*
X173455570Y-104714684D01*
X173913783Y-103999405D01*
X174333491Y-103266723D01*
X174714532Y-102517082D01*
X175056740Y-101750926D01*
X175359954Y-100968698D01*
X175624010Y-100170842D01*
X175848745Y-99357802D01*
X176033995Y-98530021D01*
X176179597Y-97687943D01*
X176285388Y-96832012D01*
X176334658Y-96239975D01*
X176341800Y-96102727D01*
X176347468Y-95931089D01*
X176351662Y-95732977D01*
X176354380Y-95516309D01*
X176355625Y-95289000D01*
X176355395Y-95058968D01*
X176353690Y-94834129D01*
X176350511Y-94622402D01*
X176345858Y-94431702D01*
X176339730Y-94269946D01*
X176334658Y-94179592D01*
X176256158Y-93313665D01*
X176137875Y-92461903D01*
X175979885Y-91624534D01*
X175782265Y-90801788D01*
X175545092Y-89993893D01*
X175268444Y-89201077D01*
X174952396Y-88423569D01*
X174597025Y-87661597D01*
X174202410Y-86915390D01*
X173768626Y-86185177D01*
X173513481Y-85790617D01*
X173030009Y-85102466D01*
X172511756Y-84437676D01*
X171960402Y-83798105D01*
X171377630Y-83185609D01*
X170765122Y-82602045D01*
X170124562Y-82049271D01*
X170122850Y-82047866D01*
X169468759Y-81538438D01*
X168788928Y-81061871D01*
X168085351Y-80619044D01*
X167360020Y-80210834D01*
X166614930Y-79838119D01*
X165852073Y-79501777D01*
X165073444Y-79202686D01*
X164281035Y-78941724D01*
X163476841Y-78719768D01*
X162662854Y-78537696D01*
X161841068Y-78396386D01*
X161825517Y-78394120D01*
X161579434Y-78359148D01*
X161357697Y-78329619D01*
X161153497Y-78305086D01*
X160960026Y-78285101D01*
X160770476Y-78269219D01*
X160578038Y-78256993D01*
X160375905Y-78247975D01*
X160157268Y-78241719D01*
X159915319Y-78237779D01*
X159643250Y-78235707D01*
X159401934Y-78235098D01*
X159148256Y-78235037D01*
X158930658Y-78235555D01*
X158742886Y-78236930D01*
X158578686Y-78239442D01*
X158431806Y-78243370D01*
X158295991Y-78248994D01*
X158164990Y-78256592D01*
X158032548Y-78266445D01*
X157892413Y-78278831D01*
X157738331Y-78294029D01*
X157564049Y-78312320D01*
X157486350Y-78320665D01*
X156674007Y-78429378D01*
X155865019Y-78579562D01*
X155061718Y-78770362D01*
X154266431Y-79000929D01*
X153481490Y-79270410D01*
X152709224Y-79577954D01*
X151951963Y-79922710D01*
X151212036Y-80303824D01*
X150491774Y-80720447D01*
X149919499Y-81086617D01*
X149355373Y-81479748D01*
X148819228Y-81886679D01*
X148302300Y-82314630D01*
X147795827Y-82770822D01*
X147346680Y-83206513D01*
X147048003Y-83511115D01*
X146775752Y-83800718D01*
X146521764Y-84084733D01*
X146277880Y-84372574D01*
X146035938Y-84673654D01*
X145787778Y-84997384D01*
X145748539Y-85049784D01*
X145258072Y-85741645D01*
X144804754Y-86453494D01*
X144388921Y-87184416D01*
X144010905Y-87933499D01*
X143671042Y-88699833D01*
X143369665Y-89482504D01*
X143107109Y-90280601D01*
X142883709Y-91093211D01*
X142699797Y-91919423D01*
X142555709Y-92758324D01*
X142451779Y-93609002D01*
X142405600Y-94172617D01*
X142398854Y-94304664D01*
X142393464Y-94471296D01*
X142389429Y-94664785D01*
X142386751Y-94877405D01*
X142385428Y-95101429D01*
X141381053Y-95101429D01*
X141381292Y-94996826D01*
X141383219Y-94764280D01*
X141386529Y-94544609D01*
X141391222Y-94344712D01*
X141397297Y-94171486D01*
X141404752Y-94031830D01*
X141406807Y-94003284D01*
X141492169Y-93129735D01*
X141612499Y-92278547D01*
X141768464Y-91447266D01*
X141960732Y-90633443D01*
X142189968Y-89834625D01*
X142456842Y-89048363D01*
X142762019Y-88272204D01*
X143106167Y-87503697D01*
X143264278Y-87179032D01*
X143671887Y-86408585D01*
X144114244Y-85661624D01*
X144590337Y-84939160D01*
X145099154Y-84242200D01*
X145639685Y-83571754D01*
X146210919Y-82928831D01*
X146811843Y-82314439D01*
X147441448Y-81729588D01*
X148098721Y-81175287D01*
X148782651Y-80652543D01*
X149492228Y-80162368D01*
X150226439Y-79705768D01*
X150984274Y-79283754D01*
X151379767Y-79082057D01*
X152169317Y-78714931D01*
X152972606Y-78387315D01*
X153788142Y-78099403D01*
X154614436Y-77851391D01*
X155449998Y-77643472D01*
X156293335Y-77475842D01*
X157142959Y-77348695D01*
X157997378Y-77262225D01*
X158855102Y-77216628D01*
X159714641Y-77212098D01*
X160574504Y-77248830D01*
G36*
X193208930Y-105238077D02*
X193421870Y-105246734D01*
X193618878Y-105263346D01*
X193766017Y-105283967D01*
X194164528Y-105374970D01*
X194546142Y-105503309D01*
X194908872Y-105666925D01*
X195250726Y-105863759D01*
X195569715Y-106091753D01*
X195863850Y-106348847D01*
X196131140Y-106632983D01*
X196369596Y-106942102D01*
X196577228Y-107274145D01*
X196752047Y-107627053D01*
X196892063Y-107998768D01*
X196995285Y-108387231D01*
X197045934Y-108677803D01*
X197063391Y-108846750D01*
X197074021Y-109039321D01*
X197077671Y-109240797D01*
X197074185Y-109436462D01*
X197063411Y-109611597D01*
X197056396Y-109677755D01*
X196985549Y-110083761D01*
X196876295Y-110475043D01*
X196730322Y-110849377D01*
X196549320Y-111204540D01*
X196334979Y-111538306D01*
X196088988Y-111848452D01*
X195813036Y-112132754D01*
X195508812Y-112388986D01*
X195178006Y-112614925D01*
X194822307Y-112808346D01*
X194605687Y-112904580D01*
X194225372Y-113037528D01*
X193831634Y-113130432D01*
X193425044Y-113183201D01*
X193006171Y-113195746D01*
X192813517Y-113188226D01*
X192447994Y-113148119D01*
X192087600Y-113071120D01*
X191725368Y-112955600D01*
X191586961Y-112901741D01*
X191219152Y-112729438D01*
X190874837Y-112523056D01*
X190555761Y-112284836D01*
X190263669Y-112017019D01*
X190000308Y-111721847D01*
X189767423Y-111401561D01*
X189566760Y-111058402D01*
X189400064Y-110694612D01*
X189269083Y-110312432D01*
X189175561Y-109914102D01*
X189152806Y-109776737D01*
X189135705Y-109620699D01*
X189125201Y-109436248D01*
X189121306Y-109236791D01*
X189124030Y-109035734D01*
X189133385Y-108846483D01*
X189149380Y-108682442D01*
X189151907Y-108663954D01*
X189230541Y-108258091D01*
X189348518Y-107867163D01*
X189504943Y-107492948D01*
X189698922Y-107137221D01*
X189929562Y-106801759D01*
X190195970Y-106488339D01*
X190300513Y-106381192D01*
X190607618Y-106106419D01*
X190935809Y-105868311D01*
X191284659Y-105667076D01*
X191653738Y-105502922D01*
X192042617Y-105376055D01*
X192450868Y-105286684D01*
X192612434Y-105262407D01*
X192790421Y-105245655D01*
X192993851Y-105237631D01*
X193208930Y-105238077D01*
X193208930Y-105238077D01*
G37*
X193208930Y-105238077D02*
X193421870Y-105246734D01*
X193618878Y-105263346D01*
X193766017Y-105283967D01*
X194164528Y-105374970D01*
X194546142Y-105503309D01*
X194908872Y-105666925D01*
X195250726Y-105863759D01*
X195569715Y-106091753D01*
X195863850Y-106348847D01*
X196131140Y-106632983D01*
X196369596Y-106942102D01*
X196577228Y-107274145D01*
X196752047Y-107627053D01*
X196892063Y-107998768D01*
X196995285Y-108387231D01*
X197045934Y-108677803D01*
X197063391Y-108846750D01*
X197074021Y-109039321D01*
X197077671Y-109240797D01*
X197074185Y-109436462D01*
X197063411Y-109611597D01*
X197056396Y-109677755D01*
X196985549Y-110083761D01*
X196876295Y-110475043D01*
X196730322Y-110849377D01*
X196549320Y-111204540D01*
X196334979Y-111538306D01*
X196088988Y-111848452D01*
X195813036Y-112132754D01*
X195508812Y-112388986D01*
X195178006Y-112614925D01*
X194822307Y-112808346D01*
X194605687Y-112904580D01*
X194225372Y-113037528D01*
X193831634Y-113130432D01*
X193425044Y-113183201D01*
X193006171Y-113195746D01*
X192813517Y-113188226D01*
X192447994Y-113148119D01*
X192087600Y-113071120D01*
X191725368Y-112955600D01*
X191586961Y-112901741D01*
X191219152Y-112729438D01*
X190874837Y-112523056D01*
X190555761Y-112284836D01*
X190263669Y-112017019D01*
X190000308Y-111721847D01*
X189767423Y-111401561D01*
X189566760Y-111058402D01*
X189400064Y-110694612D01*
X189269083Y-110312432D01*
X189175561Y-109914102D01*
X189152806Y-109776737D01*
X189135705Y-109620699D01*
X189125201Y-109436248D01*
X189121306Y-109236791D01*
X189124030Y-109035734D01*
X189133385Y-108846483D01*
X189149380Y-108682442D01*
X189151907Y-108663954D01*
X189230541Y-108258091D01*
X189348518Y-107867163D01*
X189504943Y-107492948D01*
X189698922Y-107137221D01*
X189929562Y-106801759D01*
X190195970Y-106488339D01*
X190300513Y-106381192D01*
X190607618Y-106106419D01*
X190935809Y-105868311D01*
X191284659Y-105667076D01*
X191653738Y-105502922D01*
X192042617Y-105376055D01*
X192450868Y-105286684D01*
X192612434Y-105262407D01*
X192790421Y-105245655D01*
X192993851Y-105237631D01*
X193208930Y-105238077D01*
G36*
X126238339Y-77300004D02*
X126639750Y-77381695D01*
X126888666Y-77453637D01*
X127060260Y-77516403D01*
X127251977Y-77598933D01*
X127451215Y-77694901D01*
X127645371Y-77797976D01*
X127821840Y-77901832D01*
X127947546Y-77985301D01*
X128075222Y-78083428D01*
X128218639Y-78205273D01*
X128367501Y-78341171D01*
X128511514Y-78481458D01*
X128640384Y-78616472D01*
X128731212Y-78720950D01*
X128970823Y-79047166D01*
X129175208Y-79395973D01*
X129343333Y-79765001D01*
X129474161Y-80151880D01*
X129566658Y-80554240D01*
X129587363Y-80681583D01*
X129606028Y-80854083D01*
X129616733Y-81053984D01*
X129619497Y-81267111D01*
X129614337Y-81479290D01*
X129601268Y-81676347D01*
X129586033Y-81807433D01*
X129507294Y-82205575D01*
X129390032Y-82589171D01*
X129236236Y-82955941D01*
X129047899Y-83303603D01*
X128827011Y-83629875D01*
X128575565Y-83932475D01*
X128295550Y-84209120D01*
X127988959Y-84457530D01*
X127657782Y-84675422D01*
X127304012Y-84860514D01*
X126929638Y-85010524D01*
X126738424Y-85070776D01*
X126495928Y-85129577D01*
X126229471Y-85175059D01*
X125952230Y-85206006D01*
X125677375Y-85221203D01*
X125418081Y-85219433D01*
X125255195Y-85207691D01*
X124851443Y-85144928D01*
X124462275Y-85043949D01*
X124089730Y-84906724D01*
X123735846Y-84735224D01*
X123402659Y-84531422D01*
X123092207Y-84297287D01*
X122806530Y-84034793D01*
X122547663Y-83745909D01*
X122317645Y-83432606D01*
X122118514Y-83096858D01*
X121952306Y-82740633D01*
X121821061Y-82365905D01*
X121726816Y-81974643D01*
X121692565Y-81761253D01*
X121659827Y-81357905D01*
X121668293Y-80956342D01*
X121716955Y-80559673D01*
X121804802Y-80171007D01*
X121930825Y-79793451D01*
X122094014Y-79430116D01*
X122293359Y-79084108D01*
X122527850Y-78758537D01*
X122750817Y-78503573D01*
X122985900Y-78272550D01*
X123221762Y-78073879D01*
X123470017Y-77898989D01*
X123742276Y-77739311D01*
X123889225Y-77663397D01*
X124260429Y-77502147D01*
X124643292Y-77380923D01*
X125035164Y-77299912D01*
X125433396Y-77259298D01*
X125835338Y-77259267D01*
X126238339Y-77300004D01*
X126238339Y-77300004D01*
G37*
X126238339Y-77300004D02*
X126639750Y-77381695D01*
X126888666Y-77453637D01*
X127060260Y-77516403D01*
X127251977Y-77598933D01*
X127451215Y-77694901D01*
X127645371Y-77797976D01*
X127821840Y-77901832D01*
X127947546Y-77985301D01*
X128075222Y-78083428D01*
X128218639Y-78205273D01*
X128367501Y-78341171D01*
X128511514Y-78481458D01*
X128640384Y-78616472D01*
X128731212Y-78720950D01*
X128970823Y-79047166D01*
X129175208Y-79395973D01*
X129343333Y-79765001D01*
X129474161Y-80151880D01*
X129566658Y-80554240D01*
X129587363Y-80681583D01*
X129606028Y-80854083D01*
X129616733Y-81053984D01*
X129619497Y-81267111D01*
X129614337Y-81479290D01*
X129601268Y-81676347D01*
X129586033Y-81807433D01*
X129507294Y-82205575D01*
X129390032Y-82589171D01*
X129236236Y-82955941D01*
X129047899Y-83303603D01*
X128827011Y-83629875D01*
X128575565Y-83932475D01*
X128295550Y-84209120D01*
X127988959Y-84457530D01*
X127657782Y-84675422D01*
X127304012Y-84860514D01*
X126929638Y-85010524D01*
X126738424Y-85070776D01*
X126495928Y-85129577D01*
X126229471Y-85175059D01*
X125952230Y-85206006D01*
X125677375Y-85221203D01*
X125418081Y-85219433D01*
X125255195Y-85207691D01*
X124851443Y-85144928D01*
X124462275Y-85043949D01*
X124089730Y-84906724D01*
X123735846Y-84735224D01*
X123402659Y-84531422D01*
X123092207Y-84297287D01*
X122806530Y-84034793D01*
X122547663Y-83745909D01*
X122317645Y-83432606D01*
X122118514Y-83096858D01*
X121952306Y-82740633D01*
X121821061Y-82365905D01*
X121726816Y-81974643D01*
X121692565Y-81761253D01*
X121659827Y-81357905D01*
X121668293Y-80956342D01*
X121716955Y-80559673D01*
X121804802Y-80171007D01*
X121930825Y-79793451D01*
X122094014Y-79430116D01*
X122293359Y-79084108D01*
X122527850Y-78758537D01*
X122750817Y-78503573D01*
X122985900Y-78272550D01*
X123221762Y-78073879D01*
X123470017Y-77898989D01*
X123742276Y-77739311D01*
X123889225Y-77663397D01*
X124260429Y-77502147D01*
X124643292Y-77380923D01*
X125035164Y-77299912D01*
X125433396Y-77259298D01*
X125835338Y-77259267D01*
X126238339Y-77300004D01*
G36*
X193470048Y-77268778D02*
X193871135Y-77322841D01*
X194269609Y-77418256D01*
X194295184Y-77425851D01*
X194673111Y-77561021D01*
X195031272Y-77732240D01*
X195367755Y-77937174D01*
X195680646Y-78173489D01*
X195968032Y-78438849D01*
X196228000Y-78730920D01*
X196458638Y-79047367D01*
X196658032Y-79385856D01*
X196824269Y-79744051D01*
X196955436Y-80119617D01*
X197049621Y-80510221D01*
X197098679Y-80847484D01*
X197118387Y-81244639D01*
X197097036Y-81643322D01*
X197035516Y-82039385D01*
X196934720Y-82428682D01*
X196795538Y-82807065D01*
X196618862Y-83170388D01*
X196587158Y-83226873D01*
X196370781Y-83563389D01*
X196123251Y-83873359D01*
X195847470Y-84155289D01*
X195546337Y-84407690D01*
X195222752Y-84629069D01*
X194879616Y-84817935D01*
X194519829Y-84972797D01*
X194146290Y-85092162D01*
X193761901Y-85174541D01*
X193369561Y-85218440D01*
X192972170Y-85222369D01*
X192739434Y-85205636D01*
X192344859Y-85145099D01*
X191960502Y-85044966D01*
X191582878Y-84904204D01*
X191342643Y-84792077D01*
X190981452Y-84587805D01*
X190650484Y-84353896D01*
X190349581Y-84090194D01*
X190078587Y-83796542D01*
X189837345Y-83472784D01*
X189625699Y-83118762D01*
X189578194Y-83027100D01*
X189411412Y-82649980D01*
X189285063Y-82262762D01*
X189199374Y-81867965D01*
X189154574Y-81468111D01*
X189150889Y-81065719D01*
X189188549Y-80663308D01*
X189267781Y-80263400D01*
X189313285Y-80097546D01*
X189434055Y-79756687D01*
X189590790Y-79420027D01*
X189778891Y-79094761D01*
X189993762Y-78788084D01*
X190230806Y-78507191D01*
X190485425Y-78259275D01*
X190491019Y-78254395D01*
X190815889Y-77998803D01*
X191159729Y-77779862D01*
X191519840Y-77598159D01*
X191893526Y-77454282D01*
X192278087Y-77348817D01*
X192670826Y-77282353D01*
X193069046Y-77255478D01*
X193470048Y-77268778D01*
X193470048Y-77268778D01*
G37*
X193470048Y-77268778D02*
X193871135Y-77322841D01*
X194269609Y-77418256D01*
X194295184Y-77425851D01*
X194673111Y-77561021D01*
X195031272Y-77732240D01*
X195367755Y-77937174D01*
X195680646Y-78173489D01*
X195968032Y-78438849D01*
X196228000Y-78730920D01*
X196458638Y-79047367D01*
X196658032Y-79385856D01*
X196824269Y-79744051D01*
X196955436Y-80119617D01*
X197049621Y-80510221D01*
X197098679Y-80847484D01*
X197118387Y-81244639D01*
X197097036Y-81643322D01*
X197035516Y-82039385D01*
X196934720Y-82428682D01*
X196795538Y-82807065D01*
X196618862Y-83170388D01*
X196587158Y-83226873D01*
X196370781Y-83563389D01*
X196123251Y-83873359D01*
X195847470Y-84155289D01*
X195546337Y-84407690D01*
X195222752Y-84629069D01*
X194879616Y-84817935D01*
X194519829Y-84972797D01*
X194146290Y-85092162D01*
X193761901Y-85174541D01*
X193369561Y-85218440D01*
X192972170Y-85222369D01*
X192739434Y-85205636D01*
X192344859Y-85145099D01*
X191960502Y-85044966D01*
X191582878Y-84904204D01*
X191342643Y-84792077D01*
X190981452Y-84587805D01*
X190650484Y-84353896D01*
X190349581Y-84090194D01*
X190078587Y-83796542D01*
X189837345Y-83472784D01*
X189625699Y-83118762D01*
X189578194Y-83027100D01*
X189411412Y-82649980D01*
X189285063Y-82262762D01*
X189199374Y-81867965D01*
X189154574Y-81468111D01*
X189150889Y-81065719D01*
X189188549Y-80663308D01*
X189267781Y-80263400D01*
X189313285Y-80097546D01*
X189434055Y-79756687D01*
X189590790Y-79420027D01*
X189778891Y-79094761D01*
X189993762Y-78788084D01*
X190230806Y-78507191D01*
X190485425Y-78259275D01*
X190491019Y-78254395D01*
X190815889Y-77998803D01*
X191159729Y-77779862D01*
X191519840Y-77598159D01*
X191893526Y-77454282D01*
X192278087Y-77348817D01*
X192670826Y-77282353D01*
X193069046Y-77255478D01*
X193470048Y-77268778D01*
G36*
X145750058Y-57558785D02*
X146150462Y-57618486D01*
X146536996Y-57717835D01*
X146908758Y-57856603D01*
X147247701Y-58024890D01*
X147599283Y-58245495D01*
X147922479Y-58496238D01*
X148215812Y-58774975D01*
X148477807Y-59079566D01*
X148706991Y-59407868D01*
X148901887Y-59757740D01*
X149061020Y-60127040D01*
X149182916Y-60513626D01*
X149266099Y-60915356D01*
X149273733Y-60966754D01*
X149292674Y-61149853D01*
X149302474Y-61358555D01*
X149303421Y-61580492D01*
X149295805Y-61803294D01*
X149279916Y-62014591D01*
X149256042Y-62202014D01*
X149243171Y-62273292D01*
X149142663Y-62669665D01*
X149006003Y-63047062D01*
X148835410Y-63403857D01*
X148633106Y-63738421D01*
X148401312Y-64049126D01*
X148142249Y-64334346D01*
X147858138Y-64592450D01*
X147551200Y-64821814D01*
X147223655Y-65020807D01*
X146877726Y-65187803D01*
X146515632Y-65321174D01*
X146139594Y-65419291D01*
X145751835Y-65480528D01*
X145354574Y-65503256D01*
X144950033Y-65485848D01*
X144871017Y-65477698D01*
X144520950Y-65419645D01*
X144164798Y-65325148D01*
X143812005Y-65197145D01*
X143490198Y-65048029D01*
X143245103Y-64911436D01*
X143022023Y-64764554D01*
X142808302Y-64598232D01*
X142591284Y-64403318D01*
X142568672Y-64381670D01*
X142283451Y-64078950D01*
X142034719Y-63755317D01*
X141823077Y-63411953D01*
X141649124Y-63050037D01*
X141513460Y-62670752D01*
X141416685Y-62275279D01*
X141378404Y-62037374D01*
X141345952Y-61632235D01*
X141354306Y-61232206D01*
X141402024Y-60839738D01*
X141487664Y-60457283D01*
X141609781Y-60087291D01*
X141766934Y-59732215D01*
X141957679Y-59394504D01*
X142180573Y-59076612D01*
X142434174Y-58780989D01*
X142717038Y-58510086D01*
X143027723Y-58266355D01*
X143364785Y-58052247D01*
X143726782Y-57870214D01*
X143865600Y-57811940D01*
X144193383Y-57696963D01*
X144520985Y-57614619D01*
X144858404Y-57563051D01*
X145215640Y-57540405D01*
X145336684Y-57538963D01*
X145750058Y-57558785D01*
X145750058Y-57558785D01*
G37*
X145750058Y-57558785D02*
X146150462Y-57618486D01*
X146536996Y-57717835D01*
X146908758Y-57856603D01*
X147247701Y-58024890D01*
X147599283Y-58245495D01*
X147922479Y-58496238D01*
X148215812Y-58774975D01*
X148477807Y-59079566D01*
X148706991Y-59407868D01*
X148901887Y-59757740D01*
X149061020Y-60127040D01*
X149182916Y-60513626D01*
X149266099Y-60915356D01*
X149273733Y-60966754D01*
X149292674Y-61149853D01*
X149302474Y-61358555D01*
X149303421Y-61580492D01*
X149295805Y-61803294D01*
X149279916Y-62014591D01*
X149256042Y-62202014D01*
X149243171Y-62273292D01*
X149142663Y-62669665D01*
X149006003Y-63047062D01*
X148835410Y-63403857D01*
X148633106Y-63738421D01*
X148401312Y-64049126D01*
X148142249Y-64334346D01*
X147858138Y-64592450D01*
X147551200Y-64821814D01*
X147223655Y-65020807D01*
X146877726Y-65187803D01*
X146515632Y-65321174D01*
X146139594Y-65419291D01*
X145751835Y-65480528D01*
X145354574Y-65503256D01*
X144950033Y-65485848D01*
X144871017Y-65477698D01*
X144520950Y-65419645D01*
X144164798Y-65325148D01*
X143812005Y-65197145D01*
X143490198Y-65048029D01*
X143245103Y-64911436D01*
X143022023Y-64764554D01*
X142808302Y-64598232D01*
X142591284Y-64403318D01*
X142568672Y-64381670D01*
X142283451Y-64078950D01*
X142034719Y-63755317D01*
X141823077Y-63411953D01*
X141649124Y-63050037D01*
X141513460Y-62670752D01*
X141416685Y-62275279D01*
X141378404Y-62037374D01*
X141345952Y-61632235D01*
X141354306Y-61232206D01*
X141402024Y-60839738D01*
X141487664Y-60457283D01*
X141609781Y-60087291D01*
X141766934Y-59732215D01*
X141957679Y-59394504D01*
X142180573Y-59076612D01*
X142434174Y-58780989D01*
X142717038Y-58510086D01*
X143027723Y-58266355D01*
X143364785Y-58052247D01*
X143726782Y-57870214D01*
X143865600Y-57811940D01*
X144193383Y-57696963D01*
X144520985Y-57614619D01*
X144858404Y-57563051D01*
X145215640Y-57540405D01*
X145336684Y-57538963D01*
X145750058Y-57558785D01*
G36*
X173613037Y-57543516D02*
X173990737Y-57590777D01*
X174359086Y-57673339D01*
X174715865Y-57789804D01*
X175058852Y-57938773D01*
X175385829Y-58118847D01*
X175694576Y-58328626D01*
X175982873Y-58566712D01*
X176248499Y-58831706D01*
X176489236Y-59122208D01*
X176702864Y-59436820D01*
X176887162Y-59774142D01*
X177039911Y-60132776D01*
X177158891Y-60511322D01*
X177241882Y-60908381D01*
X177257433Y-61015550D01*
X177276926Y-61227920D01*
X177284221Y-61465040D01*
X177279713Y-61711745D01*
X177263798Y-61952870D01*
X177236874Y-62173249D01*
X177225406Y-62240097D01*
X177130810Y-62632909D01*
X176997067Y-63012877D01*
X176826207Y-63376979D01*
X176620263Y-63722192D01*
X176381265Y-64045492D01*
X176111245Y-64343856D01*
X175812235Y-64614260D01*
X175486265Y-64853682D01*
X175456222Y-64873253D01*
X175120785Y-65065068D01*
X174762982Y-65223801D01*
X174388426Y-65348141D01*
X174002728Y-65436777D01*
X173611499Y-65488399D01*
X173220351Y-65501695D01*
X172863934Y-65478786D01*
X172611647Y-65441749D01*
X172363056Y-65387269D01*
X172100654Y-65311427D01*
X172064930Y-65299897D01*
X171684383Y-65154039D01*
X171325229Y-64972713D01*
X170989302Y-64757995D01*
X170678435Y-64511960D01*
X170394462Y-64236683D01*
X170139217Y-63934242D01*
X169914532Y-63606710D01*
X169722242Y-63256164D01*
X169564180Y-62884680D01*
X169442180Y-62494333D01*
X169391305Y-62273292D01*
X169365236Y-62108284D01*
X169346211Y-61913689D01*
X169334529Y-61701709D01*
X169330489Y-61484548D01*
X169334390Y-61274412D01*
X169346531Y-61083503D01*
X169359448Y-60972261D01*
X169438177Y-60569678D01*
X169554826Y-60182410D01*
X169707556Y-59812665D01*
X169894529Y-59462653D01*
X170113905Y-59134584D01*
X170363845Y-58830668D01*
X170642511Y-58553114D01*
X170948065Y-58304131D01*
X171278666Y-58085929D01*
X171632476Y-57900719D01*
X172007657Y-57750709D01*
X172053121Y-57735476D01*
X172446028Y-57627538D01*
X172838462Y-57560498D01*
X173228205Y-57532957D01*
X173613037Y-57543516D01*
X173613037Y-57543516D01*
G37*
X173613037Y-57543516D02*
X173990737Y-57590777D01*
X174359086Y-57673339D01*
X174715865Y-57789804D01*
X175058852Y-57938773D01*
X175385829Y-58118847D01*
X175694576Y-58328626D01*
X175982873Y-58566712D01*
X176248499Y-58831706D01*
X176489236Y-59122208D01*
X176702864Y-59436820D01*
X176887162Y-59774142D01*
X177039911Y-60132776D01*
X177158891Y-60511322D01*
X177241882Y-60908381D01*
X177257433Y-61015550D01*
X177276926Y-61227920D01*
X177284221Y-61465040D01*
X177279713Y-61711745D01*
X177263798Y-61952870D01*
X177236874Y-62173249D01*
X177225406Y-62240097D01*
X177130810Y-62632909D01*
X176997067Y-63012877D01*
X176826207Y-63376979D01*
X176620263Y-63722192D01*
X176381265Y-64045492D01*
X176111245Y-64343856D01*
X175812235Y-64614260D01*
X175486265Y-64853682D01*
X175456222Y-64873253D01*
X175120785Y-65065068D01*
X174762982Y-65223801D01*
X174388426Y-65348141D01*
X174002728Y-65436777D01*
X173611499Y-65488399D01*
X173220351Y-65501695D01*
X172863934Y-65478786D01*
X172611647Y-65441749D01*
X172363056Y-65387269D01*
X172100654Y-65311427D01*
X172064930Y-65299897D01*
X171684383Y-65154039D01*
X171325229Y-64972713D01*
X170989302Y-64757995D01*
X170678435Y-64511960D01*
X170394462Y-64236683D01*
X170139217Y-63934242D01*
X169914532Y-63606710D01*
X169722242Y-63256164D01*
X169564180Y-62884680D01*
X169442180Y-62494333D01*
X169391305Y-62273292D01*
X169365236Y-62108284D01*
X169346211Y-61913689D01*
X169334529Y-61701709D01*
X169330489Y-61484548D01*
X169334390Y-61274412D01*
X169346531Y-61083503D01*
X169359448Y-60972261D01*
X169438177Y-60569678D01*
X169554826Y-60182410D01*
X169707556Y-59812665D01*
X169894529Y-59462653D01*
X170113905Y-59134584D01*
X170363845Y-58830668D01*
X170642511Y-58553114D01*
X170948065Y-58304131D01*
X171278666Y-58085929D01*
X171632476Y-57900719D01*
X172007657Y-57750709D01*
X172053121Y-57735476D01*
X172446028Y-57627538D01*
X172838462Y-57560498D01*
X173228205Y-57532957D01*
X173613037Y-57543516D01*
G36*
X159583267Y-87886862D02*
X159774069Y-87889512D01*
X159951091Y-87894188D01*
X160106326Y-87900883D01*
X160231764Y-87909594D01*
X160280350Y-87914649D01*
X160738128Y-87983987D01*
X161162971Y-88077269D01*
X161557557Y-88195543D01*
X161924561Y-88339863D01*
X162266659Y-88511277D01*
X162586528Y-88710839D01*
X162883850Y-88937096D01*
X163165532Y-89196732D01*
X163408331Y-89473057D01*
X163612357Y-89766319D01*
X163777720Y-90076764D01*
X163904529Y-90404638D01*
X163992893Y-90750188D01*
X164042922Y-91113660D01*
X164054725Y-91495301D01*
X164052683Y-91569117D01*
X164020165Y-91949258D01*
X163950862Y-92308744D01*
X163844211Y-92648839D01*
X163699646Y-92970803D01*
X163516601Y-93275898D01*
X163294513Y-93565387D01*
X163037498Y-93836060D01*
X162907312Y-93957496D01*
X162788652Y-94060574D01*
X162669458Y-94154806D01*
X162537671Y-94249707D01*
X162381230Y-94354790D01*
X162373528Y-94359837D01*
X162232030Y-94447637D01*
X162065137Y-94543442D01*
X161886526Y-94639947D01*
X161709876Y-94729847D01*
X161548864Y-94805836D01*
X161491973Y-94830671D01*
X161423657Y-94862304D01*
X161374968Y-94890041D01*
X161355140Y-94908517D01*
X161355208Y-94910107D01*
X161376745Y-94924080D01*
X161430016Y-94947045D01*
X161506311Y-94975481D01*
X161572853Y-94998101D01*
X161978420Y-95147336D01*
X162349528Y-95319046D01*
X162688667Y-95515044D01*
X162998327Y-95737142D01*
X163280995Y-95987153D01*
X163539163Y-96266890D01*
X163775320Y-96578166D01*
X163807218Y-96625036D01*
X164010335Y-96961546D01*
X164171847Y-97304870D01*
X164292156Y-97656581D01*
X164371665Y-98018251D01*
X164410776Y-98391450D01*
X164409891Y-98777751D01*
X164398536Y-98935117D01*
X164346239Y-99334839D01*
X164264265Y-99706047D01*
X164151398Y-100051558D01*
X164006428Y-100374191D01*
X163828141Y-100676764D01*
X163615324Y-100962095D01*
X163443536Y-101154778D01*
X163161099Y-101426041D01*
X162858831Y-101668148D01*
X162534837Y-101881872D01*
X162187217Y-102067984D01*
X161814076Y-102227259D01*
X161413517Y-102360469D01*
X160983642Y-102468386D01*
X160522553Y-102551782D01*
X160028355Y-102611432D01*
X159825267Y-102628498D01*
X159689544Y-102636186D01*
X159524592Y-102641709D01*
X159340004Y-102645082D01*
X159145372Y-102646320D01*
X158950290Y-102645438D01*
X158764351Y-102642452D01*
X158597147Y-102637375D01*
X158458273Y-102630223D01*
X158407100Y-102626290D01*
X157929142Y-102567239D01*
X157473644Y-102476855D01*
X157041892Y-102355818D01*
X156635171Y-102204809D01*
X156254768Y-102024506D01*
X155901968Y-101815591D01*
X155578056Y-101578743D01*
X155284319Y-101314642D01*
X155022041Y-101023970D01*
X154799255Y-100717806D01*
X154622830Y-100408646D01*
X154481207Y-100079480D01*
X154374326Y-99734322D01*
X154302132Y-99377185D01*
X154264566Y-99012084D01*
X154261570Y-98643033D01*
X154276156Y-98472258D01*
X157290102Y-98472258D01*
X157302482Y-98743419D01*
X157353295Y-98997042D01*
X157442500Y-99232986D01*
X157570052Y-99451107D01*
X157735908Y-99651265D01*
X157775070Y-99690488D01*
X157984123Y-99864976D01*
X158221752Y-100012195D01*
X158482265Y-100129730D01*
X158759969Y-100215166D01*
X159049171Y-100266087D01*
X159153811Y-100275425D01*
X159363825Y-100282181D01*
X159578360Y-100276094D01*
X159783938Y-100258094D01*
X159967082Y-100229111D01*
X160030019Y-100214907D01*
X160314586Y-100125580D01*
X160570857Y-100007449D01*
X160797492Y-99861731D01*
X160993150Y-99689640D01*
X161156491Y-99492392D01*
X161286175Y-99271201D01*
X161380861Y-99027283D01*
X161395058Y-98977450D01*
X161420448Y-98847649D01*
X161436798Y-98688993D01*
X161444106Y-98513982D01*
X161442371Y-98335117D01*
X161431593Y-98164900D01*
X161411770Y-98015832D01*
X161395144Y-97940284D01*
X161301411Y-97672312D01*
X161168210Y-97418924D01*
X160995955Y-97180506D01*
X160785061Y-96957446D01*
X160535941Y-96750130D01*
X160249011Y-96558948D01*
X159924683Y-96384284D01*
X159563373Y-96226528D01*
X159561522Y-96225802D01*
X159308361Y-96126435D01*
X159191106Y-96174186D01*
X159120810Y-96204619D01*
X159027481Y-96247482D01*
X158925791Y-96295955D01*
X158867794Y-96324435D01*
X158536598Y-96506704D01*
X158244686Y-96704548D01*
X157991908Y-96918148D01*
X157778114Y-97147683D01*
X157603154Y-97393333D01*
X157466878Y-97655279D01*
X157369135Y-97933700D01*
X157316199Y-98183700D01*
X157290102Y-98472258D01*
X154276156Y-98472258D01*
X154293086Y-98274046D01*
X154359058Y-97909136D01*
X154459427Y-97552317D01*
X154594136Y-97207605D01*
X154763127Y-96879012D01*
X154856595Y-96727898D01*
X155066672Y-96436145D01*
X155301870Y-96164939D01*
X155565139Y-95911829D01*
X155859426Y-95674365D01*
X156187681Y-95450096D01*
X156552852Y-95236571D01*
X156814309Y-95100942D01*
X156927508Y-95043985D01*
X157026426Y-94992653D01*
X157105241Y-94950093D01*
X157158135Y-94919458D01*
X157179286Y-94903895D01*
X157179434Y-94903350D01*
X157161812Y-94885392D01*
X157118599Y-94862951D01*
X157110642Y-94859702D01*
X157021058Y-94820948D01*
X156905629Y-94766055D01*
X156774898Y-94700518D01*
X156639409Y-94629830D01*
X156509705Y-94559486D01*
X156396328Y-94494981D01*
X156314014Y-94444548D01*
X155983018Y-94208540D01*
X155690961Y-93956184D01*
X155437576Y-93687099D01*
X155222593Y-93400901D01*
X155045745Y-93097209D01*
X154906762Y-92775639D01*
X154805377Y-92435810D01*
X154764664Y-92235867D01*
X154742253Y-92062143D01*
X154728337Y-91860859D01*
X154724877Y-91720977D01*
X157721666Y-91720977D01*
X157721687Y-91727867D01*
X157728363Y-91919198D01*
X157748531Y-92083855D01*
X157784835Y-92236085D01*
X157839917Y-92390132D01*
X157848286Y-92410300D01*
X157963626Y-92632222D01*
X158118296Y-92845522D01*
X158309785Y-93048021D01*
X158535582Y-93237540D01*
X158793178Y-93411899D01*
X159080060Y-93568920D01*
X159296100Y-93666991D01*
X159364474Y-93693552D01*
X159420435Y-93711628D01*
X159445474Y-93716639D01*
X159475498Y-93707941D01*
X159535517Y-93683431D01*
X159617799Y-93646502D01*
X159714612Y-93600545D01*
X159752391Y-93582019D01*
X160058919Y-93413118D01*
X160326400Y-93228736D01*
X160555445Y-93028212D01*
X160746662Y-92810881D01*
X160900661Y-92576082D01*
X161018050Y-92323152D01*
X161077233Y-92140617D01*
X161105011Y-91999581D01*
X161121320Y-91831755D01*
X161126154Y-91651099D01*
X161119506Y-91471573D01*
X161101372Y-91307139D01*
X161077650Y-91192340D01*
X160997217Y-90965831D01*
X160884633Y-90765095D01*
X160737330Y-90585619D01*
X160724814Y-90572892D01*
X160538811Y-90412283D01*
X160333422Y-90285690D01*
X160106363Y-90192270D01*
X159855345Y-90131182D01*
X159578084Y-90101583D01*
X159436203Y-90098312D01*
X159151042Y-90116759D01*
X158885825Y-90170760D01*
X158642221Y-90259347D01*
X158421896Y-90381552D01*
X158226516Y-90536406D01*
X158057749Y-90722942D01*
X157917262Y-90940192D01*
X157887531Y-90997617D01*
X157818692Y-91147096D01*
X157770977Y-91279681D01*
X157741095Y-91409862D01*
X157725755Y-91552131D01*
X157721666Y-91720977D01*
X154724877Y-91720977D01*
X154723020Y-91645945D01*
X154726407Y-91431336D01*
X154738603Y-91230963D01*
X154755968Y-91082284D01*
X154832095Y-90712236D01*
X154945267Y-90361825D01*
X155095864Y-90030404D01*
X155284264Y-89717326D01*
X155510846Y-89421943D01*
X155775989Y-89143607D01*
X156011687Y-88936393D01*
X156335732Y-88698612D01*
X156690254Y-88488863D01*
X157073358Y-88307893D01*
X157483152Y-88156451D01*
X157917742Y-88035287D01*
X158375234Y-87945149D01*
X158597600Y-87913718D01*
X158702888Y-87904129D01*
X158842451Y-87896591D01*
X159008279Y-87891100D01*
X159192363Y-87887651D01*
X159386696Y-87886240D01*
X159583267Y-87886862D01*
X159583267Y-87886862D01*
G37*
X159583267Y-87886862D02*
X159774069Y-87889512D01*
X159951091Y-87894188D01*
X160106326Y-87900883D01*
X160231764Y-87909594D01*
X160280350Y-87914649D01*
X160738128Y-87983987D01*
X161162971Y-88077269D01*
X161557557Y-88195543D01*
X161924561Y-88339863D01*
X162266659Y-88511277D01*
X162586528Y-88710839D01*
X162883850Y-88937096D01*
X163165532Y-89196732D01*
X163408331Y-89473057D01*
X163612357Y-89766319D01*
X163777720Y-90076764D01*
X163904529Y-90404638D01*
X163992893Y-90750188D01*
X164042922Y-91113660D01*
X164054725Y-91495301D01*
X164052683Y-91569117D01*
X164020165Y-91949258D01*
X163950862Y-92308744D01*
X163844211Y-92648839D01*
X163699646Y-92970803D01*
X163516601Y-93275898D01*
X163294513Y-93565387D01*
X163037498Y-93836060D01*
X162907312Y-93957496D01*
X162788652Y-94060574D01*
X162669458Y-94154806D01*
X162537671Y-94249707D01*
X162381230Y-94354790D01*
X162373528Y-94359837D01*
X162232030Y-94447637D01*
X162065137Y-94543442D01*
X161886526Y-94639947D01*
X161709876Y-94729847D01*
X161548864Y-94805836D01*
X161491973Y-94830671D01*
X161423657Y-94862304D01*
X161374968Y-94890041D01*
X161355140Y-94908517D01*
X161355208Y-94910107D01*
X161376745Y-94924080D01*
X161430016Y-94947045D01*
X161506311Y-94975481D01*
X161572853Y-94998101D01*
X161978420Y-95147336D01*
X162349528Y-95319046D01*
X162688667Y-95515044D01*
X162998327Y-95737142D01*
X163280995Y-95987153D01*
X163539163Y-96266890D01*
X163775320Y-96578166D01*
X163807218Y-96625036D01*
X164010335Y-96961546D01*
X164171847Y-97304870D01*
X164292156Y-97656581D01*
X164371665Y-98018251D01*
X164410776Y-98391450D01*
X164409891Y-98777751D01*
X164398536Y-98935117D01*
X164346239Y-99334839D01*
X164264265Y-99706047D01*
X164151398Y-100051558D01*
X164006428Y-100374191D01*
X163828141Y-100676764D01*
X163615324Y-100962095D01*
X163443536Y-101154778D01*
X163161099Y-101426041D01*
X162858831Y-101668148D01*
X162534837Y-101881872D01*
X162187217Y-102067984D01*
X161814076Y-102227259D01*
X161413517Y-102360469D01*
X160983642Y-102468386D01*
X160522553Y-102551782D01*
X160028355Y-102611432D01*
X159825267Y-102628498D01*
X159689544Y-102636186D01*
X159524592Y-102641709D01*
X159340004Y-102645082D01*
X159145372Y-102646320D01*
X158950290Y-102645438D01*
X158764351Y-102642452D01*
X158597147Y-102637375D01*
X158458273Y-102630223D01*
X158407100Y-102626290D01*
X157929142Y-102567239D01*
X157473644Y-102476855D01*
X157041892Y-102355818D01*
X156635171Y-102204809D01*
X156254768Y-102024506D01*
X155901968Y-101815591D01*
X155578056Y-101578743D01*
X155284319Y-101314642D01*
X155022041Y-101023970D01*
X154799255Y-100717806D01*
X154622830Y-100408646D01*
X154481207Y-100079480D01*
X154374326Y-99734322D01*
X154302132Y-99377185D01*
X154264566Y-99012084D01*
X154261570Y-98643033D01*
X154276156Y-98472258D01*
X157290102Y-98472258D01*
X157302482Y-98743419D01*
X157353295Y-98997042D01*
X157442500Y-99232986D01*
X157570052Y-99451107D01*
X157735908Y-99651265D01*
X157775070Y-99690488D01*
X157984123Y-99864976D01*
X158221752Y-100012195D01*
X158482265Y-100129730D01*
X158759969Y-100215166D01*
X159049171Y-100266087D01*
X159153811Y-100275425D01*
X159363825Y-100282181D01*
X159578360Y-100276094D01*
X159783938Y-100258094D01*
X159967082Y-100229111D01*
X160030019Y-100214907D01*
X160314586Y-100125580D01*
X160570857Y-100007449D01*
X160797492Y-99861731D01*
X160993150Y-99689640D01*
X161156491Y-99492392D01*
X161286175Y-99271201D01*
X161380861Y-99027283D01*
X161395058Y-98977450D01*
X161420448Y-98847649D01*
X161436798Y-98688993D01*
X161444106Y-98513982D01*
X161442371Y-98335117D01*
X161431593Y-98164900D01*
X161411770Y-98015832D01*
X161395144Y-97940284D01*
X161301411Y-97672312D01*
X161168210Y-97418924D01*
X160995955Y-97180506D01*
X160785061Y-96957446D01*
X160535941Y-96750130D01*
X160249011Y-96558948D01*
X159924683Y-96384284D01*
X159563373Y-96226528D01*
X159561522Y-96225802D01*
X159308361Y-96126435D01*
X159191106Y-96174186D01*
X159120810Y-96204619D01*
X159027481Y-96247482D01*
X158925791Y-96295955D01*
X158867794Y-96324435D01*
X158536598Y-96506704D01*
X158244686Y-96704548D01*
X157991908Y-96918148D01*
X157778114Y-97147683D01*
X157603154Y-97393333D01*
X157466878Y-97655279D01*
X157369135Y-97933700D01*
X157316199Y-98183700D01*
X157290102Y-98472258D01*
X154276156Y-98472258D01*
X154293086Y-98274046D01*
X154359058Y-97909136D01*
X154459427Y-97552317D01*
X154594136Y-97207605D01*
X154763127Y-96879012D01*
X154856595Y-96727898D01*
X155066672Y-96436145D01*
X155301870Y-96164939D01*
X155565139Y-95911829D01*
X155859426Y-95674365D01*
X156187681Y-95450096D01*
X156552852Y-95236571D01*
X156814309Y-95100942D01*
X156927508Y-95043985D01*
X157026426Y-94992653D01*
X157105241Y-94950093D01*
X157158135Y-94919458D01*
X157179286Y-94903895D01*
X157179434Y-94903350D01*
X157161812Y-94885392D01*
X157118599Y-94862951D01*
X157110642Y-94859702D01*
X157021058Y-94820948D01*
X156905629Y-94766055D01*
X156774898Y-94700518D01*
X156639409Y-94629830D01*
X156509705Y-94559486D01*
X156396328Y-94494981D01*
X156314014Y-94444548D01*
X155983018Y-94208540D01*
X155690961Y-93956184D01*
X155437576Y-93687099D01*
X155222593Y-93400901D01*
X155045745Y-93097209D01*
X154906762Y-92775639D01*
X154805377Y-92435810D01*
X154764664Y-92235867D01*
X154742253Y-92062143D01*
X154728337Y-91860859D01*
X154724877Y-91720977D01*
X157721666Y-91720977D01*
X157721687Y-91727867D01*
X157728363Y-91919198D01*
X157748531Y-92083855D01*
X157784835Y-92236085D01*
X157839917Y-92390132D01*
X157848286Y-92410300D01*
X157963626Y-92632222D01*
X158118296Y-92845522D01*
X158309785Y-93048021D01*
X158535582Y-93237540D01*
X158793178Y-93411899D01*
X159080060Y-93568920D01*
X159296100Y-93666991D01*
X159364474Y-93693552D01*
X159420435Y-93711628D01*
X159445474Y-93716639D01*
X159475498Y-93707941D01*
X159535517Y-93683431D01*
X159617799Y-93646502D01*
X159714612Y-93600545D01*
X159752391Y-93582019D01*
X160058919Y-93413118D01*
X160326400Y-93228736D01*
X160555445Y-93028212D01*
X160746662Y-92810881D01*
X160900661Y-92576082D01*
X161018050Y-92323152D01*
X161077233Y-92140617D01*
X161105011Y-91999581D01*
X161121320Y-91831755D01*
X161126154Y-91651099D01*
X161119506Y-91471573D01*
X161101372Y-91307139D01*
X161077650Y-91192340D01*
X160997217Y-90965831D01*
X160884633Y-90765095D01*
X160737330Y-90585619D01*
X160724814Y-90572892D01*
X160538811Y-90412283D01*
X160333422Y-90285690D01*
X160106363Y-90192270D01*
X159855345Y-90131182D01*
X159578084Y-90101583D01*
X159436203Y-90098312D01*
X159151042Y-90116759D01*
X158885825Y-90170760D01*
X158642221Y-90259347D01*
X158421896Y-90381552D01*
X158226516Y-90536406D01*
X158057749Y-90722942D01*
X157917262Y-90940192D01*
X157887531Y-90997617D01*
X157818692Y-91147096D01*
X157770977Y-91279681D01*
X157741095Y-91409862D01*
X157725755Y-91552131D01*
X157721666Y-91720977D01*
X154724877Y-91720977D01*
X154723020Y-91645945D01*
X154726407Y-91431336D01*
X154738603Y-91230963D01*
X154755968Y-91082284D01*
X154832095Y-90712236D01*
X154945267Y-90361825D01*
X155095864Y-90030404D01*
X155284264Y-89717326D01*
X155510846Y-89421943D01*
X155775989Y-89143607D01*
X156011687Y-88936393D01*
X156335732Y-88698612D01*
X156690254Y-88488863D01*
X157073358Y-88307893D01*
X157483152Y-88156451D01*
X157917742Y-88035287D01*
X158375234Y-87945149D01*
X158597600Y-87913718D01*
X158702888Y-87904129D01*
X158842451Y-87896591D01*
X159008279Y-87891100D01*
X159192363Y-87887651D01*
X159386696Y-87886240D01*
X159583267Y-87886862D01*
D12*
X159593090Y-50917872D03*
D13*
X178615600Y-102258799D03*
D14*
X178615600Y-87258799D03*
D15*
X161149601Y-135585601D03*
D16*
X161149601Y-138125601D03*
X158609601Y-135585601D03*
X158609601Y-138125601D03*
D15*
X120149201Y-93828001D03*
D16*
X120149201Y-96368001D03*
X117609201Y-93828001D03*
X117609201Y-96368001D03*
D15*
X202135601Y-93523201D03*
D16*
X202135601Y-96063201D03*
X199595601Y-93523201D03*
X199595601Y-96063201D03*
M02*
