G04 #@! TF.FileFunction,Copper,L2,Bot,Signal*
%FSLAX46Y46*%
G04 Gerber Fmt 4.6, Leading zero omitted, Abs format (unit mm)*
G04 Created by KiCad (PCBNEW 4.0.7) date 07/18/18 17:21:38*
%MOMM*%
%LPD*%
G01*
G04 APERTURE LIST*
%ADD10C,0.100000*%
%ADD11C,5.147986*%
%ADD12R,2.540000X3.510000*%
%ADD13R,2.000000X1.700000*%
%ADD14R,1.300000X1.500000*%
%ADD15R,1.500000X1.300000*%
%ADD16R,2.000000X2.000000*%
%ADD17O,2.000000X2.000000*%
%ADD18R,2.184400X0.558800*%
%ADD19C,1.700000*%
%ADD20O,1.700000X1.700000*%
%ADD21R,2.500000X1.200000*%
%ADD22C,0.600000*%
%ADD23C,0.250000*%
%ADD24C,0.254000*%
G04 APERTURE END LIST*
D10*
D11*
X159593090Y-50917872D03*
D12*
X145454201Y-117511229D03*
X174814201Y-117511229D03*
D13*
X143452601Y-128933800D03*
X147452601Y-128933800D03*
X171424201Y-128933800D03*
X175424201Y-128933800D03*
X123640601Y-109113000D03*
X127640601Y-109113000D03*
X175276199Y-61422600D03*
X171276199Y-61422600D03*
X195154799Y-81167200D03*
X191154799Y-81167200D03*
X195095799Y-109137400D03*
X191095799Y-109137400D03*
X123613801Y-81210200D03*
X127613801Y-81210200D03*
X143341401Y-61522200D03*
X147341401Y-61522200D03*
D14*
X174794800Y-107371601D03*
X174794800Y-110071601D03*
D15*
X193008999Y-95534200D03*
X190308999Y-95534200D03*
D16*
X178615600Y-102258799D03*
D17*
X178615600Y-87258799D03*
D18*
X157671381Y-99286999D03*
X157671381Y-98016999D03*
X157671381Y-96746999D03*
X157671381Y-95476999D03*
X157671381Y-94206999D03*
X157671381Y-92936999D03*
X157671381Y-91666999D03*
X157671381Y-90396999D03*
X162395781Y-90396999D03*
X162395781Y-91666999D03*
X162395781Y-92936999D03*
X162395781Y-94206999D03*
X162395781Y-95476999D03*
X162395781Y-96746999D03*
X162395781Y-98016999D03*
X162395781Y-99286999D03*
D19*
X161149601Y-135585601D03*
D20*
X161149601Y-138125601D03*
X158609601Y-135585601D03*
X158609601Y-138125601D03*
D19*
X120149201Y-93828001D03*
D20*
X120149201Y-96368001D03*
X117609201Y-93828001D03*
X117609201Y-96368001D03*
D19*
X202135601Y-93523201D03*
D20*
X202135601Y-96063201D03*
X199595601Y-93523201D03*
X199595601Y-96063201D03*
D21*
X137357164Y-119975081D03*
X137357164Y-117475081D03*
X137357164Y-114975081D03*
X131857164Y-114975081D03*
X131857164Y-117475081D03*
X131857164Y-119975081D03*
D22*
X165709600Y-95554800D03*
X157022800Y-86563200D03*
X168706800Y-107289600D03*
X183743600Y-87223600D03*
X177647600Y-109067600D03*
X183184800Y-108204000D03*
X142240000Y-114909600D03*
D23*
X145454201Y-117511229D02*
X137836028Y-117511229D01*
X137836028Y-117511229D02*
X137770200Y-117445401D01*
X162395781Y-95476999D02*
X165631799Y-95476999D01*
X165631799Y-95476999D02*
X165709600Y-95554800D01*
X157671381Y-87211781D02*
X157671381Y-90396999D01*
X157022800Y-86563200D02*
X157671381Y-87211781D01*
X171488801Y-110071601D02*
X168706800Y-107289600D01*
X174794800Y-110071601D02*
X171488801Y-110071601D01*
X174814201Y-117511229D02*
X174814201Y-110091002D01*
X174814201Y-110091002D02*
X174794800Y-110071601D01*
X143452601Y-128933800D02*
X143452601Y-124822199D01*
X123640601Y-110953799D02*
X123640601Y-109113000D01*
X123545600Y-111048800D02*
X123640601Y-110953799D01*
X145999200Y-111048800D02*
X123545600Y-111048800D01*
X148386800Y-113436400D02*
X145999200Y-111048800D01*
X148386800Y-119888000D02*
X148386800Y-113436400D01*
X143452601Y-124822199D02*
X148386800Y-119888000D01*
X171424201Y-128933800D02*
X158340200Y-128933800D01*
X143452601Y-131921001D02*
X143452601Y-128933800D01*
X143967200Y-132435600D02*
X143452601Y-131921001D01*
X154838400Y-132435600D02*
X143967200Y-132435600D01*
X158340200Y-128933800D02*
X154838400Y-132435600D01*
X123640601Y-109113000D02*
X123640601Y-81237000D01*
X123640601Y-81237000D02*
X123613801Y-81210200D01*
X123613801Y-81210200D02*
X123613801Y-77147799D01*
X139239400Y-61522200D02*
X143341401Y-61522200D01*
X123613801Y-77147799D02*
X139239400Y-61522200D01*
X175276199Y-61422600D02*
X175276199Y-58791799D01*
X147510401Y-57353200D02*
X143341401Y-61522200D01*
X173837600Y-57353200D02*
X147510401Y-57353200D01*
X175276199Y-58791799D02*
X173837600Y-57353200D01*
X195154799Y-81167200D02*
X195154799Y-77857599D01*
X178719800Y-61422600D02*
X175276199Y-61422600D01*
X195154799Y-77857599D02*
X178719800Y-61422600D01*
X193008999Y-95534200D02*
X193008999Y-87915001D01*
X195154799Y-85769201D02*
X195154799Y-81167200D01*
X193008999Y-87915001D02*
X195154799Y-85769201D01*
X195095799Y-109137400D02*
X195095799Y-97621000D01*
X195095799Y-97621000D02*
X193008999Y-95534200D01*
X147452601Y-128933800D02*
X147452601Y-122396999D01*
X154255801Y-96746999D02*
X157671381Y-96746999D01*
X150672800Y-100330000D02*
X154255801Y-96746999D01*
X150672800Y-119176800D02*
X150672800Y-100330000D01*
X147452601Y-122396999D02*
X150672800Y-119176800D01*
X175424201Y-128933800D02*
X175424201Y-124116201D01*
X155830601Y-98016999D02*
X157671381Y-98016999D01*
X154584400Y-99263200D02*
X155830601Y-98016999D01*
X154584400Y-103276400D02*
X154584400Y-99263200D01*
X175424201Y-124116201D02*
X154584400Y-103276400D01*
X157671381Y-95476999D02*
X141276602Y-95476999D01*
X141276602Y-95476999D02*
X127640601Y-109113000D01*
X157671381Y-91666999D02*
X156233799Y-91666999D01*
X154686000Y-78012799D02*
X171276199Y-61422600D01*
X154686000Y-90119200D02*
X154686000Y-78012799D01*
X156233799Y-91666999D02*
X154686000Y-90119200D01*
X162395781Y-91666999D02*
X166701801Y-91666999D01*
X177201600Y-81167200D02*
X191154799Y-81167200D01*
X166701801Y-91666999D02*
X177201600Y-81167200D01*
X157671381Y-99286999D02*
X157671381Y-101892981D01*
X179393800Y-109137400D02*
X191095799Y-109137400D01*
X174548800Y-104292400D02*
X179393800Y-109137400D01*
X160070800Y-104292400D02*
X174548800Y-104292400D01*
X157671381Y-101892981D02*
X160070800Y-104292400D01*
X157671381Y-94206999D02*
X151661799Y-94206999D01*
X138665000Y-81210200D02*
X127613801Y-81210200D01*
X151661799Y-94206999D02*
X138665000Y-81210200D01*
X157671381Y-92936999D02*
X155878199Y-92936999D01*
X152552400Y-66733199D02*
X147341401Y-61522200D01*
X152552400Y-89611200D02*
X152552400Y-66733199D01*
X155878199Y-92936999D02*
X152552400Y-89611200D01*
X174794800Y-107371601D02*
X175951601Y-107371601D01*
X183708401Y-87258799D02*
X178615600Y-87258799D01*
X183743600Y-87223600D02*
X183708401Y-87258799D01*
X175951601Y-107371601D02*
X177647600Y-109067600D01*
X178615600Y-87258799D02*
X177714001Y-87258799D01*
X177714001Y-87258799D02*
X168225801Y-96746999D01*
X168225801Y-96746999D02*
X162395781Y-96746999D01*
X199595601Y-89100799D02*
X199595601Y-93523201D01*
X200812400Y-87884000D02*
X199595601Y-89100799D01*
X203047600Y-87884000D02*
X200812400Y-87884000D01*
X204012800Y-88849200D02*
X203047600Y-87884000D01*
X204012800Y-107492800D02*
X204012800Y-88849200D01*
X114554000Y-96883202D02*
X117609201Y-93828001D01*
X114554000Y-105664000D02*
X114554000Y-96883202D01*
X144475200Y-135585601D02*
X144475200Y-135636000D01*
X170332400Y-141173200D02*
X204012800Y-107492800D01*
X150012400Y-141173200D02*
X170332400Y-141173200D01*
X144475200Y-135636000D02*
X150012400Y-141173200D01*
X120802400Y-111912400D02*
X120802400Y-111963200D01*
X144424801Y-135585601D02*
X144475200Y-135585601D01*
X144475200Y-135585601D02*
X158609601Y-135585601D01*
X120802400Y-111963200D02*
X144424801Y-135585601D01*
X120802400Y-111912400D02*
X114554000Y-105664000D01*
X133096000Y-111912400D02*
X120802400Y-111912400D01*
X136129001Y-114945401D02*
X133096000Y-111912400D01*
X137770200Y-114945401D02*
X142204199Y-114945401D01*
X183286400Y-106929599D02*
X178615600Y-102258799D01*
X183286400Y-108102400D02*
X183286400Y-106929599D01*
X183184800Y-108204000D02*
X183286400Y-108102400D01*
X142204199Y-114945401D02*
X142240000Y-114909600D01*
X178615600Y-102258799D02*
X165367581Y-102258799D01*
X165367581Y-102258799D02*
X162395781Y-99286999D01*
X137770200Y-114945401D02*
X136129001Y-114945401D01*
X162395781Y-98016999D02*
X160551799Y-98016999D01*
X160605801Y-90396999D02*
X162395781Y-90396999D01*
X160121600Y-90881200D02*
X160605801Y-90396999D01*
X160121600Y-97586800D02*
X160121600Y-90881200D01*
X160551799Y-98016999D02*
X160121600Y-97586800D01*
D24*
G36*
X159990589Y-46388207D02*
X160619969Y-46400158D01*
X161247217Y-46420015D01*
X161872435Y-46447729D01*
X162495664Y-46483258D01*
X163116647Y-46526543D01*
X163735614Y-46577554D01*
X164352238Y-46636223D01*
X164966477Y-46702496D01*
X165578574Y-46776357D01*
X166188294Y-46857739D01*
X166795537Y-46946585D01*
X167400390Y-47042867D01*
X168002640Y-47146510D01*
X168602458Y-47257504D01*
X169199550Y-47375754D01*
X169794148Y-47501270D01*
X170386002Y-47633963D01*
X170975004Y-47773765D01*
X171561282Y-47920672D01*
X172144816Y-48074645D01*
X172725401Y-48235597D01*
X173303065Y-48403495D01*
X173877746Y-48578292D01*
X174449440Y-48759952D01*
X175017979Y-48948387D01*
X175583507Y-49143615D01*
X176145758Y-49345510D01*
X176704933Y-49554117D01*
X177260724Y-49769290D01*
X177813288Y-49991059D01*
X178362416Y-50219313D01*
X178908265Y-50454090D01*
X179450540Y-50695232D01*
X179989431Y-50942803D01*
X180524679Y-51196655D01*
X181056429Y-51456833D01*
X181584405Y-51723175D01*
X182108821Y-51995767D01*
X182629460Y-52274474D01*
X183146289Y-52559255D01*
X183659318Y-52850095D01*
X184168468Y-53146927D01*
X184673657Y-53449687D01*
X185174888Y-53758354D01*
X185672078Y-54072859D01*
X186165212Y-54393176D01*
X186654247Y-54719260D01*
X187139114Y-55051054D01*
X187619725Y-55388474D01*
X188096089Y-55731518D01*
X188568183Y-56080157D01*
X189035815Y-56434231D01*
X189499127Y-56793839D01*
X189957921Y-57158818D01*
X190412285Y-57529227D01*
X190862017Y-57904893D01*
X191307203Y-58285881D01*
X191747748Y-58672100D01*
X192183569Y-59063475D01*
X192614608Y-59459948D01*
X193040901Y-59861545D01*
X193462353Y-60268176D01*
X193878919Y-60679797D01*
X194290540Y-61096351D01*
X194697144Y-61517763D01*
X195098740Y-61944039D01*
X195495303Y-62375167D01*
X195886646Y-62810942D01*
X196272854Y-63251460D01*
X196653804Y-63696589D01*
X197029514Y-64146358D01*
X197399905Y-64600687D01*
X197764948Y-65059550D01*
X198124476Y-65522744D01*
X198478645Y-65990484D01*
X198827268Y-66462546D01*
X199170314Y-66938901D01*
X199507738Y-67419499D01*
X199839544Y-67904373D01*
X200165634Y-68393400D01*
X200485921Y-68886476D01*
X200800477Y-69383730D01*
X201109138Y-69884939D01*
X201411898Y-70390115D01*
X201708729Y-70899244D01*
X201999556Y-71412234D01*
X202284369Y-71929108D01*
X202563104Y-72449784D01*
X202835645Y-72974091D01*
X203102042Y-73502162D01*
X203362224Y-74033907D01*
X203616083Y-74569156D01*
X203863642Y-75108006D01*
X204104776Y-75650245D01*
X204339566Y-76196107D01*
X204567816Y-76745214D01*
X204789590Y-77297774D01*
X205004795Y-77853633D01*
X205213373Y-78412713D01*
X205415304Y-78975050D01*
X205610496Y-79540458D01*
X205798965Y-80109087D01*
X205980626Y-80680769D01*
X206155438Y-81255491D01*
X206323333Y-81833120D01*
X206484290Y-82413721D01*
X206638231Y-82997110D01*
X206785169Y-83583494D01*
X206924986Y-84172548D01*
X207057684Y-84764417D01*
X207183176Y-85358889D01*
X207301444Y-85956053D01*
X207412423Y-86555783D01*
X207516084Y-87158110D01*
X207612368Y-87762965D01*
X207701213Y-88370185D01*
X207782586Y-88979820D01*
X207856454Y-89591965D01*
X207922738Y-90206299D01*
X207981406Y-90822910D01*
X208032409Y-91441747D01*
X208075703Y-92062848D01*
X208111227Y-92685941D01*
X208138942Y-93311209D01*
X208158804Y-93938559D01*
X208170756Y-94567783D01*
X208174750Y-95199021D01*
X208170757Y-95830207D01*
X208158804Y-96459485D01*
X208138942Y-97086833D01*
X208111227Y-97712101D01*
X208075703Y-98335197D01*
X208032409Y-98956299D01*
X207981406Y-99575139D01*
X207922738Y-100191749D01*
X207856453Y-100806093D01*
X207782587Y-101418221D01*
X207701211Y-102027877D01*
X207612369Y-102635079D01*
X207516082Y-103239959D01*
X207412425Y-103842262D01*
X207301441Y-104442023D01*
X207183156Y-105039267D01*
X207057684Y-105633651D01*
X206924982Y-106225538D01*
X206785154Y-106814635D01*
X206638231Y-107400965D01*
X206484280Y-107984394D01*
X206323326Y-108564984D01*
X206155428Y-109142628D01*
X205980619Y-109717344D01*
X205798957Y-110289031D01*
X205610528Y-110857546D01*
X205415294Y-111423078D01*
X205213381Y-111985369D01*
X205004783Y-112544506D01*
X204789599Y-113100316D01*
X204567826Y-113652880D01*
X204339523Y-114202116D01*
X204104775Y-114747885D01*
X203863640Y-115290130D01*
X203616064Y-115829021D01*
X203362191Y-116364303D01*
X203102024Y-116896019D01*
X202835660Y-117424031D01*
X202563083Y-117948409D01*
X202284385Y-118469022D01*
X201999588Y-118985874D01*
X201708725Y-119498933D01*
X201411915Y-120008034D01*
X201109136Y-120513248D01*
X200800487Y-121014442D01*
X200485952Y-121511669D01*
X200165655Y-122004765D01*
X199839514Y-122493877D01*
X199507785Y-122978644D01*
X199170298Y-123459339D01*
X198827254Y-123935696D01*
X198478661Y-124407721D01*
X198124501Y-124875458D01*
X197764903Y-125338748D01*
X197399900Y-125797565D01*
X197029584Y-126251810D01*
X196653827Y-126701641D01*
X196272823Y-127146838D01*
X195886635Y-127587342D01*
X195495256Y-128023161D01*
X195098733Y-128454248D01*
X194697217Y-128880448D01*
X194290494Y-129301989D01*
X193878911Y-129718511D01*
X193462348Y-130130134D01*
X193040891Y-130536775D01*
X192614690Y-130938295D01*
X192183515Y-131334897D01*
X191747742Y-131726235D01*
X191307238Y-132112423D01*
X190861992Y-132493468D01*
X190412252Y-132869150D01*
X189957965Y-133239500D01*
X189499148Y-133604503D01*
X189035818Y-133964132D01*
X188568174Y-134318221D01*
X188096095Y-134666854D01*
X187619739Y-135009898D01*
X187139044Y-135347385D01*
X186654277Y-135679115D01*
X186165203Y-136005231D01*
X185672107Y-136325528D01*
X185174901Y-136640050D01*
X184673685Y-136948714D01*
X184168458Y-137251501D01*
X183659308Y-137548339D01*
X183146273Y-137839188D01*
X182629491Y-138123948D01*
X182108842Y-138402666D01*
X181584496Y-138675226D01*
X181056418Y-138941624D01*
X180524672Y-139201806D01*
X179989422Y-139455664D01*
X179450530Y-139703240D01*
X178908257Y-139944388D01*
X178362447Y-140179152D01*
X177813280Y-140407426D01*
X177260716Y-140629199D01*
X176704880Y-140844393D01*
X176145769Y-141052981D01*
X175583431Y-141254911D01*
X175018018Y-141450103D01*
X174449431Y-141638557D01*
X173877744Y-141820219D01*
X173303028Y-141995028D01*
X172725405Y-142162920D01*
X172144794Y-142323880D01*
X171561310Y-142477845D01*
X170975035Y-142624754D01*
X170385903Y-142764590D01*
X169794051Y-142897284D01*
X169199591Y-143022772D01*
X168602394Y-143141047D01*
X168002675Y-143252023D01*
X167400359Y-143355682D01*
X166795544Y-143451959D01*
X166188288Y-143540810D01*
X165578630Y-143622186D01*
X164966493Y-143696053D01*
X164352149Y-143762338D01*
X163735540Y-143821006D01*
X163116699Y-143872009D01*
X162495597Y-143915303D01*
X161872501Y-143950827D01*
X161247229Y-143978542D01*
X160619885Y-143998404D01*
X159990659Y-144010356D01*
X159359421Y-144014350D01*
X158728183Y-144010356D01*
X158098959Y-143998404D01*
X157471609Y-143978542D01*
X156846341Y-143950827D01*
X156223248Y-143915303D01*
X155602147Y-143872009D01*
X154983310Y-143821006D01*
X154366699Y-143762338D01*
X153752365Y-143696054D01*
X153140220Y-143622186D01*
X152530585Y-143540813D01*
X151923365Y-143451968D01*
X151318510Y-143355684D01*
X150716183Y-143252023D01*
X150116453Y-143141044D01*
X149519289Y-143022776D01*
X148924817Y-142897284D01*
X148332948Y-142764586D01*
X147743894Y-142624769D01*
X147157510Y-142477831D01*
X146574121Y-142323890D01*
X145993520Y-142162933D01*
X145415891Y-141995038D01*
X144841169Y-141820226D01*
X144269487Y-141638565D01*
X143700858Y-141450096D01*
X143135450Y-141254904D01*
X142573113Y-141052973D01*
X142014033Y-140844395D01*
X141458174Y-140629190D01*
X140905614Y-140407416D01*
X140356507Y-140179166D01*
X139810645Y-139944376D01*
X139268406Y-139703242D01*
X138729556Y-139455683D01*
X138194307Y-139201824D01*
X137662562Y-138941642D01*
X137134491Y-138675245D01*
X136610184Y-138402704D01*
X136089508Y-138123969D01*
X135572634Y-137839156D01*
X135059644Y-137548329D01*
X134550515Y-137251498D01*
X134045339Y-136948738D01*
X133544130Y-136640077D01*
X133046876Y-136325521D01*
X132553800Y-136005234D01*
X132064773Y-135679144D01*
X131579899Y-135347338D01*
X131099301Y-135009914D01*
X130622946Y-134666868D01*
X130150884Y-134318245D01*
X129683144Y-133964076D01*
X129219950Y-133604548D01*
X128761087Y-133239505D01*
X128306758Y-132869114D01*
X127856989Y-132493404D01*
X127411860Y-132112454D01*
X126971342Y-131726246D01*
X126535567Y-131334903D01*
X126104439Y-130938340D01*
X125678163Y-130536744D01*
X125256751Y-130130140D01*
X124840197Y-129718519D01*
X124428576Y-129301953D01*
X124021945Y-128880501D01*
X123620348Y-128454208D01*
X123223875Y-128023169D01*
X122832500Y-127587348D01*
X122446281Y-127146803D01*
X122065293Y-126701617D01*
X121689627Y-126251885D01*
X121319218Y-125797521D01*
X120954239Y-125338727D01*
X120594631Y-124875415D01*
X120240557Y-124407783D01*
X119891918Y-123935689D01*
X119548874Y-123459325D01*
X119211454Y-122978714D01*
X118879660Y-122493847D01*
X118553576Y-122004812D01*
X118233259Y-121511678D01*
X117918754Y-121014488D01*
X117610087Y-120513257D01*
X117307327Y-120008068D01*
X117010495Y-119498918D01*
X116719655Y-118985889D01*
X116434874Y-118469060D01*
X116156167Y-117948421D01*
X115883575Y-117424005D01*
X115617233Y-116896029D01*
X115357055Y-116364279D01*
X115103203Y-115829031D01*
X114855632Y-115290140D01*
X114614490Y-114747865D01*
X114379713Y-114202016D01*
X114151459Y-113652888D01*
X113929690Y-113100324D01*
X113714517Y-112544533D01*
X113505910Y-111985358D01*
X113304015Y-111423107D01*
X113108787Y-110857579D01*
X112920352Y-110289040D01*
X112738692Y-109717346D01*
X112563895Y-109142665D01*
X112395997Y-108565001D01*
X112235045Y-107984416D01*
X112081072Y-107400882D01*
X111934165Y-106814604D01*
X111794363Y-106225602D01*
X111661670Y-105633748D01*
X111536154Y-105039150D01*
X111417904Y-104442058D01*
X111306910Y-103842240D01*
X111203267Y-103239990D01*
X111106985Y-102635137D01*
X111018139Y-102027894D01*
X110936757Y-101418174D01*
X110862896Y-100806077D01*
X110796623Y-100191838D01*
X110737954Y-99575214D01*
X110686943Y-98956247D01*
X110643658Y-98335264D01*
X110608129Y-97712035D01*
X110580415Y-97086817D01*
X110573970Y-96883202D01*
X113794000Y-96883202D01*
X113794000Y-105664000D01*
X113851852Y-105954839D01*
X114016599Y-106201401D01*
X120162705Y-112347507D01*
X120264999Y-112500601D01*
X143887400Y-136123002D01*
X143917612Y-136143189D01*
X143937799Y-136173401D01*
X149474999Y-141710601D01*
X149721560Y-141875348D01*
X150012400Y-141933200D01*
X170332400Y-141933200D01*
X170623239Y-141875348D01*
X170869801Y-141710601D01*
X204550201Y-108030201D01*
X204714948Y-107783640D01*
X204734720Y-107684238D01*
X204772800Y-107492800D01*
X204772800Y-88849200D01*
X204714948Y-88558361D01*
X204550201Y-88311799D01*
X203585001Y-87346599D01*
X203338439Y-87181852D01*
X203047600Y-87124000D01*
X200812400Y-87124000D01*
X200521561Y-87181852D01*
X200274999Y-87346599D01*
X199058200Y-88563398D01*
X198893453Y-88809960D01*
X198835601Y-89100799D01*
X198835601Y-92259900D01*
X198516454Y-92473147D01*
X198194547Y-92954916D01*
X198081508Y-93523201D01*
X198194547Y-94091486D01*
X198516454Y-94573255D01*
X198857154Y-94800903D01*
X198714243Y-94868018D01*
X198323956Y-95296277D01*
X198154125Y-95706311D01*
X198275446Y-95936201D01*
X199468601Y-95936201D01*
X199468601Y-95916201D01*
X199722601Y-95916201D01*
X199722601Y-95936201D01*
X199742601Y-95936201D01*
X199742601Y-96190201D01*
X199722601Y-96190201D01*
X199722601Y-97384020D01*
X199952493Y-97504687D01*
X200476959Y-97258384D01*
X200867246Y-96830125D01*
X200867256Y-96830100D01*
X201056454Y-97113255D01*
X201538223Y-97435162D01*
X202106508Y-97548201D01*
X202164694Y-97548201D01*
X202732979Y-97435162D01*
X203214748Y-97113255D01*
X203252800Y-97056306D01*
X203252800Y-107177998D01*
X170017598Y-140413200D01*
X150327202Y-140413200D01*
X148396493Y-138482491D01*
X157168125Y-138482491D01*
X157337956Y-138892525D01*
X157728243Y-139320784D01*
X158252709Y-139567087D01*
X158482601Y-139446420D01*
X158482601Y-138252601D01*
X157289446Y-138252601D01*
X157168125Y-138482491D01*
X148396493Y-138482491D01*
X146259603Y-136345601D01*
X157336647Y-136345601D01*
X157530454Y-136635655D01*
X157871154Y-136863303D01*
X157728243Y-136930418D01*
X157337956Y-137358677D01*
X157168125Y-137768711D01*
X157289446Y-137998601D01*
X158482601Y-137998601D01*
X158482601Y-137978601D01*
X158736601Y-137978601D01*
X158736601Y-137998601D01*
X158756601Y-137998601D01*
X158756601Y-138252601D01*
X158736601Y-138252601D01*
X158736601Y-139446420D01*
X158966493Y-139567087D01*
X159490959Y-139320784D01*
X159881246Y-138892525D01*
X159881256Y-138892500D01*
X160070454Y-139175655D01*
X160552223Y-139497562D01*
X161120508Y-139610601D01*
X161178694Y-139610601D01*
X161746979Y-139497562D01*
X162228748Y-139175655D01*
X162550655Y-138693886D01*
X162663694Y-138125601D01*
X162550655Y-137557316D01*
X162228748Y-137075547D01*
X161924441Y-136872216D01*
X161989687Y-136845257D01*
X162407789Y-136427884D01*
X162634343Y-135882282D01*
X162634858Y-135291512D01*
X162409257Y-134745515D01*
X161991884Y-134327413D01*
X161446282Y-134100859D01*
X160855512Y-134100344D01*
X160309515Y-134325945D01*
X159891413Y-134743318D01*
X159866946Y-134802240D01*
X159688748Y-134535547D01*
X159206979Y-134213640D01*
X158638694Y-134100601D01*
X158580508Y-134100601D01*
X158012223Y-134213640D01*
X157530454Y-134535547D01*
X157336647Y-134825601D01*
X144739603Y-134825601D01*
X131136523Y-121222521D01*
X133107164Y-121222521D01*
X133342481Y-121178243D01*
X133558605Y-121039171D01*
X133703595Y-120826971D01*
X133754604Y-120575081D01*
X133754604Y-119375081D01*
X135459724Y-119375081D01*
X135459724Y-120575081D01*
X135504002Y-120810398D01*
X135643074Y-121026522D01*
X135855274Y-121171512D01*
X136107164Y-121222521D01*
X138607164Y-121222521D01*
X138842481Y-121178243D01*
X139058605Y-121039171D01*
X139203595Y-120826971D01*
X139254604Y-120575081D01*
X139254604Y-119375081D01*
X139210326Y-119139764D01*
X139071254Y-118923640D01*
X138859054Y-118778650D01*
X138607164Y-118727641D01*
X136107164Y-118727641D01*
X135871847Y-118771919D01*
X135655723Y-118910991D01*
X135510733Y-119123191D01*
X135459724Y-119375081D01*
X133754604Y-119375081D01*
X133710326Y-119139764D01*
X133571254Y-118923640D01*
X133359054Y-118778650D01*
X133107164Y-118727641D01*
X130607164Y-118727641D01*
X130371847Y-118771919D01*
X130155723Y-118910991D01*
X130010733Y-119123191D01*
X129959724Y-119375081D01*
X129959724Y-120045722D01*
X126789083Y-116875081D01*
X129959724Y-116875081D01*
X129959724Y-118075081D01*
X130004002Y-118310398D01*
X130143074Y-118526522D01*
X130355274Y-118671512D01*
X130607164Y-118722521D01*
X133107164Y-118722521D01*
X133342481Y-118678243D01*
X133558605Y-118539171D01*
X133703595Y-118326971D01*
X133754604Y-118075081D01*
X133754604Y-116875081D01*
X135459724Y-116875081D01*
X135459724Y-118075081D01*
X135504002Y-118310398D01*
X135643074Y-118526522D01*
X135855274Y-118671512D01*
X136107164Y-118722521D01*
X138607164Y-118722521D01*
X138842481Y-118678243D01*
X139058605Y-118539171D01*
X139203595Y-118326971D01*
X139214883Y-118271229D01*
X143536761Y-118271229D01*
X143536761Y-119266229D01*
X143581039Y-119501546D01*
X143720111Y-119717670D01*
X143932311Y-119862660D01*
X144184201Y-119913669D01*
X146724201Y-119913669D01*
X146959518Y-119869391D01*
X147175642Y-119730319D01*
X147320632Y-119518119D01*
X147371641Y-119266229D01*
X147371641Y-115756229D01*
X147327363Y-115520912D01*
X147188291Y-115304788D01*
X146976091Y-115159798D01*
X146724201Y-115108789D01*
X144184201Y-115108789D01*
X143948884Y-115153067D01*
X143732760Y-115292139D01*
X143587770Y-115504339D01*
X143536761Y-115756229D01*
X143536761Y-116751229D01*
X139231300Y-116751229D01*
X139210326Y-116639764D01*
X139071254Y-116423640D01*
X138859054Y-116278650D01*
X138607164Y-116227641D01*
X136107164Y-116227641D01*
X135871847Y-116271919D01*
X135655723Y-116410991D01*
X135510733Y-116623191D01*
X135459724Y-116875081D01*
X133754604Y-116875081D01*
X133710326Y-116639764D01*
X133571254Y-116423640D01*
X133359054Y-116278650D01*
X133107164Y-116227641D01*
X130607164Y-116227641D01*
X130371847Y-116271919D01*
X130155723Y-116410991D01*
X130010733Y-116623191D01*
X129959724Y-116875081D01*
X126789083Y-116875081D01*
X124289083Y-114375081D01*
X129959724Y-114375081D01*
X129959724Y-115575081D01*
X130004002Y-115810398D01*
X130143074Y-116026522D01*
X130355274Y-116171512D01*
X130607164Y-116222521D01*
X133107164Y-116222521D01*
X133342481Y-116178243D01*
X133558605Y-116039171D01*
X133703595Y-115826971D01*
X133754604Y-115575081D01*
X133754604Y-114375081D01*
X133710326Y-114139764D01*
X133571254Y-113923640D01*
X133359054Y-113778650D01*
X133107164Y-113727641D01*
X130607164Y-113727641D01*
X130371847Y-113771919D01*
X130155723Y-113910991D01*
X130010733Y-114123191D01*
X129959724Y-114375081D01*
X124289083Y-114375081D01*
X122586402Y-112672400D01*
X132781198Y-112672400D01*
X135459724Y-115350926D01*
X135459724Y-115575081D01*
X135504002Y-115810398D01*
X135643074Y-116026522D01*
X135855274Y-116171512D01*
X136107164Y-116222521D01*
X138607164Y-116222521D01*
X138842481Y-116178243D01*
X139058605Y-116039171D01*
X139203595Y-115826971D01*
X139228214Y-115705401D01*
X141718364Y-115705401D01*
X142053201Y-115844438D01*
X142425167Y-115844762D01*
X142768943Y-115702717D01*
X143032192Y-115439927D01*
X143174838Y-115096399D01*
X143175162Y-114724433D01*
X143033117Y-114380657D01*
X142770327Y-114117408D01*
X142426799Y-113974762D01*
X142054833Y-113974438D01*
X141711057Y-114116483D01*
X141642019Y-114185401D01*
X139218913Y-114185401D01*
X139210326Y-114139764D01*
X139071254Y-113923640D01*
X138859054Y-113778650D01*
X138607164Y-113727641D01*
X136107164Y-113727641D01*
X136005224Y-113746822D01*
X134067202Y-111808800D01*
X145684398Y-111808800D01*
X147626800Y-113751202D01*
X147626800Y-119573198D01*
X142915200Y-124284798D01*
X142750453Y-124531360D01*
X142692601Y-124822199D01*
X142692601Y-127436360D01*
X142452601Y-127436360D01*
X142217284Y-127480638D01*
X142001160Y-127619710D01*
X141856170Y-127831910D01*
X141805161Y-128083800D01*
X141805161Y-129783800D01*
X141849439Y-130019117D01*
X141988511Y-130235241D01*
X142200711Y-130380231D01*
X142452601Y-130431240D01*
X142692601Y-130431240D01*
X142692601Y-131921001D01*
X142750453Y-132211840D01*
X142915200Y-132458402D01*
X143429799Y-132973001D01*
X143676361Y-133137748D01*
X143967200Y-133195600D01*
X154838400Y-133195600D01*
X155129239Y-133137748D01*
X155375801Y-132973001D01*
X158655002Y-129693800D01*
X169776761Y-129693800D01*
X169776761Y-129783800D01*
X169821039Y-130019117D01*
X169960111Y-130235241D01*
X170172311Y-130380231D01*
X170424201Y-130431240D01*
X172424201Y-130431240D01*
X172659518Y-130386962D01*
X172875642Y-130247890D01*
X172890735Y-130225800D01*
X173954036Y-130225800D01*
X173960111Y-130235241D01*
X174172311Y-130380231D01*
X174424201Y-130431240D01*
X176424201Y-130431240D01*
X176659518Y-130386962D01*
X176875642Y-130247890D01*
X177020632Y-130035690D01*
X177071641Y-129783800D01*
X177071641Y-128083800D01*
X177027363Y-127848483D01*
X176888291Y-127632359D01*
X176676091Y-127487369D01*
X176424201Y-127436360D01*
X176184201Y-127436360D01*
X176184201Y-124116201D01*
X176148957Y-123939020D01*
X176126349Y-123825361D01*
X175961602Y-123578800D01*
X170179781Y-117796979D01*
X172909201Y-117796979D01*
X172909201Y-119392539D01*
X173005874Y-119625928D01*
X173184503Y-119804556D01*
X173417892Y-119901229D01*
X174528451Y-119901229D01*
X174687201Y-119742479D01*
X174687201Y-117638229D01*
X174941201Y-117638229D01*
X174941201Y-119742479D01*
X175099951Y-119901229D01*
X176210510Y-119901229D01*
X176443899Y-119804556D01*
X176622528Y-119625928D01*
X176719201Y-119392539D01*
X176719201Y-117796979D01*
X176560451Y-117638229D01*
X174941201Y-117638229D01*
X174687201Y-117638229D01*
X173067951Y-117638229D01*
X172909201Y-117796979D01*
X170179781Y-117796979D01*
X168012721Y-115629919D01*
X172909201Y-115629919D01*
X172909201Y-117225479D01*
X173067951Y-117384229D01*
X174687201Y-117384229D01*
X174687201Y-115279979D01*
X174941201Y-115279979D01*
X174941201Y-117384229D01*
X176560451Y-117384229D01*
X176719201Y-117225479D01*
X176719201Y-115629919D01*
X176622528Y-115396530D01*
X176443899Y-115217902D01*
X176210510Y-115121229D01*
X175099951Y-115121229D01*
X174941201Y-115279979D01*
X174687201Y-115279979D01*
X174528451Y-115121229D01*
X173417892Y-115121229D01*
X173184503Y-115217902D01*
X173005874Y-115396530D01*
X172909201Y-115629919D01*
X168012721Y-115629919D01*
X162740153Y-110357351D01*
X173509800Y-110357351D01*
X173509800Y-110947910D01*
X173606473Y-111181299D01*
X173785101Y-111359928D01*
X174018490Y-111456601D01*
X174509050Y-111456601D01*
X174667800Y-111297851D01*
X174667800Y-110198601D01*
X174921800Y-110198601D01*
X174921800Y-111297851D01*
X175080550Y-111456601D01*
X175571110Y-111456601D01*
X175804499Y-111359928D01*
X175983127Y-111181299D01*
X176079800Y-110947910D01*
X176079800Y-110357351D01*
X175921050Y-110198601D01*
X174921800Y-110198601D01*
X174667800Y-110198601D01*
X173668550Y-110198601D01*
X173509800Y-110357351D01*
X162740153Y-110357351D01*
X155344400Y-102961598D01*
X155344400Y-99578002D01*
X155936042Y-98986360D01*
X155931741Y-99007599D01*
X155931741Y-99566399D01*
X155976019Y-99801716D01*
X156115091Y-100017840D01*
X156327291Y-100162830D01*
X156579181Y-100213839D01*
X156911381Y-100213839D01*
X156911381Y-101892981D01*
X156969233Y-102183820D01*
X157133980Y-102430382D01*
X159533399Y-104829801D01*
X159779961Y-104994548D01*
X160070800Y-105052400D01*
X174233998Y-105052400D01*
X175155759Y-105974161D01*
X174144800Y-105974161D01*
X173909483Y-106018439D01*
X173693359Y-106157511D01*
X173548369Y-106369711D01*
X173497360Y-106621601D01*
X173497360Y-108121601D01*
X173541638Y-108356918D01*
X173680710Y-108573042D01*
X173892910Y-108718032D01*
X173926290Y-108724792D01*
X173785101Y-108783274D01*
X173606473Y-108961903D01*
X173509800Y-109195292D01*
X173509800Y-109785851D01*
X173668550Y-109944601D01*
X174667800Y-109944601D01*
X174667800Y-109924601D01*
X174921800Y-109924601D01*
X174921800Y-109944601D01*
X175921050Y-109944601D01*
X176079800Y-109785851D01*
X176079800Y-109195292D01*
X175983127Y-108961903D01*
X175804499Y-108783274D01*
X175668513Y-108726947D01*
X175680117Y-108724763D01*
X175896241Y-108585691D01*
X175975252Y-108470054D01*
X176712478Y-109207280D01*
X176712438Y-109252767D01*
X176854483Y-109596543D01*
X177117273Y-109859792D01*
X177460801Y-110002438D01*
X177832767Y-110002762D01*
X178176543Y-109860717D01*
X178439792Y-109597927D01*
X178539471Y-109357873D01*
X178856399Y-109674801D01*
X179102961Y-109839548D01*
X179393800Y-109897400D01*
X189448359Y-109897400D01*
X189448359Y-109987400D01*
X189492637Y-110222717D01*
X189631709Y-110438841D01*
X189843909Y-110583831D01*
X190095799Y-110634840D01*
X192095799Y-110634840D01*
X192331116Y-110590562D01*
X192447921Y-110515400D01*
X193743757Y-110515400D01*
X193843909Y-110583831D01*
X194095799Y-110634840D01*
X196095799Y-110634840D01*
X196331116Y-110590562D01*
X196547240Y-110451490D01*
X196692230Y-110239290D01*
X196743239Y-109987400D01*
X196743239Y-108287400D01*
X196698961Y-108052083D01*
X196559889Y-107835959D01*
X196347689Y-107690969D01*
X196095799Y-107639960D01*
X195855799Y-107639960D01*
X195855799Y-97621000D01*
X195797947Y-97330161D01*
X195633200Y-97083599D01*
X194969692Y-96420091D01*
X198154125Y-96420091D01*
X198323956Y-96830125D01*
X198714243Y-97258384D01*
X199238709Y-97504687D01*
X199468601Y-97384020D01*
X199468601Y-96190201D01*
X198275446Y-96190201D01*
X198154125Y-96420091D01*
X194969692Y-96420091D01*
X194406439Y-95856838D01*
X194406439Y-94884200D01*
X194362161Y-94648883D01*
X194223089Y-94432759D01*
X194010889Y-94287769D01*
X193768999Y-94238785D01*
X193768999Y-88229803D01*
X195692200Y-86306602D01*
X195856947Y-86060041D01*
X195876575Y-85961363D01*
X195914799Y-85769201D01*
X195914799Y-82664640D01*
X196154799Y-82664640D01*
X196390116Y-82620362D01*
X196606240Y-82481290D01*
X196751230Y-82269090D01*
X196802239Y-82017200D01*
X196802239Y-80317200D01*
X196757961Y-80081883D01*
X196618889Y-79865759D01*
X196406689Y-79720769D01*
X196154799Y-79669760D01*
X195914799Y-79669760D01*
X195914799Y-77857599D01*
X195856947Y-77566760D01*
X195692200Y-77320198D01*
X179257201Y-60885199D01*
X179010639Y-60720452D01*
X178719800Y-60662600D01*
X176923639Y-60662600D01*
X176923639Y-60572600D01*
X176879361Y-60337283D01*
X176740289Y-60121159D01*
X176528089Y-59976169D01*
X176276199Y-59925160D01*
X176036199Y-59925160D01*
X176036199Y-58791799D01*
X175982092Y-58519788D01*
X175978347Y-58500959D01*
X175813600Y-58254398D01*
X174375001Y-56815799D01*
X174128439Y-56651052D01*
X173837600Y-56593200D01*
X147510401Y-56593200D01*
X147219561Y-56651052D01*
X146973000Y-56815799D01*
X143764039Y-60024760D01*
X142341401Y-60024760D01*
X142106084Y-60069038D01*
X141889960Y-60208110D01*
X141744970Y-60420310D01*
X141693961Y-60672200D01*
X141693961Y-60762200D01*
X139239400Y-60762200D01*
X138948561Y-60820052D01*
X138701999Y-60984799D01*
X123076400Y-76610398D01*
X122911653Y-76856960D01*
X122853801Y-77147799D01*
X122853801Y-79712760D01*
X122613801Y-79712760D01*
X122378484Y-79757038D01*
X122162360Y-79896110D01*
X122017370Y-80108310D01*
X121966361Y-80360200D01*
X121966361Y-82060200D01*
X122010639Y-82295517D01*
X122149711Y-82511641D01*
X122361911Y-82656631D01*
X122613801Y-82707640D01*
X122880601Y-82707640D01*
X122880601Y-107615560D01*
X122640601Y-107615560D01*
X122405284Y-107659838D01*
X122189160Y-107798910D01*
X122044170Y-108011110D01*
X121993161Y-108263000D01*
X121993161Y-109963000D01*
X122037439Y-110198317D01*
X122176511Y-110414441D01*
X122388711Y-110559431D01*
X122640601Y-110610440D01*
X122880601Y-110610440D01*
X122880601Y-110702363D01*
X122843452Y-110757961D01*
X122785600Y-111048800D01*
X122806208Y-111152400D01*
X121117202Y-111152400D01*
X115314000Y-105349198D01*
X115314000Y-97198004D01*
X116124201Y-96387803D01*
X116124201Y-96495003D01*
X116289045Y-96495003D01*
X116167725Y-96724891D01*
X116337556Y-97134925D01*
X116727843Y-97563184D01*
X117252309Y-97809487D01*
X117482201Y-97688820D01*
X117482201Y-96495001D01*
X117462201Y-96495001D01*
X117462201Y-96241001D01*
X117482201Y-96241001D01*
X117482201Y-96221001D01*
X117736201Y-96221001D01*
X117736201Y-96241001D01*
X117756201Y-96241001D01*
X117756201Y-96495001D01*
X117736201Y-96495001D01*
X117736201Y-97688820D01*
X117966093Y-97809487D01*
X118490559Y-97563184D01*
X118880846Y-97134925D01*
X118880856Y-97134900D01*
X119070054Y-97418055D01*
X119551823Y-97739962D01*
X120120108Y-97853001D01*
X120178294Y-97853001D01*
X120746579Y-97739962D01*
X121228348Y-97418055D01*
X121550255Y-96936286D01*
X121663294Y-96368001D01*
X121550255Y-95799716D01*
X121228348Y-95317947D01*
X120924041Y-95114616D01*
X120989287Y-95087657D01*
X121407389Y-94670284D01*
X121633943Y-94124682D01*
X121634458Y-93533912D01*
X121408857Y-92987915D01*
X120991484Y-92569813D01*
X120445882Y-92343259D01*
X119855112Y-92342744D01*
X119309115Y-92568345D01*
X118891013Y-92985718D01*
X118866546Y-93044640D01*
X118688348Y-92777947D01*
X118206579Y-92456040D01*
X117638294Y-92343001D01*
X117580108Y-92343001D01*
X117011823Y-92456040D01*
X116530054Y-92777947D01*
X116208147Y-93259716D01*
X116095108Y-93828001D01*
X116167991Y-94194409D01*
X114016599Y-96345801D01*
X113851852Y-96592363D01*
X113794000Y-96883202D01*
X110573970Y-96883202D01*
X110560558Y-96459569D01*
X110548607Y-95830189D01*
X110544613Y-95199021D01*
X110548607Y-94567854D01*
X110560558Y-93938475D01*
X110580415Y-93311225D01*
X110608129Y-92686007D01*
X110643658Y-92062777D01*
X110686943Y-91441804D01*
X110737947Y-90822912D01*
X110796623Y-90206210D01*
X110862895Y-89591980D01*
X110936757Y-88979876D01*
X111018138Y-88370168D01*
X111106987Y-87762907D01*
X111203265Y-87158078D01*
X111306908Y-86555833D01*
X111417904Y-85956004D01*
X111536154Y-85358915D01*
X111661670Y-84764318D01*
X111794345Y-84172542D01*
X111934169Y-83583450D01*
X112081072Y-82997194D01*
X112235035Y-82413699D01*
X112395984Y-81833124D01*
X112563902Y-81255402D01*
X112738692Y-80680745D01*
X112920343Y-80109078D01*
X113108794Y-79540497D01*
X113304021Y-78974974D01*
X113505918Y-78412724D01*
X113714488Y-77853651D01*
X113929716Y-77297723D01*
X114151441Y-76745276D01*
X114379728Y-76196069D01*
X114614488Y-75650266D01*
X114855630Y-75107998D01*
X115103216Y-74569080D01*
X115357053Y-74033866D01*
X115617215Y-73502153D01*
X115883590Y-72974117D01*
X116156147Y-72449771D01*
X116434855Y-71929134D01*
X116719668Y-71412253D01*
X117010470Y-70899296D01*
X117307330Y-70390104D01*
X117610083Y-69884930D01*
X117918727Y-69383743D01*
X118233304Y-68886446D01*
X118553585Y-68393374D01*
X118879669Y-67904346D01*
X119211434Y-67419523D01*
X119548858Y-66938915D01*
X119891915Y-66462538D01*
X120240532Y-65990476D01*
X120594656Y-65522786D01*
X120954233Y-65059520D01*
X121319253Y-64600681D01*
X121689587Y-64146415D01*
X122065317Y-63696613D01*
X122446251Y-63251494D01*
X122832525Y-62810894D01*
X123223865Y-62375118D01*
X123620344Y-61944076D01*
X124021976Y-61517754D01*
X124428572Y-61096345D01*
X124840190Y-60679790D01*
X125256745Y-60268172D01*
X125678196Y-59861536D01*
X126104432Y-59459985D01*
X126535518Y-59063465D01*
X126971294Y-58672125D01*
X127411894Y-58285851D01*
X127857013Y-57904917D01*
X128306815Y-57529187D01*
X128761131Y-57158814D01*
X129219960Y-56793802D01*
X129683239Y-56434216D01*
X130150876Y-56080132D01*
X130622938Y-55731515D01*
X131099315Y-55388458D01*
X131579923Y-55051034D01*
X132064746Y-54719269D01*
X132553811Y-54393160D01*
X133046905Y-54072867D01*
X133544143Y-53758327D01*
X134045306Y-53449698D01*
X134550505Y-53146930D01*
X135059634Y-52850105D01*
X135572653Y-52559268D01*
X136089504Y-52274471D01*
X136610138Y-51995765D01*
X137134517Y-51723190D01*
X137471131Y-51553380D01*
X156383541Y-51553380D01*
X156871052Y-52733246D01*
X157772968Y-53636738D01*
X158951981Y-54126307D01*
X160228598Y-54127421D01*
X161408464Y-53639910D01*
X162311956Y-52737994D01*
X162801525Y-51558981D01*
X162802639Y-50282364D01*
X162315128Y-49102498D01*
X161413212Y-48199006D01*
X160234199Y-47709437D01*
X158957582Y-47708323D01*
X157777716Y-48195834D01*
X156874224Y-49097750D01*
X156384655Y-50276763D01*
X156383541Y-51553380D01*
X137471131Y-51553380D01*
X137662553Y-51456815D01*
X138194266Y-51196653D01*
X138729480Y-50942816D01*
X139268367Y-50695244D01*
X139810636Y-50454101D01*
X140356469Y-50219328D01*
X140905705Y-49991029D01*
X141458124Y-49769316D01*
X142013981Y-49554115D01*
X142573124Y-49345518D01*
X143135445Y-49143595D01*
X143700896Y-48948394D01*
X144269551Y-48759920D01*
X144841167Y-48578285D01*
X145415802Y-48403502D01*
X145993524Y-48235584D01*
X146574065Y-48074645D01*
X147157594Y-47920672D01*
X147743869Y-47773764D01*
X148332960Y-47633941D01*
X148924702Y-47501274D01*
X149519315Y-47375754D01*
X150116404Y-47257504D01*
X150716219Y-47146510D01*
X151318478Y-47042865D01*
X151923319Y-46946585D01*
X152530558Y-46857739D01*
X153140198Y-46776367D01*
X153752381Y-46702495D01*
X154366680Y-46636215D01*
X154983241Y-46577554D01*
X155602198Y-46526543D01*
X156223177Y-46483258D01*
X156846407Y-46447729D01*
X157471619Y-46420015D01*
X158098875Y-46400158D01*
X158728254Y-46388207D01*
X159359421Y-46384213D01*
X159990589Y-46388207D01*
X159990589Y-46388207D01*
G37*
X159990589Y-46388207D02*
X160619969Y-46400158D01*
X161247217Y-46420015D01*
X161872435Y-46447729D01*
X162495664Y-46483258D01*
X163116647Y-46526543D01*
X163735614Y-46577554D01*
X164352238Y-46636223D01*
X164966477Y-46702496D01*
X165578574Y-46776357D01*
X166188294Y-46857739D01*
X166795537Y-46946585D01*
X167400390Y-47042867D01*
X168002640Y-47146510D01*
X168602458Y-47257504D01*
X169199550Y-47375754D01*
X169794148Y-47501270D01*
X170386002Y-47633963D01*
X170975004Y-47773765D01*
X171561282Y-47920672D01*
X172144816Y-48074645D01*
X172725401Y-48235597D01*
X173303065Y-48403495D01*
X173877746Y-48578292D01*
X174449440Y-48759952D01*
X175017979Y-48948387D01*
X175583507Y-49143615D01*
X176145758Y-49345510D01*
X176704933Y-49554117D01*
X177260724Y-49769290D01*
X177813288Y-49991059D01*
X178362416Y-50219313D01*
X178908265Y-50454090D01*
X179450540Y-50695232D01*
X179989431Y-50942803D01*
X180524679Y-51196655D01*
X181056429Y-51456833D01*
X181584405Y-51723175D01*
X182108821Y-51995767D01*
X182629460Y-52274474D01*
X183146289Y-52559255D01*
X183659318Y-52850095D01*
X184168468Y-53146927D01*
X184673657Y-53449687D01*
X185174888Y-53758354D01*
X185672078Y-54072859D01*
X186165212Y-54393176D01*
X186654247Y-54719260D01*
X187139114Y-55051054D01*
X187619725Y-55388474D01*
X188096089Y-55731518D01*
X188568183Y-56080157D01*
X189035815Y-56434231D01*
X189499127Y-56793839D01*
X189957921Y-57158818D01*
X190412285Y-57529227D01*
X190862017Y-57904893D01*
X191307203Y-58285881D01*
X191747748Y-58672100D01*
X192183569Y-59063475D01*
X192614608Y-59459948D01*
X193040901Y-59861545D01*
X193462353Y-60268176D01*
X193878919Y-60679797D01*
X194290540Y-61096351D01*
X194697144Y-61517763D01*
X195098740Y-61944039D01*
X195495303Y-62375167D01*
X195886646Y-62810942D01*
X196272854Y-63251460D01*
X196653804Y-63696589D01*
X197029514Y-64146358D01*
X197399905Y-64600687D01*
X197764948Y-65059550D01*
X198124476Y-65522744D01*
X198478645Y-65990484D01*
X198827268Y-66462546D01*
X199170314Y-66938901D01*
X199507738Y-67419499D01*
X199839544Y-67904373D01*
X200165634Y-68393400D01*
X200485921Y-68886476D01*
X200800477Y-69383730D01*
X201109138Y-69884939D01*
X201411898Y-70390115D01*
X201708729Y-70899244D01*
X201999556Y-71412234D01*
X202284369Y-71929108D01*
X202563104Y-72449784D01*
X202835645Y-72974091D01*
X203102042Y-73502162D01*
X203362224Y-74033907D01*
X203616083Y-74569156D01*
X203863642Y-75108006D01*
X204104776Y-75650245D01*
X204339566Y-76196107D01*
X204567816Y-76745214D01*
X204789590Y-77297774D01*
X205004795Y-77853633D01*
X205213373Y-78412713D01*
X205415304Y-78975050D01*
X205610496Y-79540458D01*
X205798965Y-80109087D01*
X205980626Y-80680769D01*
X206155438Y-81255491D01*
X206323333Y-81833120D01*
X206484290Y-82413721D01*
X206638231Y-82997110D01*
X206785169Y-83583494D01*
X206924986Y-84172548D01*
X207057684Y-84764417D01*
X207183176Y-85358889D01*
X207301444Y-85956053D01*
X207412423Y-86555783D01*
X207516084Y-87158110D01*
X207612368Y-87762965D01*
X207701213Y-88370185D01*
X207782586Y-88979820D01*
X207856454Y-89591965D01*
X207922738Y-90206299D01*
X207981406Y-90822910D01*
X208032409Y-91441747D01*
X208075703Y-92062848D01*
X208111227Y-92685941D01*
X208138942Y-93311209D01*
X208158804Y-93938559D01*
X208170756Y-94567783D01*
X208174750Y-95199021D01*
X208170757Y-95830207D01*
X208158804Y-96459485D01*
X208138942Y-97086833D01*
X208111227Y-97712101D01*
X208075703Y-98335197D01*
X208032409Y-98956299D01*
X207981406Y-99575139D01*
X207922738Y-100191749D01*
X207856453Y-100806093D01*
X207782587Y-101418221D01*
X207701211Y-102027877D01*
X207612369Y-102635079D01*
X207516082Y-103239959D01*
X207412425Y-103842262D01*
X207301441Y-104442023D01*
X207183156Y-105039267D01*
X207057684Y-105633651D01*
X206924982Y-106225538D01*
X206785154Y-106814635D01*
X206638231Y-107400965D01*
X206484280Y-107984394D01*
X206323326Y-108564984D01*
X206155428Y-109142628D01*
X205980619Y-109717344D01*
X205798957Y-110289031D01*
X205610528Y-110857546D01*
X205415294Y-111423078D01*
X205213381Y-111985369D01*
X205004783Y-112544506D01*
X204789599Y-113100316D01*
X204567826Y-113652880D01*
X204339523Y-114202116D01*
X204104775Y-114747885D01*
X203863640Y-115290130D01*
X203616064Y-115829021D01*
X203362191Y-116364303D01*
X203102024Y-116896019D01*
X202835660Y-117424031D01*
X202563083Y-117948409D01*
X202284385Y-118469022D01*
X201999588Y-118985874D01*
X201708725Y-119498933D01*
X201411915Y-120008034D01*
X201109136Y-120513248D01*
X200800487Y-121014442D01*
X200485952Y-121511669D01*
X200165655Y-122004765D01*
X199839514Y-122493877D01*
X199507785Y-122978644D01*
X199170298Y-123459339D01*
X198827254Y-123935696D01*
X198478661Y-124407721D01*
X198124501Y-124875458D01*
X197764903Y-125338748D01*
X197399900Y-125797565D01*
X197029584Y-126251810D01*
X196653827Y-126701641D01*
X196272823Y-127146838D01*
X195886635Y-127587342D01*
X195495256Y-128023161D01*
X195098733Y-128454248D01*
X194697217Y-128880448D01*
X194290494Y-129301989D01*
X193878911Y-129718511D01*
X193462348Y-130130134D01*
X193040891Y-130536775D01*
X192614690Y-130938295D01*
X192183515Y-131334897D01*
X191747742Y-131726235D01*
X191307238Y-132112423D01*
X190861992Y-132493468D01*
X190412252Y-132869150D01*
X189957965Y-133239500D01*
X189499148Y-133604503D01*
X189035818Y-133964132D01*
X188568174Y-134318221D01*
X188096095Y-134666854D01*
X187619739Y-135009898D01*
X187139044Y-135347385D01*
X186654277Y-135679115D01*
X186165203Y-136005231D01*
X185672107Y-136325528D01*
X185174901Y-136640050D01*
X184673685Y-136948714D01*
X184168458Y-137251501D01*
X183659308Y-137548339D01*
X183146273Y-137839188D01*
X182629491Y-138123948D01*
X182108842Y-138402666D01*
X181584496Y-138675226D01*
X181056418Y-138941624D01*
X180524672Y-139201806D01*
X179989422Y-139455664D01*
X179450530Y-139703240D01*
X178908257Y-139944388D01*
X178362447Y-140179152D01*
X177813280Y-140407426D01*
X177260716Y-140629199D01*
X176704880Y-140844393D01*
X176145769Y-141052981D01*
X175583431Y-141254911D01*
X175018018Y-141450103D01*
X174449431Y-141638557D01*
X173877744Y-141820219D01*
X173303028Y-141995028D01*
X172725405Y-142162920D01*
X172144794Y-142323880D01*
X171561310Y-142477845D01*
X170975035Y-142624754D01*
X170385903Y-142764590D01*
X169794051Y-142897284D01*
X169199591Y-143022772D01*
X168602394Y-143141047D01*
X168002675Y-143252023D01*
X167400359Y-143355682D01*
X166795544Y-143451959D01*
X166188288Y-143540810D01*
X165578630Y-143622186D01*
X164966493Y-143696053D01*
X164352149Y-143762338D01*
X163735540Y-143821006D01*
X163116699Y-143872009D01*
X162495597Y-143915303D01*
X161872501Y-143950827D01*
X161247229Y-143978542D01*
X160619885Y-143998404D01*
X159990659Y-144010356D01*
X159359421Y-144014350D01*
X158728183Y-144010356D01*
X158098959Y-143998404D01*
X157471609Y-143978542D01*
X156846341Y-143950827D01*
X156223248Y-143915303D01*
X155602147Y-143872009D01*
X154983310Y-143821006D01*
X154366699Y-143762338D01*
X153752365Y-143696054D01*
X153140220Y-143622186D01*
X152530585Y-143540813D01*
X151923365Y-143451968D01*
X151318510Y-143355684D01*
X150716183Y-143252023D01*
X150116453Y-143141044D01*
X149519289Y-143022776D01*
X148924817Y-142897284D01*
X148332948Y-142764586D01*
X147743894Y-142624769D01*
X147157510Y-142477831D01*
X146574121Y-142323890D01*
X145993520Y-142162933D01*
X145415891Y-141995038D01*
X144841169Y-141820226D01*
X144269487Y-141638565D01*
X143700858Y-141450096D01*
X143135450Y-141254904D01*
X142573113Y-141052973D01*
X142014033Y-140844395D01*
X141458174Y-140629190D01*
X140905614Y-140407416D01*
X140356507Y-140179166D01*
X139810645Y-139944376D01*
X139268406Y-139703242D01*
X138729556Y-139455683D01*
X138194307Y-139201824D01*
X137662562Y-138941642D01*
X137134491Y-138675245D01*
X136610184Y-138402704D01*
X136089508Y-138123969D01*
X135572634Y-137839156D01*
X135059644Y-137548329D01*
X134550515Y-137251498D01*
X134045339Y-136948738D01*
X133544130Y-136640077D01*
X133046876Y-136325521D01*
X132553800Y-136005234D01*
X132064773Y-135679144D01*
X131579899Y-135347338D01*
X131099301Y-135009914D01*
X130622946Y-134666868D01*
X130150884Y-134318245D01*
X129683144Y-133964076D01*
X129219950Y-133604548D01*
X128761087Y-133239505D01*
X128306758Y-132869114D01*
X127856989Y-132493404D01*
X127411860Y-132112454D01*
X126971342Y-131726246D01*
X126535567Y-131334903D01*
X126104439Y-130938340D01*
X125678163Y-130536744D01*
X125256751Y-130130140D01*
X124840197Y-129718519D01*
X124428576Y-129301953D01*
X124021945Y-128880501D01*
X123620348Y-128454208D01*
X123223875Y-128023169D01*
X122832500Y-127587348D01*
X122446281Y-127146803D01*
X122065293Y-126701617D01*
X121689627Y-126251885D01*
X121319218Y-125797521D01*
X120954239Y-125338727D01*
X120594631Y-124875415D01*
X120240557Y-124407783D01*
X119891918Y-123935689D01*
X119548874Y-123459325D01*
X119211454Y-122978714D01*
X118879660Y-122493847D01*
X118553576Y-122004812D01*
X118233259Y-121511678D01*
X117918754Y-121014488D01*
X117610087Y-120513257D01*
X117307327Y-120008068D01*
X117010495Y-119498918D01*
X116719655Y-118985889D01*
X116434874Y-118469060D01*
X116156167Y-117948421D01*
X115883575Y-117424005D01*
X115617233Y-116896029D01*
X115357055Y-116364279D01*
X115103203Y-115829031D01*
X114855632Y-115290140D01*
X114614490Y-114747865D01*
X114379713Y-114202016D01*
X114151459Y-113652888D01*
X113929690Y-113100324D01*
X113714517Y-112544533D01*
X113505910Y-111985358D01*
X113304015Y-111423107D01*
X113108787Y-110857579D01*
X112920352Y-110289040D01*
X112738692Y-109717346D01*
X112563895Y-109142665D01*
X112395997Y-108565001D01*
X112235045Y-107984416D01*
X112081072Y-107400882D01*
X111934165Y-106814604D01*
X111794363Y-106225602D01*
X111661670Y-105633748D01*
X111536154Y-105039150D01*
X111417904Y-104442058D01*
X111306910Y-103842240D01*
X111203267Y-103239990D01*
X111106985Y-102635137D01*
X111018139Y-102027894D01*
X110936757Y-101418174D01*
X110862896Y-100806077D01*
X110796623Y-100191838D01*
X110737954Y-99575214D01*
X110686943Y-98956247D01*
X110643658Y-98335264D01*
X110608129Y-97712035D01*
X110580415Y-97086817D01*
X110573970Y-96883202D01*
X113794000Y-96883202D01*
X113794000Y-105664000D01*
X113851852Y-105954839D01*
X114016599Y-106201401D01*
X120162705Y-112347507D01*
X120264999Y-112500601D01*
X143887400Y-136123002D01*
X143917612Y-136143189D01*
X143937799Y-136173401D01*
X149474999Y-141710601D01*
X149721560Y-141875348D01*
X150012400Y-141933200D01*
X170332400Y-141933200D01*
X170623239Y-141875348D01*
X170869801Y-141710601D01*
X204550201Y-108030201D01*
X204714948Y-107783640D01*
X204734720Y-107684238D01*
X204772800Y-107492800D01*
X204772800Y-88849200D01*
X204714948Y-88558361D01*
X204550201Y-88311799D01*
X203585001Y-87346599D01*
X203338439Y-87181852D01*
X203047600Y-87124000D01*
X200812400Y-87124000D01*
X200521561Y-87181852D01*
X200274999Y-87346599D01*
X199058200Y-88563398D01*
X198893453Y-88809960D01*
X198835601Y-89100799D01*
X198835601Y-92259900D01*
X198516454Y-92473147D01*
X198194547Y-92954916D01*
X198081508Y-93523201D01*
X198194547Y-94091486D01*
X198516454Y-94573255D01*
X198857154Y-94800903D01*
X198714243Y-94868018D01*
X198323956Y-95296277D01*
X198154125Y-95706311D01*
X198275446Y-95936201D01*
X199468601Y-95936201D01*
X199468601Y-95916201D01*
X199722601Y-95916201D01*
X199722601Y-95936201D01*
X199742601Y-95936201D01*
X199742601Y-96190201D01*
X199722601Y-96190201D01*
X199722601Y-97384020D01*
X199952493Y-97504687D01*
X200476959Y-97258384D01*
X200867246Y-96830125D01*
X200867256Y-96830100D01*
X201056454Y-97113255D01*
X201538223Y-97435162D01*
X202106508Y-97548201D01*
X202164694Y-97548201D01*
X202732979Y-97435162D01*
X203214748Y-97113255D01*
X203252800Y-97056306D01*
X203252800Y-107177998D01*
X170017598Y-140413200D01*
X150327202Y-140413200D01*
X148396493Y-138482491D01*
X157168125Y-138482491D01*
X157337956Y-138892525D01*
X157728243Y-139320784D01*
X158252709Y-139567087D01*
X158482601Y-139446420D01*
X158482601Y-138252601D01*
X157289446Y-138252601D01*
X157168125Y-138482491D01*
X148396493Y-138482491D01*
X146259603Y-136345601D01*
X157336647Y-136345601D01*
X157530454Y-136635655D01*
X157871154Y-136863303D01*
X157728243Y-136930418D01*
X157337956Y-137358677D01*
X157168125Y-137768711D01*
X157289446Y-137998601D01*
X158482601Y-137998601D01*
X158482601Y-137978601D01*
X158736601Y-137978601D01*
X158736601Y-137998601D01*
X158756601Y-137998601D01*
X158756601Y-138252601D01*
X158736601Y-138252601D01*
X158736601Y-139446420D01*
X158966493Y-139567087D01*
X159490959Y-139320784D01*
X159881246Y-138892525D01*
X159881256Y-138892500D01*
X160070454Y-139175655D01*
X160552223Y-139497562D01*
X161120508Y-139610601D01*
X161178694Y-139610601D01*
X161746979Y-139497562D01*
X162228748Y-139175655D01*
X162550655Y-138693886D01*
X162663694Y-138125601D01*
X162550655Y-137557316D01*
X162228748Y-137075547D01*
X161924441Y-136872216D01*
X161989687Y-136845257D01*
X162407789Y-136427884D01*
X162634343Y-135882282D01*
X162634858Y-135291512D01*
X162409257Y-134745515D01*
X161991884Y-134327413D01*
X161446282Y-134100859D01*
X160855512Y-134100344D01*
X160309515Y-134325945D01*
X159891413Y-134743318D01*
X159866946Y-134802240D01*
X159688748Y-134535547D01*
X159206979Y-134213640D01*
X158638694Y-134100601D01*
X158580508Y-134100601D01*
X158012223Y-134213640D01*
X157530454Y-134535547D01*
X157336647Y-134825601D01*
X144739603Y-134825601D01*
X131136523Y-121222521D01*
X133107164Y-121222521D01*
X133342481Y-121178243D01*
X133558605Y-121039171D01*
X133703595Y-120826971D01*
X133754604Y-120575081D01*
X133754604Y-119375081D01*
X135459724Y-119375081D01*
X135459724Y-120575081D01*
X135504002Y-120810398D01*
X135643074Y-121026522D01*
X135855274Y-121171512D01*
X136107164Y-121222521D01*
X138607164Y-121222521D01*
X138842481Y-121178243D01*
X139058605Y-121039171D01*
X139203595Y-120826971D01*
X139254604Y-120575081D01*
X139254604Y-119375081D01*
X139210326Y-119139764D01*
X139071254Y-118923640D01*
X138859054Y-118778650D01*
X138607164Y-118727641D01*
X136107164Y-118727641D01*
X135871847Y-118771919D01*
X135655723Y-118910991D01*
X135510733Y-119123191D01*
X135459724Y-119375081D01*
X133754604Y-119375081D01*
X133710326Y-119139764D01*
X133571254Y-118923640D01*
X133359054Y-118778650D01*
X133107164Y-118727641D01*
X130607164Y-118727641D01*
X130371847Y-118771919D01*
X130155723Y-118910991D01*
X130010733Y-119123191D01*
X129959724Y-119375081D01*
X129959724Y-120045722D01*
X126789083Y-116875081D01*
X129959724Y-116875081D01*
X129959724Y-118075081D01*
X130004002Y-118310398D01*
X130143074Y-118526522D01*
X130355274Y-118671512D01*
X130607164Y-118722521D01*
X133107164Y-118722521D01*
X133342481Y-118678243D01*
X133558605Y-118539171D01*
X133703595Y-118326971D01*
X133754604Y-118075081D01*
X133754604Y-116875081D01*
X135459724Y-116875081D01*
X135459724Y-118075081D01*
X135504002Y-118310398D01*
X135643074Y-118526522D01*
X135855274Y-118671512D01*
X136107164Y-118722521D01*
X138607164Y-118722521D01*
X138842481Y-118678243D01*
X139058605Y-118539171D01*
X139203595Y-118326971D01*
X139214883Y-118271229D01*
X143536761Y-118271229D01*
X143536761Y-119266229D01*
X143581039Y-119501546D01*
X143720111Y-119717670D01*
X143932311Y-119862660D01*
X144184201Y-119913669D01*
X146724201Y-119913669D01*
X146959518Y-119869391D01*
X147175642Y-119730319D01*
X147320632Y-119518119D01*
X147371641Y-119266229D01*
X147371641Y-115756229D01*
X147327363Y-115520912D01*
X147188291Y-115304788D01*
X146976091Y-115159798D01*
X146724201Y-115108789D01*
X144184201Y-115108789D01*
X143948884Y-115153067D01*
X143732760Y-115292139D01*
X143587770Y-115504339D01*
X143536761Y-115756229D01*
X143536761Y-116751229D01*
X139231300Y-116751229D01*
X139210326Y-116639764D01*
X139071254Y-116423640D01*
X138859054Y-116278650D01*
X138607164Y-116227641D01*
X136107164Y-116227641D01*
X135871847Y-116271919D01*
X135655723Y-116410991D01*
X135510733Y-116623191D01*
X135459724Y-116875081D01*
X133754604Y-116875081D01*
X133710326Y-116639764D01*
X133571254Y-116423640D01*
X133359054Y-116278650D01*
X133107164Y-116227641D01*
X130607164Y-116227641D01*
X130371847Y-116271919D01*
X130155723Y-116410991D01*
X130010733Y-116623191D01*
X129959724Y-116875081D01*
X126789083Y-116875081D01*
X124289083Y-114375081D01*
X129959724Y-114375081D01*
X129959724Y-115575081D01*
X130004002Y-115810398D01*
X130143074Y-116026522D01*
X130355274Y-116171512D01*
X130607164Y-116222521D01*
X133107164Y-116222521D01*
X133342481Y-116178243D01*
X133558605Y-116039171D01*
X133703595Y-115826971D01*
X133754604Y-115575081D01*
X133754604Y-114375081D01*
X133710326Y-114139764D01*
X133571254Y-113923640D01*
X133359054Y-113778650D01*
X133107164Y-113727641D01*
X130607164Y-113727641D01*
X130371847Y-113771919D01*
X130155723Y-113910991D01*
X130010733Y-114123191D01*
X129959724Y-114375081D01*
X124289083Y-114375081D01*
X122586402Y-112672400D01*
X132781198Y-112672400D01*
X135459724Y-115350926D01*
X135459724Y-115575081D01*
X135504002Y-115810398D01*
X135643074Y-116026522D01*
X135855274Y-116171512D01*
X136107164Y-116222521D01*
X138607164Y-116222521D01*
X138842481Y-116178243D01*
X139058605Y-116039171D01*
X139203595Y-115826971D01*
X139228214Y-115705401D01*
X141718364Y-115705401D01*
X142053201Y-115844438D01*
X142425167Y-115844762D01*
X142768943Y-115702717D01*
X143032192Y-115439927D01*
X143174838Y-115096399D01*
X143175162Y-114724433D01*
X143033117Y-114380657D01*
X142770327Y-114117408D01*
X142426799Y-113974762D01*
X142054833Y-113974438D01*
X141711057Y-114116483D01*
X141642019Y-114185401D01*
X139218913Y-114185401D01*
X139210326Y-114139764D01*
X139071254Y-113923640D01*
X138859054Y-113778650D01*
X138607164Y-113727641D01*
X136107164Y-113727641D01*
X136005224Y-113746822D01*
X134067202Y-111808800D01*
X145684398Y-111808800D01*
X147626800Y-113751202D01*
X147626800Y-119573198D01*
X142915200Y-124284798D01*
X142750453Y-124531360D01*
X142692601Y-124822199D01*
X142692601Y-127436360D01*
X142452601Y-127436360D01*
X142217284Y-127480638D01*
X142001160Y-127619710D01*
X141856170Y-127831910D01*
X141805161Y-128083800D01*
X141805161Y-129783800D01*
X141849439Y-130019117D01*
X141988511Y-130235241D01*
X142200711Y-130380231D01*
X142452601Y-130431240D01*
X142692601Y-130431240D01*
X142692601Y-131921001D01*
X142750453Y-132211840D01*
X142915200Y-132458402D01*
X143429799Y-132973001D01*
X143676361Y-133137748D01*
X143967200Y-133195600D01*
X154838400Y-133195600D01*
X155129239Y-133137748D01*
X155375801Y-132973001D01*
X158655002Y-129693800D01*
X169776761Y-129693800D01*
X169776761Y-129783800D01*
X169821039Y-130019117D01*
X169960111Y-130235241D01*
X170172311Y-130380231D01*
X170424201Y-130431240D01*
X172424201Y-130431240D01*
X172659518Y-130386962D01*
X172875642Y-130247890D01*
X172890735Y-130225800D01*
X173954036Y-130225800D01*
X173960111Y-130235241D01*
X174172311Y-130380231D01*
X174424201Y-130431240D01*
X176424201Y-130431240D01*
X176659518Y-130386962D01*
X176875642Y-130247890D01*
X177020632Y-130035690D01*
X177071641Y-129783800D01*
X177071641Y-128083800D01*
X177027363Y-127848483D01*
X176888291Y-127632359D01*
X176676091Y-127487369D01*
X176424201Y-127436360D01*
X176184201Y-127436360D01*
X176184201Y-124116201D01*
X176148957Y-123939020D01*
X176126349Y-123825361D01*
X175961602Y-123578800D01*
X170179781Y-117796979D01*
X172909201Y-117796979D01*
X172909201Y-119392539D01*
X173005874Y-119625928D01*
X173184503Y-119804556D01*
X173417892Y-119901229D01*
X174528451Y-119901229D01*
X174687201Y-119742479D01*
X174687201Y-117638229D01*
X174941201Y-117638229D01*
X174941201Y-119742479D01*
X175099951Y-119901229D01*
X176210510Y-119901229D01*
X176443899Y-119804556D01*
X176622528Y-119625928D01*
X176719201Y-119392539D01*
X176719201Y-117796979D01*
X176560451Y-117638229D01*
X174941201Y-117638229D01*
X174687201Y-117638229D01*
X173067951Y-117638229D01*
X172909201Y-117796979D01*
X170179781Y-117796979D01*
X168012721Y-115629919D01*
X172909201Y-115629919D01*
X172909201Y-117225479D01*
X173067951Y-117384229D01*
X174687201Y-117384229D01*
X174687201Y-115279979D01*
X174941201Y-115279979D01*
X174941201Y-117384229D01*
X176560451Y-117384229D01*
X176719201Y-117225479D01*
X176719201Y-115629919D01*
X176622528Y-115396530D01*
X176443899Y-115217902D01*
X176210510Y-115121229D01*
X175099951Y-115121229D01*
X174941201Y-115279979D01*
X174687201Y-115279979D01*
X174528451Y-115121229D01*
X173417892Y-115121229D01*
X173184503Y-115217902D01*
X173005874Y-115396530D01*
X172909201Y-115629919D01*
X168012721Y-115629919D01*
X162740153Y-110357351D01*
X173509800Y-110357351D01*
X173509800Y-110947910D01*
X173606473Y-111181299D01*
X173785101Y-111359928D01*
X174018490Y-111456601D01*
X174509050Y-111456601D01*
X174667800Y-111297851D01*
X174667800Y-110198601D01*
X174921800Y-110198601D01*
X174921800Y-111297851D01*
X175080550Y-111456601D01*
X175571110Y-111456601D01*
X175804499Y-111359928D01*
X175983127Y-111181299D01*
X176079800Y-110947910D01*
X176079800Y-110357351D01*
X175921050Y-110198601D01*
X174921800Y-110198601D01*
X174667800Y-110198601D01*
X173668550Y-110198601D01*
X173509800Y-110357351D01*
X162740153Y-110357351D01*
X155344400Y-102961598D01*
X155344400Y-99578002D01*
X155936042Y-98986360D01*
X155931741Y-99007599D01*
X155931741Y-99566399D01*
X155976019Y-99801716D01*
X156115091Y-100017840D01*
X156327291Y-100162830D01*
X156579181Y-100213839D01*
X156911381Y-100213839D01*
X156911381Y-101892981D01*
X156969233Y-102183820D01*
X157133980Y-102430382D01*
X159533399Y-104829801D01*
X159779961Y-104994548D01*
X160070800Y-105052400D01*
X174233998Y-105052400D01*
X175155759Y-105974161D01*
X174144800Y-105974161D01*
X173909483Y-106018439D01*
X173693359Y-106157511D01*
X173548369Y-106369711D01*
X173497360Y-106621601D01*
X173497360Y-108121601D01*
X173541638Y-108356918D01*
X173680710Y-108573042D01*
X173892910Y-108718032D01*
X173926290Y-108724792D01*
X173785101Y-108783274D01*
X173606473Y-108961903D01*
X173509800Y-109195292D01*
X173509800Y-109785851D01*
X173668550Y-109944601D01*
X174667800Y-109944601D01*
X174667800Y-109924601D01*
X174921800Y-109924601D01*
X174921800Y-109944601D01*
X175921050Y-109944601D01*
X176079800Y-109785851D01*
X176079800Y-109195292D01*
X175983127Y-108961903D01*
X175804499Y-108783274D01*
X175668513Y-108726947D01*
X175680117Y-108724763D01*
X175896241Y-108585691D01*
X175975252Y-108470054D01*
X176712478Y-109207280D01*
X176712438Y-109252767D01*
X176854483Y-109596543D01*
X177117273Y-109859792D01*
X177460801Y-110002438D01*
X177832767Y-110002762D01*
X178176543Y-109860717D01*
X178439792Y-109597927D01*
X178539471Y-109357873D01*
X178856399Y-109674801D01*
X179102961Y-109839548D01*
X179393800Y-109897400D01*
X189448359Y-109897400D01*
X189448359Y-109987400D01*
X189492637Y-110222717D01*
X189631709Y-110438841D01*
X189843909Y-110583831D01*
X190095799Y-110634840D01*
X192095799Y-110634840D01*
X192331116Y-110590562D01*
X192447921Y-110515400D01*
X193743757Y-110515400D01*
X193843909Y-110583831D01*
X194095799Y-110634840D01*
X196095799Y-110634840D01*
X196331116Y-110590562D01*
X196547240Y-110451490D01*
X196692230Y-110239290D01*
X196743239Y-109987400D01*
X196743239Y-108287400D01*
X196698961Y-108052083D01*
X196559889Y-107835959D01*
X196347689Y-107690969D01*
X196095799Y-107639960D01*
X195855799Y-107639960D01*
X195855799Y-97621000D01*
X195797947Y-97330161D01*
X195633200Y-97083599D01*
X194969692Y-96420091D01*
X198154125Y-96420091D01*
X198323956Y-96830125D01*
X198714243Y-97258384D01*
X199238709Y-97504687D01*
X199468601Y-97384020D01*
X199468601Y-96190201D01*
X198275446Y-96190201D01*
X198154125Y-96420091D01*
X194969692Y-96420091D01*
X194406439Y-95856838D01*
X194406439Y-94884200D01*
X194362161Y-94648883D01*
X194223089Y-94432759D01*
X194010889Y-94287769D01*
X193768999Y-94238785D01*
X193768999Y-88229803D01*
X195692200Y-86306602D01*
X195856947Y-86060041D01*
X195876575Y-85961363D01*
X195914799Y-85769201D01*
X195914799Y-82664640D01*
X196154799Y-82664640D01*
X196390116Y-82620362D01*
X196606240Y-82481290D01*
X196751230Y-82269090D01*
X196802239Y-82017200D01*
X196802239Y-80317200D01*
X196757961Y-80081883D01*
X196618889Y-79865759D01*
X196406689Y-79720769D01*
X196154799Y-79669760D01*
X195914799Y-79669760D01*
X195914799Y-77857599D01*
X195856947Y-77566760D01*
X195692200Y-77320198D01*
X179257201Y-60885199D01*
X179010639Y-60720452D01*
X178719800Y-60662600D01*
X176923639Y-60662600D01*
X176923639Y-60572600D01*
X176879361Y-60337283D01*
X176740289Y-60121159D01*
X176528089Y-59976169D01*
X176276199Y-59925160D01*
X176036199Y-59925160D01*
X176036199Y-58791799D01*
X175982092Y-58519788D01*
X175978347Y-58500959D01*
X175813600Y-58254398D01*
X174375001Y-56815799D01*
X174128439Y-56651052D01*
X173837600Y-56593200D01*
X147510401Y-56593200D01*
X147219561Y-56651052D01*
X146973000Y-56815799D01*
X143764039Y-60024760D01*
X142341401Y-60024760D01*
X142106084Y-60069038D01*
X141889960Y-60208110D01*
X141744970Y-60420310D01*
X141693961Y-60672200D01*
X141693961Y-60762200D01*
X139239400Y-60762200D01*
X138948561Y-60820052D01*
X138701999Y-60984799D01*
X123076400Y-76610398D01*
X122911653Y-76856960D01*
X122853801Y-77147799D01*
X122853801Y-79712760D01*
X122613801Y-79712760D01*
X122378484Y-79757038D01*
X122162360Y-79896110D01*
X122017370Y-80108310D01*
X121966361Y-80360200D01*
X121966361Y-82060200D01*
X122010639Y-82295517D01*
X122149711Y-82511641D01*
X122361911Y-82656631D01*
X122613801Y-82707640D01*
X122880601Y-82707640D01*
X122880601Y-107615560D01*
X122640601Y-107615560D01*
X122405284Y-107659838D01*
X122189160Y-107798910D01*
X122044170Y-108011110D01*
X121993161Y-108263000D01*
X121993161Y-109963000D01*
X122037439Y-110198317D01*
X122176511Y-110414441D01*
X122388711Y-110559431D01*
X122640601Y-110610440D01*
X122880601Y-110610440D01*
X122880601Y-110702363D01*
X122843452Y-110757961D01*
X122785600Y-111048800D01*
X122806208Y-111152400D01*
X121117202Y-111152400D01*
X115314000Y-105349198D01*
X115314000Y-97198004D01*
X116124201Y-96387803D01*
X116124201Y-96495003D01*
X116289045Y-96495003D01*
X116167725Y-96724891D01*
X116337556Y-97134925D01*
X116727843Y-97563184D01*
X117252309Y-97809487D01*
X117482201Y-97688820D01*
X117482201Y-96495001D01*
X117462201Y-96495001D01*
X117462201Y-96241001D01*
X117482201Y-96241001D01*
X117482201Y-96221001D01*
X117736201Y-96221001D01*
X117736201Y-96241001D01*
X117756201Y-96241001D01*
X117756201Y-96495001D01*
X117736201Y-96495001D01*
X117736201Y-97688820D01*
X117966093Y-97809487D01*
X118490559Y-97563184D01*
X118880846Y-97134925D01*
X118880856Y-97134900D01*
X119070054Y-97418055D01*
X119551823Y-97739962D01*
X120120108Y-97853001D01*
X120178294Y-97853001D01*
X120746579Y-97739962D01*
X121228348Y-97418055D01*
X121550255Y-96936286D01*
X121663294Y-96368001D01*
X121550255Y-95799716D01*
X121228348Y-95317947D01*
X120924041Y-95114616D01*
X120989287Y-95087657D01*
X121407389Y-94670284D01*
X121633943Y-94124682D01*
X121634458Y-93533912D01*
X121408857Y-92987915D01*
X120991484Y-92569813D01*
X120445882Y-92343259D01*
X119855112Y-92342744D01*
X119309115Y-92568345D01*
X118891013Y-92985718D01*
X118866546Y-93044640D01*
X118688348Y-92777947D01*
X118206579Y-92456040D01*
X117638294Y-92343001D01*
X117580108Y-92343001D01*
X117011823Y-92456040D01*
X116530054Y-92777947D01*
X116208147Y-93259716D01*
X116095108Y-93828001D01*
X116167991Y-94194409D01*
X114016599Y-96345801D01*
X113851852Y-96592363D01*
X113794000Y-96883202D01*
X110573970Y-96883202D01*
X110560558Y-96459569D01*
X110548607Y-95830189D01*
X110544613Y-95199021D01*
X110548607Y-94567854D01*
X110560558Y-93938475D01*
X110580415Y-93311225D01*
X110608129Y-92686007D01*
X110643658Y-92062777D01*
X110686943Y-91441804D01*
X110737947Y-90822912D01*
X110796623Y-90206210D01*
X110862895Y-89591980D01*
X110936757Y-88979876D01*
X111018138Y-88370168D01*
X111106987Y-87762907D01*
X111203265Y-87158078D01*
X111306908Y-86555833D01*
X111417904Y-85956004D01*
X111536154Y-85358915D01*
X111661670Y-84764318D01*
X111794345Y-84172542D01*
X111934169Y-83583450D01*
X112081072Y-82997194D01*
X112235035Y-82413699D01*
X112395984Y-81833124D01*
X112563902Y-81255402D01*
X112738692Y-80680745D01*
X112920343Y-80109078D01*
X113108794Y-79540497D01*
X113304021Y-78974974D01*
X113505918Y-78412724D01*
X113714488Y-77853651D01*
X113929716Y-77297723D01*
X114151441Y-76745276D01*
X114379728Y-76196069D01*
X114614488Y-75650266D01*
X114855630Y-75107998D01*
X115103216Y-74569080D01*
X115357053Y-74033866D01*
X115617215Y-73502153D01*
X115883590Y-72974117D01*
X116156147Y-72449771D01*
X116434855Y-71929134D01*
X116719668Y-71412253D01*
X117010470Y-70899296D01*
X117307330Y-70390104D01*
X117610083Y-69884930D01*
X117918727Y-69383743D01*
X118233304Y-68886446D01*
X118553585Y-68393374D01*
X118879669Y-67904346D01*
X119211434Y-67419523D01*
X119548858Y-66938915D01*
X119891915Y-66462538D01*
X120240532Y-65990476D01*
X120594656Y-65522786D01*
X120954233Y-65059520D01*
X121319253Y-64600681D01*
X121689587Y-64146415D01*
X122065317Y-63696613D01*
X122446251Y-63251494D01*
X122832525Y-62810894D01*
X123223865Y-62375118D01*
X123620344Y-61944076D01*
X124021976Y-61517754D01*
X124428572Y-61096345D01*
X124840190Y-60679790D01*
X125256745Y-60268172D01*
X125678196Y-59861536D01*
X126104432Y-59459985D01*
X126535518Y-59063465D01*
X126971294Y-58672125D01*
X127411894Y-58285851D01*
X127857013Y-57904917D01*
X128306815Y-57529187D01*
X128761131Y-57158814D01*
X129219960Y-56793802D01*
X129683239Y-56434216D01*
X130150876Y-56080132D01*
X130622938Y-55731515D01*
X131099315Y-55388458D01*
X131579923Y-55051034D01*
X132064746Y-54719269D01*
X132553811Y-54393160D01*
X133046905Y-54072867D01*
X133544143Y-53758327D01*
X134045306Y-53449698D01*
X134550505Y-53146930D01*
X135059634Y-52850105D01*
X135572653Y-52559268D01*
X136089504Y-52274471D01*
X136610138Y-51995765D01*
X137134517Y-51723190D01*
X137471131Y-51553380D01*
X156383541Y-51553380D01*
X156871052Y-52733246D01*
X157772968Y-53636738D01*
X158951981Y-54126307D01*
X160228598Y-54127421D01*
X161408464Y-53639910D01*
X162311956Y-52737994D01*
X162801525Y-51558981D01*
X162802639Y-50282364D01*
X162315128Y-49102498D01*
X161413212Y-48199006D01*
X160234199Y-47709437D01*
X158957582Y-47708323D01*
X157777716Y-48195834D01*
X156874224Y-49097750D01*
X156384655Y-50276763D01*
X156383541Y-51553380D01*
X137471131Y-51553380D01*
X137662553Y-51456815D01*
X138194266Y-51196653D01*
X138729480Y-50942816D01*
X139268367Y-50695244D01*
X139810636Y-50454101D01*
X140356469Y-50219328D01*
X140905705Y-49991029D01*
X141458124Y-49769316D01*
X142013981Y-49554115D01*
X142573124Y-49345518D01*
X143135445Y-49143595D01*
X143700896Y-48948394D01*
X144269551Y-48759920D01*
X144841167Y-48578285D01*
X145415802Y-48403502D01*
X145993524Y-48235584D01*
X146574065Y-48074645D01*
X147157594Y-47920672D01*
X147743869Y-47773764D01*
X148332960Y-47633941D01*
X148924702Y-47501274D01*
X149519315Y-47375754D01*
X150116404Y-47257504D01*
X150716219Y-47146510D01*
X151318478Y-47042865D01*
X151923319Y-46946585D01*
X152530558Y-46857739D01*
X153140198Y-46776367D01*
X153752381Y-46702495D01*
X154366680Y-46636215D01*
X154983241Y-46577554D01*
X155602198Y-46526543D01*
X156223177Y-46483258D01*
X156846407Y-46447729D01*
X157471619Y-46420015D01*
X158098875Y-46400158D01*
X158728254Y-46388207D01*
X159359421Y-46384213D01*
X159990589Y-46388207D01*
G36*
X189507359Y-82017200D02*
X189551637Y-82252517D01*
X189690709Y-82468641D01*
X189902909Y-82613631D01*
X190154799Y-82664640D01*
X192154799Y-82664640D01*
X192390116Y-82620362D01*
X192538934Y-82524600D01*
X193772608Y-82524600D01*
X193902909Y-82613631D01*
X194154799Y-82664640D01*
X194394799Y-82664640D01*
X194394799Y-85454399D01*
X192471598Y-87377600D01*
X192306851Y-87624162D01*
X192248999Y-87915001D01*
X192248999Y-94238642D01*
X192023682Y-94281038D01*
X191807558Y-94420110D01*
X191662568Y-94632310D01*
X191655808Y-94665690D01*
X191597326Y-94524501D01*
X191418697Y-94345873D01*
X191185308Y-94249200D01*
X190594749Y-94249200D01*
X190435999Y-94407950D01*
X190435999Y-95407200D01*
X190455999Y-95407200D01*
X190455999Y-95661200D01*
X190435999Y-95661200D01*
X190435999Y-96660450D01*
X190594749Y-96819200D01*
X191185308Y-96819200D01*
X191418697Y-96722527D01*
X191597326Y-96543899D01*
X191653653Y-96407913D01*
X191655837Y-96419517D01*
X191794909Y-96635641D01*
X192007109Y-96780631D01*
X192258999Y-96831640D01*
X193231637Y-96831640D01*
X194335799Y-97935802D01*
X194335799Y-107639960D01*
X194095799Y-107639960D01*
X193932962Y-107670600D01*
X192247104Y-107670600D01*
X192095799Y-107639960D01*
X190095799Y-107639960D01*
X189860482Y-107684238D01*
X189644358Y-107823310D01*
X189499368Y-108035510D01*
X189448359Y-108287400D01*
X189448359Y-108377400D01*
X184119650Y-108377400D01*
X184119962Y-108018833D01*
X184046400Y-107840799D01*
X184046400Y-106929599D01*
X183988548Y-106638760D01*
X183823801Y-106392198D01*
X180263040Y-102831437D01*
X180263040Y-101258799D01*
X180218762Y-101023482D01*
X180079690Y-100807358D01*
X179867490Y-100662368D01*
X179615600Y-100611359D01*
X177615600Y-100611359D01*
X177380283Y-100655637D01*
X177164159Y-100794709D01*
X177019169Y-101006909D01*
X176968160Y-101258799D01*
X176968160Y-101498799D01*
X165682383Y-101498799D01*
X164050908Y-99867324D01*
X164084412Y-99818289D01*
X164135421Y-99566399D01*
X164135421Y-99007599D01*
X164091143Y-98772282D01*
X164013649Y-98651854D01*
X164084412Y-98548289D01*
X164135421Y-98296399D01*
X164135421Y-97737599D01*
X164092031Y-97506999D01*
X168225801Y-97506999D01*
X168516640Y-97449147D01*
X168763202Y-97284400D01*
X170227652Y-95819950D01*
X188923999Y-95819950D01*
X188923999Y-96310510D01*
X189020672Y-96543899D01*
X189199301Y-96722527D01*
X189432690Y-96819200D01*
X190023249Y-96819200D01*
X190181999Y-96660450D01*
X190181999Y-95661200D01*
X189082749Y-95661200D01*
X188923999Y-95819950D01*
X170227652Y-95819950D01*
X171289712Y-94757890D01*
X188923999Y-94757890D01*
X188923999Y-95248450D01*
X189082749Y-95407200D01*
X190181999Y-95407200D01*
X190181999Y-94407950D01*
X190023249Y-94249200D01*
X189432690Y-94249200D01*
X189199301Y-94345873D01*
X189020672Y-94524501D01*
X188923999Y-94757890D01*
X171289712Y-94757890D01*
X177544106Y-88503496D01*
X177989913Y-88801374D01*
X178615600Y-88925831D01*
X179241287Y-88801374D01*
X179771720Y-88446951D01*
X180057801Y-88018799D01*
X183220515Y-88018799D01*
X183556801Y-88158438D01*
X183928767Y-88158762D01*
X184272543Y-88016717D01*
X184535792Y-87753927D01*
X184678438Y-87410399D01*
X184678762Y-87038433D01*
X184536717Y-86694657D01*
X184273927Y-86431408D01*
X183930399Y-86288762D01*
X183558433Y-86288438D01*
X183214657Y-86430483D01*
X183146222Y-86498799D01*
X180057801Y-86498799D01*
X179771720Y-86070647D01*
X179241287Y-85716224D01*
X178615600Y-85591767D01*
X177989913Y-85716224D01*
X177459480Y-86070647D01*
X177105057Y-86601080D01*
X177057417Y-86840581D01*
X167910999Y-95986999D01*
X164079783Y-95986999D01*
X164122981Y-95882709D01*
X164122981Y-95762749D01*
X163964231Y-95603999D01*
X162522781Y-95603999D01*
X162522781Y-95623999D01*
X162268781Y-95623999D01*
X162268781Y-95603999D01*
X162248781Y-95603999D01*
X162248781Y-95349999D01*
X162268781Y-95349999D01*
X162268781Y-95329999D01*
X162522781Y-95329999D01*
X162522781Y-95349999D01*
X163964231Y-95349999D01*
X164122981Y-95191249D01*
X164122981Y-95071289D01*
X164026308Y-94837900D01*
X164020393Y-94831985D01*
X164084412Y-94738289D01*
X164135421Y-94486399D01*
X164135421Y-93927599D01*
X164091143Y-93692282D01*
X164013649Y-93571854D01*
X164084412Y-93468289D01*
X164135421Y-93216399D01*
X164135421Y-92657599D01*
X164092031Y-92426999D01*
X166701801Y-92426999D01*
X166992640Y-92369147D01*
X167239202Y-92204400D01*
X177516402Y-81927200D01*
X189507359Y-81927200D01*
X189507359Y-82017200D01*
X189507359Y-82017200D01*
G37*
X189507359Y-82017200D02*
X189551637Y-82252517D01*
X189690709Y-82468641D01*
X189902909Y-82613631D01*
X190154799Y-82664640D01*
X192154799Y-82664640D01*
X192390116Y-82620362D01*
X192538934Y-82524600D01*
X193772608Y-82524600D01*
X193902909Y-82613631D01*
X194154799Y-82664640D01*
X194394799Y-82664640D01*
X194394799Y-85454399D01*
X192471598Y-87377600D01*
X192306851Y-87624162D01*
X192248999Y-87915001D01*
X192248999Y-94238642D01*
X192023682Y-94281038D01*
X191807558Y-94420110D01*
X191662568Y-94632310D01*
X191655808Y-94665690D01*
X191597326Y-94524501D01*
X191418697Y-94345873D01*
X191185308Y-94249200D01*
X190594749Y-94249200D01*
X190435999Y-94407950D01*
X190435999Y-95407200D01*
X190455999Y-95407200D01*
X190455999Y-95661200D01*
X190435999Y-95661200D01*
X190435999Y-96660450D01*
X190594749Y-96819200D01*
X191185308Y-96819200D01*
X191418697Y-96722527D01*
X191597326Y-96543899D01*
X191653653Y-96407913D01*
X191655837Y-96419517D01*
X191794909Y-96635641D01*
X192007109Y-96780631D01*
X192258999Y-96831640D01*
X193231637Y-96831640D01*
X194335799Y-97935802D01*
X194335799Y-107639960D01*
X194095799Y-107639960D01*
X193932962Y-107670600D01*
X192247104Y-107670600D01*
X192095799Y-107639960D01*
X190095799Y-107639960D01*
X189860482Y-107684238D01*
X189644358Y-107823310D01*
X189499368Y-108035510D01*
X189448359Y-108287400D01*
X189448359Y-108377400D01*
X184119650Y-108377400D01*
X184119962Y-108018833D01*
X184046400Y-107840799D01*
X184046400Y-106929599D01*
X183988548Y-106638760D01*
X183823801Y-106392198D01*
X180263040Y-102831437D01*
X180263040Y-101258799D01*
X180218762Y-101023482D01*
X180079690Y-100807358D01*
X179867490Y-100662368D01*
X179615600Y-100611359D01*
X177615600Y-100611359D01*
X177380283Y-100655637D01*
X177164159Y-100794709D01*
X177019169Y-101006909D01*
X176968160Y-101258799D01*
X176968160Y-101498799D01*
X165682383Y-101498799D01*
X164050908Y-99867324D01*
X164084412Y-99818289D01*
X164135421Y-99566399D01*
X164135421Y-99007599D01*
X164091143Y-98772282D01*
X164013649Y-98651854D01*
X164084412Y-98548289D01*
X164135421Y-98296399D01*
X164135421Y-97737599D01*
X164092031Y-97506999D01*
X168225801Y-97506999D01*
X168516640Y-97449147D01*
X168763202Y-97284400D01*
X170227652Y-95819950D01*
X188923999Y-95819950D01*
X188923999Y-96310510D01*
X189020672Y-96543899D01*
X189199301Y-96722527D01*
X189432690Y-96819200D01*
X190023249Y-96819200D01*
X190181999Y-96660450D01*
X190181999Y-95661200D01*
X189082749Y-95661200D01*
X188923999Y-95819950D01*
X170227652Y-95819950D01*
X171289712Y-94757890D01*
X188923999Y-94757890D01*
X188923999Y-95248450D01*
X189082749Y-95407200D01*
X190181999Y-95407200D01*
X190181999Y-94407950D01*
X190023249Y-94249200D01*
X189432690Y-94249200D01*
X189199301Y-94345873D01*
X189020672Y-94524501D01*
X188923999Y-94757890D01*
X171289712Y-94757890D01*
X177544106Y-88503496D01*
X177989913Y-88801374D01*
X178615600Y-88925831D01*
X179241287Y-88801374D01*
X179771720Y-88446951D01*
X180057801Y-88018799D01*
X183220515Y-88018799D01*
X183556801Y-88158438D01*
X183928767Y-88158762D01*
X184272543Y-88016717D01*
X184535792Y-87753927D01*
X184678438Y-87410399D01*
X184678762Y-87038433D01*
X184536717Y-86694657D01*
X184273927Y-86431408D01*
X183930399Y-86288762D01*
X183558433Y-86288438D01*
X183214657Y-86430483D01*
X183146222Y-86498799D01*
X180057801Y-86498799D01*
X179771720Y-86070647D01*
X179241287Y-85716224D01*
X178615600Y-85591767D01*
X177989913Y-85716224D01*
X177459480Y-86070647D01*
X177105057Y-86601080D01*
X177057417Y-86840581D01*
X167910999Y-95986999D01*
X164079783Y-95986999D01*
X164122981Y-95882709D01*
X164122981Y-95762749D01*
X163964231Y-95603999D01*
X162522781Y-95603999D01*
X162522781Y-95623999D01*
X162268781Y-95623999D01*
X162268781Y-95603999D01*
X162248781Y-95603999D01*
X162248781Y-95349999D01*
X162268781Y-95349999D01*
X162268781Y-95329999D01*
X162522781Y-95329999D01*
X162522781Y-95349999D01*
X163964231Y-95349999D01*
X164122981Y-95191249D01*
X164122981Y-95071289D01*
X164026308Y-94837900D01*
X164020393Y-94831985D01*
X164084412Y-94738289D01*
X164135421Y-94486399D01*
X164135421Y-93927599D01*
X164091143Y-93692282D01*
X164013649Y-93571854D01*
X164084412Y-93468289D01*
X164135421Y-93216399D01*
X164135421Y-92657599D01*
X164092031Y-92426999D01*
X166701801Y-92426999D01*
X166992640Y-92369147D01*
X167239202Y-92204400D01*
X177516402Y-81927200D01*
X189507359Y-81927200D01*
X189507359Y-82017200D01*
G36*
X194394799Y-78172401D02*
X194394799Y-79669760D01*
X194154799Y-79669760D01*
X193919482Y-79714038D01*
X193893744Y-79730600D01*
X192421077Y-79730600D01*
X192406689Y-79720769D01*
X192154799Y-79669760D01*
X190154799Y-79669760D01*
X189919482Y-79714038D01*
X189703358Y-79853110D01*
X189558368Y-80065310D01*
X189507359Y-80317200D01*
X189507359Y-80407200D01*
X177201600Y-80407200D01*
X176910761Y-80465052D01*
X176664199Y-80629799D01*
X166386999Y-90906999D01*
X164088723Y-90906999D01*
X164135421Y-90676399D01*
X164135421Y-90117599D01*
X164091143Y-89882282D01*
X163952071Y-89666158D01*
X163739871Y-89521168D01*
X163487981Y-89470159D01*
X161303581Y-89470159D01*
X161068264Y-89514437D01*
X160877797Y-89636999D01*
X160605801Y-89636999D01*
X160314962Y-89694851D01*
X160068400Y-89859598D01*
X159584199Y-90343799D01*
X159419452Y-90590361D01*
X159398581Y-90695286D01*
X159398581Y-90682749D01*
X159239831Y-90523999D01*
X157798381Y-90523999D01*
X157798381Y-90543999D01*
X157544381Y-90543999D01*
X157544381Y-90523999D01*
X157524381Y-90523999D01*
X157524381Y-90269999D01*
X157544381Y-90269999D01*
X157544381Y-89641349D01*
X157798381Y-89641349D01*
X157798381Y-90269999D01*
X159239831Y-90269999D01*
X159398581Y-90111249D01*
X159398581Y-89991289D01*
X159301908Y-89757900D01*
X159123279Y-89579272D01*
X158889890Y-89482599D01*
X157957131Y-89482599D01*
X157798381Y-89641349D01*
X157544381Y-89641349D01*
X157385631Y-89482599D01*
X156452872Y-89482599D01*
X156219483Y-89579272D01*
X156040854Y-89757900D01*
X155944181Y-89991289D01*
X155944181Y-90111249D01*
X156102929Y-90269997D01*
X155944181Y-90269997D01*
X155944181Y-90302579D01*
X155446000Y-89804398D01*
X155446000Y-78327601D01*
X170853561Y-62920040D01*
X172276199Y-62920040D01*
X172511516Y-62875762D01*
X172727640Y-62736690D01*
X172744100Y-62712600D01*
X173804747Y-62712600D01*
X173812109Y-62724041D01*
X174024309Y-62869031D01*
X174276199Y-62920040D01*
X176276199Y-62920040D01*
X176511516Y-62875762D01*
X176727640Y-62736690D01*
X176872630Y-62524490D01*
X176923639Y-62272600D01*
X176923639Y-62182600D01*
X178404998Y-62182600D01*
X194394799Y-78172401D01*
X194394799Y-78172401D01*
G37*
X194394799Y-78172401D02*
X194394799Y-79669760D01*
X194154799Y-79669760D01*
X193919482Y-79714038D01*
X193893744Y-79730600D01*
X192421077Y-79730600D01*
X192406689Y-79720769D01*
X192154799Y-79669760D01*
X190154799Y-79669760D01*
X189919482Y-79714038D01*
X189703358Y-79853110D01*
X189558368Y-80065310D01*
X189507359Y-80317200D01*
X189507359Y-80407200D01*
X177201600Y-80407200D01*
X176910761Y-80465052D01*
X176664199Y-80629799D01*
X166386999Y-90906999D01*
X164088723Y-90906999D01*
X164135421Y-90676399D01*
X164135421Y-90117599D01*
X164091143Y-89882282D01*
X163952071Y-89666158D01*
X163739871Y-89521168D01*
X163487981Y-89470159D01*
X161303581Y-89470159D01*
X161068264Y-89514437D01*
X160877797Y-89636999D01*
X160605801Y-89636999D01*
X160314962Y-89694851D01*
X160068400Y-89859598D01*
X159584199Y-90343799D01*
X159419452Y-90590361D01*
X159398581Y-90695286D01*
X159398581Y-90682749D01*
X159239831Y-90523999D01*
X157798381Y-90523999D01*
X157798381Y-90543999D01*
X157544381Y-90543999D01*
X157544381Y-90523999D01*
X157524381Y-90523999D01*
X157524381Y-90269999D01*
X157544381Y-90269999D01*
X157544381Y-89641349D01*
X157798381Y-89641349D01*
X157798381Y-90269999D01*
X159239831Y-90269999D01*
X159398581Y-90111249D01*
X159398581Y-89991289D01*
X159301908Y-89757900D01*
X159123279Y-89579272D01*
X158889890Y-89482599D01*
X157957131Y-89482599D01*
X157798381Y-89641349D01*
X157544381Y-89641349D01*
X157385631Y-89482599D01*
X156452872Y-89482599D01*
X156219483Y-89579272D01*
X156040854Y-89757900D01*
X155944181Y-89991289D01*
X155944181Y-90111249D01*
X156102929Y-90269997D01*
X155944181Y-90269997D01*
X155944181Y-90302579D01*
X155446000Y-89804398D01*
X155446000Y-78327601D01*
X170853561Y-62920040D01*
X172276199Y-62920040D01*
X172511516Y-62875762D01*
X172727640Y-62736690D01*
X172744100Y-62712600D01*
X173804747Y-62712600D01*
X173812109Y-62724041D01*
X174024309Y-62869031D01*
X174276199Y-62920040D01*
X176276199Y-62920040D01*
X176511516Y-62875762D01*
X176727640Y-62736690D01*
X176872630Y-62524490D01*
X176923639Y-62272600D01*
X176923639Y-62182600D01*
X178404998Y-62182600D01*
X194394799Y-78172401D01*
M02*
