M48
;DRILL file {KiCad 4.0.7} date 07/18/18 17:21:40
;FORMAT={-:-/ absolute / inch / decimal}
FMAT,2
INCH,TZ
T1C0.016
T2C0.039
T3C0.203
%
G90
G05
M72
T1
X5.6Y-4.524
X6.182Y-3.408
X6.524Y-3.762
X6.642Y-4.224
X6.994Y-4.294
X7.212Y-4.26
X7.234Y-3.434
T2
X4.6303Y-3.694
X4.6303Y-3.794
X4.7303Y-3.694
X4.7303Y-3.794
X6.2445Y-5.338
X6.2445Y-5.438
X6.3445Y-5.338
X6.3445Y-5.438
X7.0321Y-3.4354
X7.0321Y-4.0259
X7.8581Y-3.682
X7.8581Y-3.782
X7.9581Y-3.682
X7.9581Y-3.782
T3
X6.2832Y-2.0046
T0
M30
