G04 #@! TF.FileFunction,Soldermask,Bot*
%FSLAX46Y46*%
G04 Gerber Fmt 4.6, Leading zero omitted, Abs format (unit mm)*
G04 Created by KiCad (PCBNEW 4.0.7) date 07/18/18 17:21:38*
%MOMM*%
%LPD*%
G01*
G04 APERTURE LIST*
%ADD10C,0.100000*%
%ADD11C,0.010000*%
%ADD12C,5.547986*%
%ADD13R,2.940000X3.910000*%
%ADD14R,2.400000X2.100000*%
%ADD15R,1.700000X1.900000*%
%ADD16R,1.900000X1.700000*%
%ADD17R,2.400000X2.400000*%
%ADD18O,2.400000X2.400000*%
%ADD19R,2.584400X0.958800*%
%ADD20C,2.100000*%
%ADD21O,2.100000X2.100000*%
%ADD22R,2.900000X1.600000*%
G04 APERTURE END LIST*
D10*
D11*
G36*
X145511620Y-127447875D02*
X145690388Y-127468179D01*
X145837628Y-127503868D01*
X146065741Y-127599481D01*
X146274666Y-127727716D01*
X146459215Y-127884273D01*
X146614202Y-128064853D01*
X146718964Y-128234298D01*
X146817703Y-128467707D01*
X146876441Y-128706411D01*
X146895784Y-128946328D01*
X146876339Y-129183379D01*
X146818710Y-129413481D01*
X146723504Y-129632555D01*
X146591327Y-129836519D01*
X146458821Y-129986617D01*
X146314464Y-130118558D01*
X146175312Y-130219597D01*
X146029384Y-130297521D01*
X145904683Y-130346732D01*
X145675219Y-130410131D01*
X145453462Y-130436455D01*
X145228417Y-130426607D01*
X145124535Y-130410869D01*
X144895435Y-130348304D01*
X144679955Y-130248580D01*
X144482374Y-130115828D01*
X144306971Y-129954177D01*
X144158024Y-129767759D01*
X144039811Y-129560704D01*
X143956612Y-129337143D01*
X143938836Y-129266202D01*
X143913140Y-129085422D01*
X143909671Y-128887662D01*
X143927573Y-128689582D01*
X143965990Y-128507843D01*
X143980148Y-128462617D01*
X144079804Y-128233531D01*
X144214011Y-128026864D01*
X144379767Y-127845496D01*
X144574070Y-127692308D01*
X144793915Y-127570180D01*
X144987434Y-127496382D01*
X145144701Y-127461840D01*
X145324577Y-127445717D01*
X145511620Y-127447875D01*
X145511620Y-127447875D01*
G37*
X145511620Y-127447875D02*
X145690388Y-127468179D01*
X145837628Y-127503868D01*
X146065741Y-127599481D01*
X146274666Y-127727716D01*
X146459215Y-127884273D01*
X146614202Y-128064853D01*
X146718964Y-128234298D01*
X146817703Y-128467707D01*
X146876441Y-128706411D01*
X146895784Y-128946328D01*
X146876339Y-129183379D01*
X146818710Y-129413481D01*
X146723504Y-129632555D01*
X146591327Y-129836519D01*
X146458821Y-129986617D01*
X146314464Y-130118558D01*
X146175312Y-130219597D01*
X146029384Y-130297521D01*
X145904683Y-130346732D01*
X145675219Y-130410131D01*
X145453462Y-130436455D01*
X145228417Y-130426607D01*
X145124535Y-130410869D01*
X144895435Y-130348304D01*
X144679955Y-130248580D01*
X144482374Y-130115828D01*
X144306971Y-129954177D01*
X144158024Y-129767759D01*
X144039811Y-129560704D01*
X143956612Y-129337143D01*
X143938836Y-129266202D01*
X143913140Y-129085422D01*
X143909671Y-128887662D01*
X143927573Y-128689582D01*
X143965990Y-128507843D01*
X143980148Y-128462617D01*
X144079804Y-128233531D01*
X144214011Y-128026864D01*
X144379767Y-127845496D01*
X144574070Y-127692308D01*
X144793915Y-127570180D01*
X144987434Y-127496382D01*
X145144701Y-127461840D01*
X145324577Y-127445717D01*
X145511620Y-127447875D01*
G36*
X173696055Y-127466791D02*
X173706201Y-127468793D01*
X173941048Y-127536937D01*
X174159168Y-127641881D01*
X174356951Y-127780176D01*
X174530791Y-127948376D01*
X174677080Y-128143030D01*
X174792210Y-128360691D01*
X174867705Y-128579034D01*
X174890983Y-128706564D01*
X174902666Y-128858579D01*
X174902741Y-129018846D01*
X174891200Y-129171132D01*
X174868163Y-129298700D01*
X174786934Y-129529444D01*
X174670331Y-129742985D01*
X174522463Y-129935189D01*
X174347442Y-130101920D01*
X174149375Y-130239040D01*
X173932373Y-130342414D01*
X173784684Y-130389151D01*
X173707353Y-130404428D01*
X173608551Y-130417615D01*
X173500460Y-130427811D01*
X173395263Y-130434113D01*
X173305145Y-130435619D01*
X173242290Y-130431427D01*
X173234350Y-130429893D01*
X173190119Y-130420343D01*
X173122519Y-130406437D01*
X173075600Y-130397030D01*
X172908456Y-130347651D01*
X172733307Y-130267332D01*
X172561207Y-130162935D01*
X172403206Y-130041323D01*
X172270359Y-129909356D01*
X172248998Y-129883832D01*
X172116272Y-129695205D01*
X172020044Y-129499793D01*
X171957975Y-129290639D01*
X171927721Y-129060783D01*
X171923815Y-128917700D01*
X171925583Y-128797837D01*
X171930666Y-128707329D01*
X171940831Y-128633226D01*
X171957845Y-128562578D01*
X171983013Y-128483784D01*
X172083474Y-128250462D01*
X172214883Y-128042226D01*
X172373608Y-127861217D01*
X172556013Y-127709575D01*
X172758464Y-127589441D01*
X172977329Y-127502954D01*
X173208971Y-127452257D01*
X173449758Y-127439489D01*
X173696055Y-127466791D01*
X173696055Y-127466791D01*
G37*
X173696055Y-127466791D02*
X173706201Y-127468793D01*
X173941048Y-127536937D01*
X174159168Y-127641881D01*
X174356951Y-127780176D01*
X174530791Y-127948376D01*
X174677080Y-128143030D01*
X174792210Y-128360691D01*
X174867705Y-128579034D01*
X174890983Y-128706564D01*
X174902666Y-128858579D01*
X174902741Y-129018846D01*
X174891200Y-129171132D01*
X174868163Y-129298700D01*
X174786934Y-129529444D01*
X174670331Y-129742985D01*
X174522463Y-129935189D01*
X174347442Y-130101920D01*
X174149375Y-130239040D01*
X173932373Y-130342414D01*
X173784684Y-130389151D01*
X173707353Y-130404428D01*
X173608551Y-130417615D01*
X173500460Y-130427811D01*
X173395263Y-130434113D01*
X173305145Y-130435619D01*
X173242290Y-130431427D01*
X173234350Y-130429893D01*
X173190119Y-130420343D01*
X173122519Y-130406437D01*
X173075600Y-130397030D01*
X172908456Y-130347651D01*
X172733307Y-130267332D01*
X172561207Y-130162935D01*
X172403206Y-130041323D01*
X172270359Y-129909356D01*
X172248998Y-129883832D01*
X172116272Y-129695205D01*
X172020044Y-129499793D01*
X171957975Y-129290639D01*
X171927721Y-129060783D01*
X171923815Y-128917700D01*
X171925583Y-128797837D01*
X171930666Y-128707329D01*
X171940831Y-128633226D01*
X171957845Y-128562578D01*
X171983013Y-128483784D01*
X172083474Y-128250462D01*
X172214883Y-128042226D01*
X172373608Y-127861217D01*
X172556013Y-127709575D01*
X172758464Y-127589441D01*
X172977329Y-127502954D01*
X173208971Y-127452257D01*
X173449758Y-127439489D01*
X173696055Y-127466791D01*
G36*
X125894832Y-107742027D02*
X126133270Y-107800216D01*
X126355451Y-107897345D01*
X126560410Y-108032968D01*
X126747183Y-108206639D01*
X126790938Y-108255969D01*
X126859298Y-108348765D01*
X126931011Y-108467350D01*
X126998938Y-108597802D01*
X127055941Y-108726198D01*
X127094884Y-108838618D01*
X127100134Y-108859040D01*
X127137379Y-109103914D01*
X127134603Y-109345581D01*
X127094053Y-109580048D01*
X127017978Y-109803321D01*
X126908625Y-110011405D01*
X126768241Y-110200306D01*
X126599074Y-110366031D01*
X126403373Y-110504585D01*
X126183383Y-110611974D01*
X126096184Y-110643042D01*
X125975650Y-110672900D01*
X125832439Y-110694492D01*
X125680857Y-110706842D01*
X125535213Y-110708975D01*
X125409813Y-110699915D01*
X125367525Y-110692728D01*
X125120323Y-110620080D01*
X124893961Y-110512176D01*
X124691312Y-110371703D01*
X124515245Y-110201345D01*
X124368630Y-110003787D01*
X124254338Y-109781715D01*
X124188549Y-109589833D01*
X124165617Y-109468716D01*
X124153272Y-109321959D01*
X124151545Y-109164915D01*
X124160466Y-109012939D01*
X124180065Y-108881387D01*
X124187103Y-108851700D01*
X124213976Y-108767124D01*
X124253520Y-108664004D01*
X124298398Y-108561106D01*
X124311258Y-108534200D01*
X124358890Y-108443918D01*
X124409456Y-108365796D01*
X124471732Y-108288182D01*
X124554498Y-108199420D01*
X124592046Y-108161446D01*
X124685860Y-108070483D01*
X124763745Y-108003234D01*
X124837142Y-107951118D01*
X124917495Y-107905555D01*
X124964205Y-107882381D01*
X125132708Y-107809037D01*
X125286482Y-107760656D01*
X125441828Y-107733407D01*
X125615045Y-107723456D01*
X125641100Y-107723227D01*
X125894832Y-107742027D01*
X125894832Y-107742027D01*
G37*
X125894832Y-107742027D02*
X126133270Y-107800216D01*
X126355451Y-107897345D01*
X126560410Y-108032968D01*
X126747183Y-108206639D01*
X126790938Y-108255969D01*
X126859298Y-108348765D01*
X126931011Y-108467350D01*
X126998938Y-108597802D01*
X127055941Y-108726198D01*
X127094884Y-108838618D01*
X127100134Y-108859040D01*
X127137379Y-109103914D01*
X127134603Y-109345581D01*
X127094053Y-109580048D01*
X127017978Y-109803321D01*
X126908625Y-110011405D01*
X126768241Y-110200306D01*
X126599074Y-110366031D01*
X126403373Y-110504585D01*
X126183383Y-110611974D01*
X126096184Y-110643042D01*
X125975650Y-110672900D01*
X125832439Y-110694492D01*
X125680857Y-110706842D01*
X125535213Y-110708975D01*
X125409813Y-110699915D01*
X125367525Y-110692728D01*
X125120323Y-110620080D01*
X124893961Y-110512176D01*
X124691312Y-110371703D01*
X124515245Y-110201345D01*
X124368630Y-110003787D01*
X124254338Y-109781715D01*
X124188549Y-109589833D01*
X124165617Y-109468716D01*
X124153272Y-109321959D01*
X124151545Y-109164915D01*
X124160466Y-109012939D01*
X124180065Y-108881387D01*
X124187103Y-108851700D01*
X124213976Y-108767124D01*
X124253520Y-108664004D01*
X124298398Y-108561106D01*
X124311258Y-108534200D01*
X124358890Y-108443918D01*
X124409456Y-108365796D01*
X124471732Y-108288182D01*
X124554498Y-108199420D01*
X124592046Y-108161446D01*
X124685860Y-108070483D01*
X124763745Y-108003234D01*
X124837142Y-107951118D01*
X124917495Y-107905555D01*
X124964205Y-107882381D01*
X125132708Y-107809037D01*
X125286482Y-107760656D01*
X125441828Y-107733407D01*
X125615045Y-107723456D01*
X125641100Y-107723227D01*
X125894832Y-107742027D01*
G36*
X193278641Y-107731308D02*
X193437164Y-107756599D01*
X193591375Y-107803017D01*
X193757811Y-107874475D01*
X193776600Y-107883556D01*
X193867235Y-107931200D01*
X193945670Y-107981852D01*
X194023648Y-108044325D01*
X194112915Y-108127430D01*
X194148759Y-108162783D01*
X194240970Y-108257790D01*
X194309451Y-108337391D01*
X194363013Y-108413259D01*
X194410466Y-108497068D01*
X194429109Y-108534200D01*
X194501903Y-108697525D01*
X194550176Y-108845916D01*
X194577764Y-108995874D01*
X194588501Y-109163899D01*
X194589008Y-109222117D01*
X194581244Y-109406954D01*
X194556086Y-109567551D01*
X194509941Y-109719688D01*
X194439647Y-109878284D01*
X194308099Y-110096352D01*
X194146792Y-110285367D01*
X193958141Y-110443241D01*
X193744562Y-110567886D01*
X193554350Y-110643250D01*
X193411078Y-110678215D01*
X193247154Y-110700429D01*
X193077814Y-110709070D01*
X192918296Y-110703317D01*
X192792350Y-110684380D01*
X192550467Y-110608243D01*
X192330781Y-110498935D01*
X192135531Y-110360003D01*
X191966954Y-110194993D01*
X191827289Y-110007452D01*
X191718774Y-109800925D01*
X191643647Y-109578959D01*
X191604148Y-109345099D01*
X191602513Y-109102894D01*
X191640233Y-108859040D01*
X191671643Y-108760201D01*
X191721457Y-108641139D01*
X191782790Y-108515581D01*
X191848753Y-108397252D01*
X191912461Y-108299877D01*
X191935979Y-108269617D01*
X192115041Y-108086032D01*
X192314933Y-107938709D01*
X192533378Y-107828716D01*
X192768102Y-107757122D01*
X193016828Y-107724996D01*
X193099267Y-107723227D01*
X193278641Y-107731308D01*
X193278641Y-107731308D01*
G37*
X193278641Y-107731308D02*
X193437164Y-107756599D01*
X193591375Y-107803017D01*
X193757811Y-107874475D01*
X193776600Y-107883556D01*
X193867235Y-107931200D01*
X193945670Y-107981852D01*
X194023648Y-108044325D01*
X194112915Y-108127430D01*
X194148759Y-108162783D01*
X194240970Y-108257790D01*
X194309451Y-108337391D01*
X194363013Y-108413259D01*
X194410466Y-108497068D01*
X194429109Y-108534200D01*
X194501903Y-108697525D01*
X194550176Y-108845916D01*
X194577764Y-108995874D01*
X194588501Y-109163899D01*
X194589008Y-109222117D01*
X194581244Y-109406954D01*
X194556086Y-109567551D01*
X194509941Y-109719688D01*
X194439647Y-109878284D01*
X194308099Y-110096352D01*
X194146792Y-110285367D01*
X193958141Y-110443241D01*
X193744562Y-110567886D01*
X193554350Y-110643250D01*
X193411078Y-110678215D01*
X193247154Y-110700429D01*
X193077814Y-110709070D01*
X192918296Y-110703317D01*
X192792350Y-110684380D01*
X192550467Y-110608243D01*
X192330781Y-110498935D01*
X192135531Y-110360003D01*
X191966954Y-110194993D01*
X191827289Y-110007452D01*
X191718774Y-109800925D01*
X191643647Y-109578959D01*
X191604148Y-109345099D01*
X191602513Y-109102894D01*
X191640233Y-108859040D01*
X191671643Y-108760201D01*
X191721457Y-108641139D01*
X191782790Y-108515581D01*
X191848753Y-108397252D01*
X191912461Y-108299877D01*
X191935979Y-108269617D01*
X192115041Y-108086032D01*
X192314933Y-107938709D01*
X192533378Y-107828716D01*
X192768102Y-107757122D01*
X193016828Y-107724996D01*
X193099267Y-107723227D01*
X193278641Y-107731308D01*
G36*
X125765819Y-79759399D02*
X125858890Y-79762220D01*
X125930988Y-79768548D01*
X125992790Y-79779710D01*
X126054973Y-79797036D01*
X126117350Y-79818039D01*
X126350079Y-79921228D01*
X126558804Y-80058233D01*
X126740940Y-80226352D01*
X126893899Y-80422886D01*
X127015097Y-80645134D01*
X127083585Y-80827034D01*
X127105868Y-80906291D01*
X127120272Y-80980932D01*
X127128251Y-81063867D01*
X127131259Y-81168006D01*
X127131256Y-81250367D01*
X127129154Y-81372555D01*
X127123500Y-81465654D01*
X127112544Y-81542872D01*
X127094537Y-81617415D01*
X127073785Y-81684284D01*
X126995243Y-81880859D01*
X126893695Y-82056255D01*
X126761610Y-82222497D01*
X126689123Y-82298605D01*
X126498413Y-82462095D01*
X126290461Y-82587291D01*
X126063021Y-82675485D01*
X126008908Y-82690367D01*
X125837171Y-82720591D01*
X125646919Y-82731237D01*
X125456160Y-82722328D01*
X125282902Y-82693890D01*
X125264958Y-82689381D01*
X125033147Y-82607483D01*
X124820581Y-82488104D01*
X124626294Y-82330679D01*
X124593350Y-82298421D01*
X124463433Y-82156602D01*
X124363708Y-82020090D01*
X124286021Y-81876256D01*
X124230240Y-81735981D01*
X124166652Y-81491222D01*
X124144426Y-81245004D01*
X124163099Y-81001144D01*
X124222209Y-80763454D01*
X124321292Y-80535750D01*
X124389817Y-80420480D01*
X124542887Y-80224738D01*
X124726486Y-80057053D01*
X124937420Y-79919891D01*
X125172495Y-79815719D01*
X125173394Y-79815402D01*
X125241695Y-79792640D01*
X125302040Y-79776908D01*
X125364952Y-79766929D01*
X125440956Y-79761431D01*
X125540574Y-79759137D01*
X125641100Y-79758753D01*
X125765819Y-79759399D01*
X125765819Y-79759399D01*
G37*
X125765819Y-79759399D02*
X125858890Y-79762220D01*
X125930988Y-79768548D01*
X125992790Y-79779710D01*
X126054973Y-79797036D01*
X126117350Y-79818039D01*
X126350079Y-79921228D01*
X126558804Y-80058233D01*
X126740940Y-80226352D01*
X126893899Y-80422886D01*
X127015097Y-80645134D01*
X127083585Y-80827034D01*
X127105868Y-80906291D01*
X127120272Y-80980932D01*
X127128251Y-81063867D01*
X127131259Y-81168006D01*
X127131256Y-81250367D01*
X127129154Y-81372555D01*
X127123500Y-81465654D01*
X127112544Y-81542872D01*
X127094537Y-81617415D01*
X127073785Y-81684284D01*
X126995243Y-81880859D01*
X126893695Y-82056255D01*
X126761610Y-82222497D01*
X126689123Y-82298605D01*
X126498413Y-82462095D01*
X126290461Y-82587291D01*
X126063021Y-82675485D01*
X126008908Y-82690367D01*
X125837171Y-82720591D01*
X125646919Y-82731237D01*
X125456160Y-82722328D01*
X125282902Y-82693890D01*
X125264958Y-82689381D01*
X125033147Y-82607483D01*
X124820581Y-82488104D01*
X124626294Y-82330679D01*
X124593350Y-82298421D01*
X124463433Y-82156602D01*
X124363708Y-82020090D01*
X124286021Y-81876256D01*
X124230240Y-81735981D01*
X124166652Y-81491222D01*
X124144426Y-81245004D01*
X124163099Y-81001144D01*
X124222209Y-80763454D01*
X124321292Y-80535750D01*
X124389817Y-80420480D01*
X124542887Y-80224738D01*
X124726486Y-80057053D01*
X124937420Y-79919891D01*
X125172495Y-79815719D01*
X125173394Y-79815402D01*
X125241695Y-79792640D01*
X125302040Y-79776908D01*
X125364952Y-79766929D01*
X125440956Y-79761431D01*
X125540574Y-79759137D01*
X125641100Y-79758753D01*
X125765819Y-79759399D01*
G36*
X193437170Y-79777576D02*
X193648268Y-79834121D01*
X193814710Y-79905617D01*
X194032872Y-80042770D01*
X194219190Y-80206797D01*
X194372152Y-80395205D01*
X194490247Y-80605499D01*
X194571962Y-80835184D01*
X194615787Y-81081765D01*
X194623267Y-81239784D01*
X194603298Y-81493492D01*
X194544787Y-81732445D01*
X194449821Y-81953763D01*
X194320491Y-82154567D01*
X194158886Y-82331978D01*
X193967097Y-82483117D01*
X193747213Y-82605104D01*
X193586100Y-82668794D01*
X193456344Y-82700627D01*
X193300319Y-82720353D01*
X193132434Y-82727598D01*
X192967094Y-82721992D01*
X192818704Y-82703162D01*
X192760600Y-82690089D01*
X192526516Y-82607794D01*
X192317855Y-82494869D01*
X192135467Y-82355155D01*
X191980200Y-82192495D01*
X191852903Y-82010729D01*
X191754426Y-81813698D01*
X191685617Y-81605243D01*
X191647326Y-81389205D01*
X191640401Y-81169426D01*
X191665691Y-80949745D01*
X191724045Y-80734006D01*
X191816313Y-80526048D01*
X191943342Y-80329712D01*
X192105983Y-80148840D01*
X192183631Y-80079647D01*
X192310503Y-79988690D01*
X192462173Y-79903214D01*
X192621504Y-79831790D01*
X192771361Y-79782990D01*
X192781767Y-79780474D01*
X192991966Y-79749304D01*
X193214418Y-79748821D01*
X193437170Y-79777576D01*
X193437170Y-79777576D01*
G37*
X193437170Y-79777576D02*
X193648268Y-79834121D01*
X193814710Y-79905617D01*
X194032872Y-80042770D01*
X194219190Y-80206797D01*
X194372152Y-80395205D01*
X194490247Y-80605499D01*
X194571962Y-80835184D01*
X194615787Y-81081765D01*
X194623267Y-81239784D01*
X194603298Y-81493492D01*
X194544787Y-81732445D01*
X194449821Y-81953763D01*
X194320491Y-82154567D01*
X194158886Y-82331978D01*
X193967097Y-82483117D01*
X193747213Y-82605104D01*
X193586100Y-82668794D01*
X193456344Y-82700627D01*
X193300319Y-82720353D01*
X193132434Y-82727598D01*
X192967094Y-82721992D01*
X192818704Y-82703162D01*
X192760600Y-82690089D01*
X192526516Y-82607794D01*
X192317855Y-82494869D01*
X192135467Y-82355155D01*
X191980200Y-82192495D01*
X191852903Y-82010729D01*
X191754426Y-81813698D01*
X191685617Y-81605243D01*
X191647326Y-81389205D01*
X191640401Y-81169426D01*
X191665691Y-80949745D01*
X191724045Y-80734006D01*
X191816313Y-80526048D01*
X191943342Y-80329712D01*
X192105983Y-80148840D01*
X192183631Y-80079647D01*
X192310503Y-79988690D01*
X192462173Y-79903214D01*
X192621504Y-79831790D01*
X192771361Y-79782990D01*
X192781767Y-79780474D01*
X192991966Y-79749304D01*
X193214418Y-79748821D01*
X193437170Y-79777576D01*
G36*
X145454499Y-60026388D02*
X145639877Y-60052335D01*
X145823846Y-60106883D01*
X146003434Y-60184711D01*
X146206429Y-60306743D01*
X146388085Y-60462308D01*
X146543852Y-60646078D01*
X146669180Y-60852726D01*
X146756198Y-61066304D01*
X146810928Y-61306422D01*
X146825076Y-61547895D01*
X146800004Y-61786335D01*
X146737072Y-62017351D01*
X146637641Y-62236557D01*
X146503071Y-62439561D01*
X146334723Y-62621974D01*
X146251817Y-62693366D01*
X146052851Y-62826485D01*
X145833015Y-62925502D01*
X145598773Y-62988643D01*
X145356591Y-63014131D01*
X145127636Y-63002192D01*
X144906256Y-62956920D01*
X144703150Y-62879889D01*
X144512164Y-62767938D01*
X144327139Y-62617904D01*
X144267045Y-62560200D01*
X144174546Y-62464070D01*
X144105530Y-62381115D01*
X144050244Y-62298294D01*
X143998929Y-62202566D01*
X143997845Y-62200367D01*
X143924809Y-62037381D01*
X143876340Y-61889323D01*
X143848597Y-61739737D01*
X143837737Y-61572168D01*
X143837199Y-61512450D01*
X143844626Y-61330120D01*
X143868859Y-61171794D01*
X143913611Y-61021220D01*
X143982596Y-60862143D01*
X143988487Y-60850152D01*
X144117358Y-60635278D01*
X144275755Y-60449445D01*
X144460666Y-60294616D01*
X144669076Y-60172752D01*
X144897972Y-60085816D01*
X145144341Y-60035769D01*
X145253963Y-60026131D01*
X145454499Y-60026388D01*
X145454499Y-60026388D01*
G37*
X145454499Y-60026388D02*
X145639877Y-60052335D01*
X145823846Y-60106883D01*
X146003434Y-60184711D01*
X146206429Y-60306743D01*
X146388085Y-60462308D01*
X146543852Y-60646078D01*
X146669180Y-60852726D01*
X146756198Y-61066304D01*
X146810928Y-61306422D01*
X146825076Y-61547895D01*
X146800004Y-61786335D01*
X146737072Y-62017351D01*
X146637641Y-62236557D01*
X146503071Y-62439561D01*
X146334723Y-62621974D01*
X146251817Y-62693366D01*
X146052851Y-62826485D01*
X145833015Y-62925502D01*
X145598773Y-62988643D01*
X145356591Y-63014131D01*
X145127636Y-63002192D01*
X144906256Y-62956920D01*
X144703150Y-62879889D01*
X144512164Y-62767938D01*
X144327139Y-62617904D01*
X144267045Y-62560200D01*
X144174546Y-62464070D01*
X144105530Y-62381115D01*
X144050244Y-62298294D01*
X143998929Y-62202566D01*
X143997845Y-62200367D01*
X143924809Y-62037381D01*
X143876340Y-61889323D01*
X143848597Y-61739737D01*
X143837737Y-61572168D01*
X143837199Y-61512450D01*
X143844626Y-61330120D01*
X143868859Y-61171794D01*
X143913611Y-61021220D01*
X143982596Y-60862143D01*
X143988487Y-60850152D01*
X144117358Y-60635278D01*
X144275755Y-60449445D01*
X144460666Y-60294616D01*
X144669076Y-60172752D01*
X144897972Y-60085816D01*
X145144341Y-60035769D01*
X145253963Y-60026131D01*
X145454499Y-60026388D01*
G36*
X173636709Y-60059206D02*
X173873319Y-60129756D01*
X174088870Y-60236574D01*
X174281830Y-60378635D01*
X174450670Y-60554914D01*
X174593859Y-60764388D01*
X174653923Y-60878276D01*
X174741697Y-61106420D01*
X174789761Y-61339665D01*
X174799692Y-61573759D01*
X174773067Y-61804450D01*
X174711463Y-62027486D01*
X174616456Y-62238616D01*
X174489625Y-62433587D01*
X174332546Y-62608147D01*
X174146796Y-62758045D01*
X173933952Y-62879027D01*
X173907378Y-62891085D01*
X173724764Y-62954886D01*
X173522787Y-62996625D01*
X173318057Y-63013899D01*
X173127186Y-63004302D01*
X173126147Y-63004163D01*
X172988285Y-62981382D01*
X172868991Y-62950517D01*
X172749176Y-62905764D01*
X172641684Y-62856810D01*
X172437027Y-62735722D01*
X172256217Y-62582759D01*
X172102088Y-62402794D01*
X171977470Y-62200700D01*
X171885197Y-61981352D01*
X171828099Y-61749621D01*
X171809009Y-61510383D01*
X171811660Y-61428527D01*
X171845472Y-61183705D01*
X171916467Y-60956757D01*
X172025865Y-60745038D01*
X172174888Y-60545903D01*
X172262128Y-60452734D01*
X172453478Y-60289944D01*
X172663036Y-60165121D01*
X172888827Y-60079016D01*
X173128874Y-60032385D01*
X173380571Y-60025948D01*
X173636709Y-60059206D01*
X173636709Y-60059206D01*
G37*
X173636709Y-60059206D02*
X173873319Y-60129756D01*
X174088870Y-60236574D01*
X174281830Y-60378635D01*
X174450670Y-60554914D01*
X174593859Y-60764388D01*
X174653923Y-60878276D01*
X174741697Y-61106420D01*
X174789761Y-61339665D01*
X174799692Y-61573759D01*
X174773067Y-61804450D01*
X174711463Y-62027486D01*
X174616456Y-62238616D01*
X174489625Y-62433587D01*
X174332546Y-62608147D01*
X174146796Y-62758045D01*
X173933952Y-62879027D01*
X173907378Y-62891085D01*
X173724764Y-62954886D01*
X173522787Y-62996625D01*
X173318057Y-63013899D01*
X173127186Y-63004302D01*
X173126147Y-63004163D01*
X172988285Y-62981382D01*
X172868991Y-62950517D01*
X172749176Y-62905764D01*
X172641684Y-62856810D01*
X172437027Y-62735722D01*
X172256217Y-62582759D01*
X172102088Y-62402794D01*
X171977470Y-62200700D01*
X171885197Y-61981352D01*
X171828099Y-61749621D01*
X171809009Y-61510383D01*
X171811660Y-61428527D01*
X171845472Y-61183705D01*
X171916467Y-60956757D01*
X172025865Y-60745038D01*
X172174888Y-60545903D01*
X172262128Y-60452734D01*
X172453478Y-60289944D01*
X172663036Y-60165121D01*
X172888827Y-60079016D01*
X173128874Y-60032385D01*
X173380571Y-60025948D01*
X173636709Y-60059206D01*
D12*
X159593090Y-50917872D03*
D13*
X145454201Y-117511229D03*
X174814201Y-117511229D03*
D14*
X143452601Y-128933800D03*
X147452601Y-128933800D03*
X171424201Y-128933800D03*
X175424201Y-128933800D03*
X123640601Y-109113000D03*
X127640601Y-109113000D03*
X175276199Y-61422600D03*
X171276199Y-61422600D03*
X195154799Y-81167200D03*
X191154799Y-81167200D03*
X195095799Y-109137400D03*
X191095799Y-109137400D03*
X123613801Y-81210200D03*
X127613801Y-81210200D03*
X143341401Y-61522200D03*
X147341401Y-61522200D03*
D15*
X174794800Y-107371601D03*
X174794800Y-110071601D03*
D16*
X193008999Y-95534200D03*
X190308999Y-95534200D03*
D17*
X178615600Y-102258799D03*
D18*
X178615600Y-87258799D03*
D19*
X157671381Y-99286999D03*
X157671381Y-98016999D03*
X157671381Y-96746999D03*
X157671381Y-95476999D03*
X157671381Y-94206999D03*
X157671381Y-92936999D03*
X157671381Y-91666999D03*
X157671381Y-90396999D03*
X162395781Y-90396999D03*
X162395781Y-91666999D03*
X162395781Y-92936999D03*
X162395781Y-94206999D03*
X162395781Y-95476999D03*
X162395781Y-96746999D03*
X162395781Y-98016999D03*
X162395781Y-99286999D03*
D20*
X161149601Y-135585601D03*
D21*
X161149601Y-138125601D03*
X158609601Y-135585601D03*
X158609601Y-138125601D03*
D20*
X120149201Y-93828001D03*
D21*
X120149201Y-96368001D03*
X117609201Y-93828001D03*
X117609201Y-96368001D03*
D20*
X202135601Y-93523201D03*
D21*
X202135601Y-96063201D03*
X199595601Y-93523201D03*
X199595601Y-96063201D03*
D22*
X137357164Y-119975081D03*
X137357164Y-117475081D03*
X137357164Y-114975081D03*
X131857164Y-114975081D03*
X131857164Y-117475081D03*
X131857164Y-119975081D03*
M02*
