G04 #@! TF.FileFunction,Copper,L1,Top,Signal*
%FSLAX46Y46*%
G04 Gerber Fmt 4.6, Leading zero omitted, Abs format (unit mm)*
G04 Created by KiCad (PCBNEW 4.0.7) date 07/18/18 17:21:38*
%MOMM*%
%LPD*%
G01*
G04 APERTURE LIST*
%ADD10C,0.100000*%
%ADD11C,0.010000*%
%ADD12C,5.147986*%
%ADD13R,2.000000X2.000000*%
%ADD14O,2.000000X2.000000*%
%ADD15C,1.700000*%
%ADD16O,1.700000X1.700000*%
%ADD17C,0.600000*%
%ADD18C,0.250000*%
G04 APERTURE END LIST*
D10*
D11*
G36*
X160763765Y-45731775D02*
X162201133Y-45792217D01*
X163634500Y-45893887D01*
X165062939Y-46036669D01*
X166485524Y-46220452D01*
X167901327Y-46445121D01*
X169309421Y-46710563D01*
X170708881Y-47016664D01*
X172098778Y-47363311D01*
X173478187Y-47750390D01*
X174846180Y-48177787D01*
X176201830Y-48645390D01*
X176935895Y-48917409D01*
X178271821Y-49447286D01*
X179590589Y-50015624D01*
X180891354Y-50621818D01*
X182173267Y-51265264D01*
X183435484Y-51945358D01*
X184677158Y-52661496D01*
X185897444Y-53413073D01*
X187095494Y-54199487D01*
X188270463Y-55020131D01*
X189421505Y-55874404D01*
X190547773Y-56761699D01*
X191648421Y-57681414D01*
X192722604Y-58632944D01*
X193769474Y-59615685D01*
X194788186Y-60629033D01*
X195777894Y-61672383D01*
X196737752Y-62745132D01*
X197408634Y-63533867D01*
X198321144Y-64662538D01*
X199197923Y-65813509D01*
X200038686Y-66986058D01*
X200843144Y-68179462D01*
X201611011Y-69392999D01*
X202341999Y-70625945D01*
X203035822Y-71877578D01*
X203692192Y-73147176D01*
X204310822Y-74434016D01*
X204891424Y-75737375D01*
X205433713Y-77056530D01*
X205937400Y-78390760D01*
X206402199Y-79739342D01*
X206827822Y-81101552D01*
X207213982Y-82476668D01*
X207560392Y-83863968D01*
X207866765Y-85262729D01*
X208132813Y-86672229D01*
X208358251Y-88091744D01*
X208542789Y-89520552D01*
X208686142Y-90957931D01*
X208771995Y-92130034D01*
X208789301Y-92418983D01*
X208804160Y-92684847D01*
X208816744Y-92933947D01*
X208827227Y-93172604D01*
X208835782Y-93407142D01*
X208842583Y-93643882D01*
X208847801Y-93889146D01*
X208851612Y-94149257D01*
X208854187Y-94430536D01*
X208855700Y-94739307D01*
X208856325Y-95081890D01*
X208856365Y-95209784D01*
X208856009Y-95565573D01*
X208854823Y-95885357D01*
X208852636Y-96175457D01*
X208849274Y-96442195D01*
X208844563Y-96691893D01*
X208838331Y-96930874D01*
X208830404Y-97165459D01*
X208820610Y-97401971D01*
X208808774Y-97646732D01*
X208794724Y-97906064D01*
X208778286Y-98186290D01*
X208771995Y-98289534D01*
X208662217Y-99733963D01*
X208510956Y-101170630D01*
X208318474Y-102598815D01*
X208085031Y-104017800D01*
X207810888Y-105426865D01*
X207496306Y-106825291D01*
X207141546Y-108212360D01*
X206746868Y-109587352D01*
X206312534Y-110949549D01*
X205838804Y-112298231D01*
X205325939Y-113632680D01*
X204774200Y-114952177D01*
X204183848Y-116256002D01*
X203555143Y-117543437D01*
X202888347Y-118813763D01*
X202183720Y-120066261D01*
X201441523Y-121300211D01*
X200662017Y-122514896D01*
X199845462Y-123709595D01*
X199250063Y-124536200D01*
X198377181Y-125686769D01*
X197471488Y-126810813D01*
X196533715Y-127907634D01*
X195564593Y-128976536D01*
X194564854Y-130016820D01*
X193535227Y-131027789D01*
X192476445Y-132008745D01*
X191389238Y-132958990D01*
X190274338Y-133877827D01*
X189132476Y-134764559D01*
X187964382Y-135618486D01*
X186791600Y-136425041D01*
X185577755Y-137209212D01*
X184344244Y-137956028D01*
X183091809Y-138665223D01*
X181821190Y-139336529D01*
X180533131Y-139969681D01*
X179228373Y-140564413D01*
X177907658Y-141120459D01*
X176571727Y-141637552D01*
X175221323Y-142115427D01*
X173857186Y-142553817D01*
X172480060Y-142952456D01*
X171090685Y-143311077D01*
X169689804Y-143629415D01*
X168278158Y-143907204D01*
X166856490Y-144144177D01*
X165425540Y-144340069D01*
X164418434Y-144452639D01*
X163433366Y-144541692D01*
X162422133Y-144612087D01*
X161396794Y-144663359D01*
X160369407Y-144695041D01*
X159352033Y-144706668D01*
X158356730Y-144697774D01*
X158174267Y-144693801D01*
X156727737Y-144638302D01*
X155286909Y-144541138D01*
X153852591Y-144402554D01*
X152425586Y-144222795D01*
X151006702Y-144002107D01*
X149596743Y-143740736D01*
X148196516Y-143438926D01*
X146806827Y-143096924D01*
X145428481Y-142714974D01*
X144062283Y-142293323D01*
X142709041Y-141832215D01*
X141369559Y-141331896D01*
X140044644Y-140792612D01*
X138735101Y-140214608D01*
X137441736Y-139598130D01*
X136165355Y-138943422D01*
X134906763Y-138250731D01*
X133666766Y-137520301D01*
X132753100Y-136950190D01*
X131545726Y-136153323D01*
X130362879Y-135322205D01*
X129205333Y-134457568D01*
X128073864Y-133560142D01*
X126969247Y-132630658D01*
X125892258Y-131669847D01*
X124843672Y-130678438D01*
X123824264Y-129657163D01*
X122834809Y-128606752D01*
X121876082Y-127527935D01*
X120948859Y-126421444D01*
X120053915Y-125288008D01*
X119287987Y-124261034D01*
X118455743Y-123078602D01*
X117660170Y-121875358D01*
X116901548Y-120652088D01*
X116180153Y-119409576D01*
X115496266Y-118148608D01*
X114850164Y-116869969D01*
X114242126Y-115574446D01*
X113672431Y-114262823D01*
X113141357Y-112935886D01*
X112649183Y-111594421D01*
X112196187Y-110239212D01*
X111782648Y-108871047D01*
X111408845Y-107490709D01*
X111075055Y-106098985D01*
X110781558Y-104696661D01*
X110528633Y-103284520D01*
X110316557Y-101863350D01*
X110145609Y-100433936D01*
X110016068Y-98997062D01*
X109946475Y-97919117D01*
X109889237Y-96462792D01*
X109873853Y-95010027D01*
X109879609Y-94693459D01*
X111640169Y-94693459D01*
X111646240Y-96121138D01*
X111672146Y-97040700D01*
X111746492Y-98465086D01*
X111862220Y-99881948D01*
X112019099Y-101290583D01*
X112216898Y-102690290D01*
X112455386Y-104080366D01*
X112734334Y-105460108D01*
X113053509Y-106828815D01*
X113412683Y-108185783D01*
X113811623Y-109530311D01*
X114250100Y-110861696D01*
X114727882Y-112179235D01*
X115244739Y-113482227D01*
X115800440Y-114769969D01*
X116394755Y-116041758D01*
X117027454Y-117296893D01*
X117698304Y-118534670D01*
X118407076Y-119754388D01*
X119153539Y-120955344D01*
X119891952Y-122070284D01*
X120706862Y-123226929D01*
X121556091Y-124359782D01*
X122438561Y-125467728D01*
X123353194Y-126549652D01*
X124298909Y-127604441D01*
X125274630Y-128630978D01*
X126279277Y-129628150D01*
X127311771Y-130594841D01*
X128371034Y-131529938D01*
X129455988Y-132432326D01*
X130565554Y-133300889D01*
X131259371Y-133817540D01*
X132421308Y-134640320D01*
X133602770Y-135425618D01*
X134803273Y-136173229D01*
X136022332Y-136882951D01*
X137259465Y-137554579D01*
X138514186Y-138187909D01*
X139786011Y-138782737D01*
X141074457Y-139338859D01*
X142379038Y-139856072D01*
X143699272Y-140334170D01*
X145034674Y-140772950D01*
X146384760Y-141172209D01*
X147749045Y-141531741D01*
X149127046Y-141851344D01*
X150518279Y-142130812D01*
X151326850Y-142273726D01*
X151791640Y-142349962D01*
X152239352Y-142419415D01*
X152677175Y-142482967D01*
X153112298Y-142541495D01*
X153551912Y-142595881D01*
X154003206Y-142647002D01*
X154473369Y-142695738D01*
X154969592Y-142742969D01*
X155499063Y-142789573D01*
X155644850Y-142801846D01*
X155857935Y-142818194D01*
X156106600Y-142834805D01*
X156384097Y-142851361D01*
X156683675Y-142867545D01*
X156998586Y-142883038D01*
X157322080Y-142897522D01*
X157647409Y-142910680D01*
X157967824Y-142922191D01*
X158276574Y-142931740D01*
X158544684Y-142938521D01*
X158675754Y-142940456D01*
X158842823Y-142941391D01*
X159039569Y-142941397D01*
X159259670Y-142940546D01*
X159496805Y-142938911D01*
X159744651Y-142936564D01*
X159996889Y-142933578D01*
X160247195Y-142930024D01*
X160489249Y-142925975D01*
X160716729Y-142921502D01*
X160923313Y-142916679D01*
X161102680Y-142911577D01*
X161201100Y-142908168D01*
X162632360Y-142833146D01*
X164054882Y-142717077D01*
X165468084Y-142560134D01*
X166871381Y-142362489D01*
X168264190Y-142124316D01*
X169645927Y-141845788D01*
X171016007Y-141527079D01*
X172373847Y-141168360D01*
X173718863Y-140769805D01*
X175050472Y-140331588D01*
X176368088Y-139853881D01*
X177671130Y-139336858D01*
X178959011Y-138780691D01*
X180231150Y-138185554D01*
X181486961Y-137551619D01*
X182725861Y-136879060D01*
X183947266Y-136168050D01*
X183955267Y-136163230D01*
X185150641Y-135418374D01*
X186324174Y-134637590D01*
X187474932Y-133821762D01*
X188601981Y-132971774D01*
X189704386Y-132088509D01*
X190781213Y-131172851D01*
X191831528Y-130225683D01*
X192854396Y-129247889D01*
X193848883Y-128240352D01*
X194814055Y-127203956D01*
X195748976Y-126139585D01*
X196652714Y-125048121D01*
X197524333Y-123930448D01*
X198362899Y-122787450D01*
X198870424Y-122059700D01*
X199628095Y-120914972D01*
X200354972Y-119742621D01*
X201049418Y-118545718D01*
X201709793Y-117327335D01*
X202334460Y-116090542D01*
X202921779Y-114838411D01*
X203470112Y-113574012D01*
X203705687Y-112996902D01*
X204210181Y-111679632D01*
X204674635Y-110348784D01*
X205098931Y-109004861D01*
X205482954Y-107648367D01*
X205826584Y-106279804D01*
X206129706Y-104899675D01*
X206392202Y-103508483D01*
X206613954Y-102106732D01*
X206794846Y-100694925D01*
X206934761Y-99273564D01*
X206952004Y-99062117D01*
X207024012Y-97989836D01*
X207072261Y-96892676D01*
X207096656Y-95780863D01*
X207097101Y-94664620D01*
X207073500Y-93554170D01*
X207025759Y-92459738D01*
X207015365Y-92278200D01*
X206910177Y-90858331D01*
X206763384Y-89445192D01*
X206575131Y-88039481D01*
X206345565Y-86641895D01*
X206074833Y-85253132D01*
X205763082Y-83873889D01*
X205410457Y-82504864D01*
X205017106Y-81146755D01*
X204583175Y-79800259D01*
X204120217Y-78496733D01*
X203612125Y-77190251D01*
X203065447Y-75900669D01*
X202480734Y-74628754D01*
X201858537Y-73375269D01*
X201199409Y-72140979D01*
X200503899Y-70926651D01*
X199772561Y-69733050D01*
X199005944Y-68560939D01*
X198204601Y-67411085D01*
X197369082Y-66284253D01*
X196499940Y-65181207D01*
X195597726Y-64102714D01*
X194662990Y-63049537D01*
X193696285Y-62022443D01*
X192698162Y-61022196D01*
X191669172Y-60049561D01*
X190609867Y-59105304D01*
X189520798Y-58190190D01*
X189437434Y-58122347D01*
X188325979Y-57246920D01*
X187190192Y-56405662D01*
X186031044Y-55599091D01*
X184849511Y-54827724D01*
X183646567Y-54092078D01*
X182423185Y-53392672D01*
X181180340Y-52730023D01*
X179919006Y-52104648D01*
X178640158Y-51517064D01*
X177344769Y-50967791D01*
X176033813Y-50457344D01*
X174708265Y-49986241D01*
X173369099Y-49555001D01*
X173234350Y-49514053D01*
X171879798Y-49126723D01*
X170513799Y-48779916D01*
X169137485Y-48473737D01*
X167751983Y-48208285D01*
X166358425Y-47983663D01*
X164957938Y-47799974D01*
X163551654Y-47657318D01*
X162140701Y-47555799D01*
X160726210Y-47495517D01*
X159309309Y-47476576D01*
X157891129Y-47499076D01*
X156472798Y-47563120D01*
X155055447Y-47668809D01*
X153983267Y-47776639D01*
X152582551Y-47954442D01*
X151188976Y-48173608D01*
X149803600Y-48433798D01*
X148427484Y-48734670D01*
X147061687Y-49075884D01*
X145707269Y-49457099D01*
X144365290Y-49877975D01*
X143036809Y-50338171D01*
X141722887Y-50837347D01*
X140424583Y-51375161D01*
X139142957Y-51951273D01*
X137879068Y-52565343D01*
X136633977Y-53217030D01*
X136044517Y-53542430D01*
X134825897Y-54250733D01*
X133627736Y-54995505D01*
X132451260Y-55775750D01*
X131297694Y-56590468D01*
X130168264Y-57438661D01*
X129064196Y-58319332D01*
X127986715Y-59231483D01*
X126937046Y-60174115D01*
X125916416Y-61146230D01*
X124926050Y-62146831D01*
X123967173Y-63174919D01*
X123320661Y-63904284D01*
X122403508Y-64992772D01*
X121520155Y-66105744D01*
X120671204Y-67242265D01*
X119857256Y-68401398D01*
X119078910Y-69582208D01*
X118336769Y-70783759D01*
X117631432Y-72005115D01*
X116963501Y-73245341D01*
X116333577Y-74503501D01*
X115851497Y-75535367D01*
X115289215Y-76829353D01*
X114766568Y-78137840D01*
X114283703Y-79460065D01*
X113840768Y-80795268D01*
X113437912Y-82142686D01*
X113075283Y-83501557D01*
X112753028Y-84871120D01*
X112471296Y-86250614D01*
X112230235Y-87639276D01*
X112029992Y-89036346D01*
X111870716Y-90441060D01*
X111752555Y-91852659D01*
X111675657Y-93270379D01*
X111640169Y-94693459D01*
X109879609Y-94693459D01*
X109900195Y-93561515D01*
X109968134Y-92117945D01*
X110077542Y-90680009D01*
X110228290Y-89248398D01*
X110420251Y-87823803D01*
X110653297Y-86406916D01*
X110927298Y-84998426D01*
X111242127Y-83599026D01*
X111597657Y-82209407D01*
X111993757Y-80830260D01*
X112430301Y-79462275D01*
X112907160Y-78106144D01*
X113424205Y-76762557D01*
X113981310Y-75432207D01*
X114216942Y-74900367D01*
X114826696Y-73597087D01*
X115473664Y-72313562D01*
X116157234Y-71050547D01*
X116876792Y-69808795D01*
X117631722Y-68589061D01*
X118421412Y-67392099D01*
X119245248Y-66218661D01*
X120102615Y-65069502D01*
X120992899Y-63945377D01*
X121915487Y-62847038D01*
X122869765Y-61775240D01*
X123855119Y-60730736D01*
X124870934Y-59714282D01*
X125916597Y-58726629D01*
X126991494Y-57768533D01*
X128095012Y-56840747D01*
X129226535Y-55944025D01*
X130320180Y-55126452D01*
X131498045Y-54296870D01*
X132697678Y-53503328D01*
X133918204Y-52746167D01*
X135158751Y-52025730D01*
X136418442Y-51342357D01*
X137696406Y-50696390D01*
X138991766Y-50088171D01*
X140303649Y-49518042D01*
X141631181Y-48986342D01*
X142973487Y-48493415D01*
X144329694Y-48039602D01*
X145698927Y-47625243D01*
X147080312Y-47250681D01*
X148472975Y-46916258D01*
X149876042Y-46622314D01*
X151288638Y-46369191D01*
X152709889Y-46157230D01*
X153549350Y-46051944D01*
X154992820Y-45904547D01*
X156436923Y-45798946D01*
X157880733Y-45735026D01*
X159323323Y-45712673D01*
X160763765Y-45731775D01*
X160763765Y-45731775D01*
G37*
X160763765Y-45731775D02*
X162201133Y-45792217D01*
X163634500Y-45893887D01*
X165062939Y-46036669D01*
X166485524Y-46220452D01*
X167901327Y-46445121D01*
X169309421Y-46710563D01*
X170708881Y-47016664D01*
X172098778Y-47363311D01*
X173478187Y-47750390D01*
X174846180Y-48177787D01*
X176201830Y-48645390D01*
X176935895Y-48917409D01*
X178271821Y-49447286D01*
X179590589Y-50015624D01*
X180891354Y-50621818D01*
X182173267Y-51265264D01*
X183435484Y-51945358D01*
X184677158Y-52661496D01*
X185897444Y-53413073D01*
X187095494Y-54199487D01*
X188270463Y-55020131D01*
X189421505Y-55874404D01*
X190547773Y-56761699D01*
X191648421Y-57681414D01*
X192722604Y-58632944D01*
X193769474Y-59615685D01*
X194788186Y-60629033D01*
X195777894Y-61672383D01*
X196737752Y-62745132D01*
X197408634Y-63533867D01*
X198321144Y-64662538D01*
X199197923Y-65813509D01*
X200038686Y-66986058D01*
X200843144Y-68179462D01*
X201611011Y-69392999D01*
X202341999Y-70625945D01*
X203035822Y-71877578D01*
X203692192Y-73147176D01*
X204310822Y-74434016D01*
X204891424Y-75737375D01*
X205433713Y-77056530D01*
X205937400Y-78390760D01*
X206402199Y-79739342D01*
X206827822Y-81101552D01*
X207213982Y-82476668D01*
X207560392Y-83863968D01*
X207866765Y-85262729D01*
X208132813Y-86672229D01*
X208358251Y-88091744D01*
X208542789Y-89520552D01*
X208686142Y-90957931D01*
X208771995Y-92130034D01*
X208789301Y-92418983D01*
X208804160Y-92684847D01*
X208816744Y-92933947D01*
X208827227Y-93172604D01*
X208835782Y-93407142D01*
X208842583Y-93643882D01*
X208847801Y-93889146D01*
X208851612Y-94149257D01*
X208854187Y-94430536D01*
X208855700Y-94739307D01*
X208856325Y-95081890D01*
X208856365Y-95209784D01*
X208856009Y-95565573D01*
X208854823Y-95885357D01*
X208852636Y-96175457D01*
X208849274Y-96442195D01*
X208844563Y-96691893D01*
X208838331Y-96930874D01*
X208830404Y-97165459D01*
X208820610Y-97401971D01*
X208808774Y-97646732D01*
X208794724Y-97906064D01*
X208778286Y-98186290D01*
X208771995Y-98289534D01*
X208662217Y-99733963D01*
X208510956Y-101170630D01*
X208318474Y-102598815D01*
X208085031Y-104017800D01*
X207810888Y-105426865D01*
X207496306Y-106825291D01*
X207141546Y-108212360D01*
X206746868Y-109587352D01*
X206312534Y-110949549D01*
X205838804Y-112298231D01*
X205325939Y-113632680D01*
X204774200Y-114952177D01*
X204183848Y-116256002D01*
X203555143Y-117543437D01*
X202888347Y-118813763D01*
X202183720Y-120066261D01*
X201441523Y-121300211D01*
X200662017Y-122514896D01*
X199845462Y-123709595D01*
X199250063Y-124536200D01*
X198377181Y-125686769D01*
X197471488Y-126810813D01*
X196533715Y-127907634D01*
X195564593Y-128976536D01*
X194564854Y-130016820D01*
X193535227Y-131027789D01*
X192476445Y-132008745D01*
X191389238Y-132958990D01*
X190274338Y-133877827D01*
X189132476Y-134764559D01*
X187964382Y-135618486D01*
X186791600Y-136425041D01*
X185577755Y-137209212D01*
X184344244Y-137956028D01*
X183091809Y-138665223D01*
X181821190Y-139336529D01*
X180533131Y-139969681D01*
X179228373Y-140564413D01*
X177907658Y-141120459D01*
X176571727Y-141637552D01*
X175221323Y-142115427D01*
X173857186Y-142553817D01*
X172480060Y-142952456D01*
X171090685Y-143311077D01*
X169689804Y-143629415D01*
X168278158Y-143907204D01*
X166856490Y-144144177D01*
X165425540Y-144340069D01*
X164418434Y-144452639D01*
X163433366Y-144541692D01*
X162422133Y-144612087D01*
X161396794Y-144663359D01*
X160369407Y-144695041D01*
X159352033Y-144706668D01*
X158356730Y-144697774D01*
X158174267Y-144693801D01*
X156727737Y-144638302D01*
X155286909Y-144541138D01*
X153852591Y-144402554D01*
X152425586Y-144222795D01*
X151006702Y-144002107D01*
X149596743Y-143740736D01*
X148196516Y-143438926D01*
X146806827Y-143096924D01*
X145428481Y-142714974D01*
X144062283Y-142293323D01*
X142709041Y-141832215D01*
X141369559Y-141331896D01*
X140044644Y-140792612D01*
X138735101Y-140214608D01*
X137441736Y-139598130D01*
X136165355Y-138943422D01*
X134906763Y-138250731D01*
X133666766Y-137520301D01*
X132753100Y-136950190D01*
X131545726Y-136153323D01*
X130362879Y-135322205D01*
X129205333Y-134457568D01*
X128073864Y-133560142D01*
X126969247Y-132630658D01*
X125892258Y-131669847D01*
X124843672Y-130678438D01*
X123824264Y-129657163D01*
X122834809Y-128606752D01*
X121876082Y-127527935D01*
X120948859Y-126421444D01*
X120053915Y-125288008D01*
X119287987Y-124261034D01*
X118455743Y-123078602D01*
X117660170Y-121875358D01*
X116901548Y-120652088D01*
X116180153Y-119409576D01*
X115496266Y-118148608D01*
X114850164Y-116869969D01*
X114242126Y-115574446D01*
X113672431Y-114262823D01*
X113141357Y-112935886D01*
X112649183Y-111594421D01*
X112196187Y-110239212D01*
X111782648Y-108871047D01*
X111408845Y-107490709D01*
X111075055Y-106098985D01*
X110781558Y-104696661D01*
X110528633Y-103284520D01*
X110316557Y-101863350D01*
X110145609Y-100433936D01*
X110016068Y-98997062D01*
X109946475Y-97919117D01*
X109889237Y-96462792D01*
X109873853Y-95010027D01*
X109879609Y-94693459D01*
X111640169Y-94693459D01*
X111646240Y-96121138D01*
X111672146Y-97040700D01*
X111746492Y-98465086D01*
X111862220Y-99881948D01*
X112019099Y-101290583D01*
X112216898Y-102690290D01*
X112455386Y-104080366D01*
X112734334Y-105460108D01*
X113053509Y-106828815D01*
X113412683Y-108185783D01*
X113811623Y-109530311D01*
X114250100Y-110861696D01*
X114727882Y-112179235D01*
X115244739Y-113482227D01*
X115800440Y-114769969D01*
X116394755Y-116041758D01*
X117027454Y-117296893D01*
X117698304Y-118534670D01*
X118407076Y-119754388D01*
X119153539Y-120955344D01*
X119891952Y-122070284D01*
X120706862Y-123226929D01*
X121556091Y-124359782D01*
X122438561Y-125467728D01*
X123353194Y-126549652D01*
X124298909Y-127604441D01*
X125274630Y-128630978D01*
X126279277Y-129628150D01*
X127311771Y-130594841D01*
X128371034Y-131529938D01*
X129455988Y-132432326D01*
X130565554Y-133300889D01*
X131259371Y-133817540D01*
X132421308Y-134640320D01*
X133602770Y-135425618D01*
X134803273Y-136173229D01*
X136022332Y-136882951D01*
X137259465Y-137554579D01*
X138514186Y-138187909D01*
X139786011Y-138782737D01*
X141074457Y-139338859D01*
X142379038Y-139856072D01*
X143699272Y-140334170D01*
X145034674Y-140772950D01*
X146384760Y-141172209D01*
X147749045Y-141531741D01*
X149127046Y-141851344D01*
X150518279Y-142130812D01*
X151326850Y-142273726D01*
X151791640Y-142349962D01*
X152239352Y-142419415D01*
X152677175Y-142482967D01*
X153112298Y-142541495D01*
X153551912Y-142595881D01*
X154003206Y-142647002D01*
X154473369Y-142695738D01*
X154969592Y-142742969D01*
X155499063Y-142789573D01*
X155644850Y-142801846D01*
X155857935Y-142818194D01*
X156106600Y-142834805D01*
X156384097Y-142851361D01*
X156683675Y-142867545D01*
X156998586Y-142883038D01*
X157322080Y-142897522D01*
X157647409Y-142910680D01*
X157967824Y-142922191D01*
X158276574Y-142931740D01*
X158544684Y-142938521D01*
X158675754Y-142940456D01*
X158842823Y-142941391D01*
X159039569Y-142941397D01*
X159259670Y-142940546D01*
X159496805Y-142938911D01*
X159744651Y-142936564D01*
X159996889Y-142933578D01*
X160247195Y-142930024D01*
X160489249Y-142925975D01*
X160716729Y-142921502D01*
X160923313Y-142916679D01*
X161102680Y-142911577D01*
X161201100Y-142908168D01*
X162632360Y-142833146D01*
X164054882Y-142717077D01*
X165468084Y-142560134D01*
X166871381Y-142362489D01*
X168264190Y-142124316D01*
X169645927Y-141845788D01*
X171016007Y-141527079D01*
X172373847Y-141168360D01*
X173718863Y-140769805D01*
X175050472Y-140331588D01*
X176368088Y-139853881D01*
X177671130Y-139336858D01*
X178959011Y-138780691D01*
X180231150Y-138185554D01*
X181486961Y-137551619D01*
X182725861Y-136879060D01*
X183947266Y-136168050D01*
X183955267Y-136163230D01*
X185150641Y-135418374D01*
X186324174Y-134637590D01*
X187474932Y-133821762D01*
X188601981Y-132971774D01*
X189704386Y-132088509D01*
X190781213Y-131172851D01*
X191831528Y-130225683D01*
X192854396Y-129247889D01*
X193848883Y-128240352D01*
X194814055Y-127203956D01*
X195748976Y-126139585D01*
X196652714Y-125048121D01*
X197524333Y-123930448D01*
X198362899Y-122787450D01*
X198870424Y-122059700D01*
X199628095Y-120914972D01*
X200354972Y-119742621D01*
X201049418Y-118545718D01*
X201709793Y-117327335D01*
X202334460Y-116090542D01*
X202921779Y-114838411D01*
X203470112Y-113574012D01*
X203705687Y-112996902D01*
X204210181Y-111679632D01*
X204674635Y-110348784D01*
X205098931Y-109004861D01*
X205482954Y-107648367D01*
X205826584Y-106279804D01*
X206129706Y-104899675D01*
X206392202Y-103508483D01*
X206613954Y-102106732D01*
X206794846Y-100694925D01*
X206934761Y-99273564D01*
X206952004Y-99062117D01*
X207024012Y-97989836D01*
X207072261Y-96892676D01*
X207096656Y-95780863D01*
X207097101Y-94664620D01*
X207073500Y-93554170D01*
X207025759Y-92459738D01*
X207015365Y-92278200D01*
X206910177Y-90858331D01*
X206763384Y-89445192D01*
X206575131Y-88039481D01*
X206345565Y-86641895D01*
X206074833Y-85253132D01*
X205763082Y-83873889D01*
X205410457Y-82504864D01*
X205017106Y-81146755D01*
X204583175Y-79800259D01*
X204120217Y-78496733D01*
X203612125Y-77190251D01*
X203065447Y-75900669D01*
X202480734Y-74628754D01*
X201858537Y-73375269D01*
X201199409Y-72140979D01*
X200503899Y-70926651D01*
X199772561Y-69733050D01*
X199005944Y-68560939D01*
X198204601Y-67411085D01*
X197369082Y-66284253D01*
X196499940Y-65181207D01*
X195597726Y-64102714D01*
X194662990Y-63049537D01*
X193696285Y-62022443D01*
X192698162Y-61022196D01*
X191669172Y-60049561D01*
X190609867Y-59105304D01*
X189520798Y-58190190D01*
X189437434Y-58122347D01*
X188325979Y-57246920D01*
X187190192Y-56405662D01*
X186031044Y-55599091D01*
X184849511Y-54827724D01*
X183646567Y-54092078D01*
X182423185Y-53392672D01*
X181180340Y-52730023D01*
X179919006Y-52104648D01*
X178640158Y-51517064D01*
X177344769Y-50967791D01*
X176033813Y-50457344D01*
X174708265Y-49986241D01*
X173369099Y-49555001D01*
X173234350Y-49514053D01*
X171879798Y-49126723D01*
X170513799Y-48779916D01*
X169137485Y-48473737D01*
X167751983Y-48208285D01*
X166358425Y-47983663D01*
X164957938Y-47799974D01*
X163551654Y-47657318D01*
X162140701Y-47555799D01*
X160726210Y-47495517D01*
X159309309Y-47476576D01*
X157891129Y-47499076D01*
X156472798Y-47563120D01*
X155055447Y-47668809D01*
X153983267Y-47776639D01*
X152582551Y-47954442D01*
X151188976Y-48173608D01*
X149803600Y-48433798D01*
X148427484Y-48734670D01*
X147061687Y-49075884D01*
X145707269Y-49457099D01*
X144365290Y-49877975D01*
X143036809Y-50338171D01*
X141722887Y-50837347D01*
X140424583Y-51375161D01*
X139142957Y-51951273D01*
X137879068Y-52565343D01*
X136633977Y-53217030D01*
X136044517Y-53542430D01*
X134825897Y-54250733D01*
X133627736Y-54995505D01*
X132451260Y-55775750D01*
X131297694Y-56590468D01*
X130168264Y-57438661D01*
X129064196Y-58319332D01*
X127986715Y-59231483D01*
X126937046Y-60174115D01*
X125916416Y-61146230D01*
X124926050Y-62146831D01*
X123967173Y-63174919D01*
X123320661Y-63904284D01*
X122403508Y-64992772D01*
X121520155Y-66105744D01*
X120671204Y-67242265D01*
X119857256Y-68401398D01*
X119078910Y-69582208D01*
X118336769Y-70783759D01*
X117631432Y-72005115D01*
X116963501Y-73245341D01*
X116333577Y-74503501D01*
X115851497Y-75535367D01*
X115289215Y-76829353D01*
X114766568Y-78137840D01*
X114283703Y-79460065D01*
X113840768Y-80795268D01*
X113437912Y-82142686D01*
X113075283Y-83501557D01*
X112753028Y-84871120D01*
X112471296Y-86250614D01*
X112230235Y-87639276D01*
X112029992Y-89036346D01*
X111870716Y-90441060D01*
X111752555Y-91852659D01*
X111675657Y-93270379D01*
X111640169Y-94693459D01*
X109879609Y-94693459D01*
X109900195Y-93561515D01*
X109968134Y-92117945D01*
X110077542Y-90680009D01*
X110228290Y-89248398D01*
X110420251Y-87823803D01*
X110653297Y-86406916D01*
X110927298Y-84998426D01*
X111242127Y-83599026D01*
X111597657Y-82209407D01*
X111993757Y-80830260D01*
X112430301Y-79462275D01*
X112907160Y-78106144D01*
X113424205Y-76762557D01*
X113981310Y-75432207D01*
X114216942Y-74900367D01*
X114826696Y-73597087D01*
X115473664Y-72313562D01*
X116157234Y-71050547D01*
X116876792Y-69808795D01*
X117631722Y-68589061D01*
X118421412Y-67392099D01*
X119245248Y-66218661D01*
X120102615Y-65069502D01*
X120992899Y-63945377D01*
X121915487Y-62847038D01*
X122869765Y-61775240D01*
X123855119Y-60730736D01*
X124870934Y-59714282D01*
X125916597Y-58726629D01*
X126991494Y-57768533D01*
X128095012Y-56840747D01*
X129226535Y-55944025D01*
X130320180Y-55126452D01*
X131498045Y-54296870D01*
X132697678Y-53503328D01*
X133918204Y-52746167D01*
X135158751Y-52025730D01*
X136418442Y-51342357D01*
X137696406Y-50696390D01*
X138991766Y-50088171D01*
X140303649Y-49518042D01*
X141631181Y-48986342D01*
X142973487Y-48493415D01*
X144329694Y-48039602D01*
X145698927Y-47625243D01*
X147080312Y-47250681D01*
X148472975Y-46916258D01*
X149876042Y-46622314D01*
X151288638Y-46369191D01*
X152709889Y-46157230D01*
X153549350Y-46051944D01*
X154992820Y-45904547D01*
X156436923Y-45798946D01*
X157880733Y-45735026D01*
X159323323Y-45712673D01*
X160763765Y-45731775D01*
G36*
X160574504Y-77248830D02*
X161433201Y-77327018D01*
X162289241Y-77446856D01*
X162957934Y-77570142D01*
X163812270Y-77765909D01*
X164651907Y-78001280D01*
X165476148Y-78275909D01*
X166284297Y-78589450D01*
X167075660Y-78941557D01*
X167849539Y-79331884D01*
X168605240Y-79760085D01*
X169342066Y-80225814D01*
X170059323Y-80728726D01*
X170756314Y-81268473D01*
X171276434Y-81706938D01*
X171399561Y-81817629D01*
X171545504Y-81953918D01*
X171708578Y-82110102D01*
X171883095Y-82280478D01*
X172063369Y-82459343D01*
X172243715Y-82640994D01*
X172418447Y-82819729D01*
X172581877Y-82989844D01*
X172728320Y-83145637D01*
X172852090Y-83281405D01*
X172896903Y-83332183D01*
X173463391Y-84013509D01*
X173992150Y-84713952D01*
X174483347Y-85433759D01*
X174937148Y-86173178D01*
X175353719Y-86932456D01*
X175463253Y-87147731D01*
X175834690Y-87937066D01*
X176166480Y-88740317D01*
X176458403Y-89556085D01*
X176710238Y-90382969D01*
X176921766Y-91219569D01*
X177092767Y-92064483D01*
X177223021Y-92916310D01*
X177312308Y-93773651D01*
X177360408Y-94635104D01*
X177367101Y-95499269D01*
X177332168Y-96364745D01*
X177255387Y-97230131D01*
X177159274Y-97950238D01*
X177006381Y-98805890D01*
X176813612Y-99648668D01*
X176581772Y-100477419D01*
X176311665Y-101290990D01*
X176004093Y-102088226D01*
X175659860Y-102867974D01*
X175279770Y-103629082D01*
X174864627Y-104370395D01*
X174415233Y-105090760D01*
X173932394Y-105789024D01*
X173416911Y-106464033D01*
X172869590Y-107114634D01*
X172291232Y-107739672D01*
X171682643Y-108337996D01*
X171044625Y-108908450D01*
X170377983Y-109449883D01*
X169683519Y-109961140D01*
X168962037Y-110441067D01*
X168214342Y-110888512D01*
X168101434Y-110951944D01*
X167336619Y-111353969D01*
X166555193Y-111717063D01*
X165757147Y-112041229D01*
X164942476Y-112326467D01*
X164111172Y-112572781D01*
X163263230Y-112780172D01*
X162398643Y-112948641D01*
X161517404Y-113078192D01*
X160619507Y-113168825D01*
X160608434Y-113169692D01*
X160489931Y-113177004D01*
X160336301Y-113183520D01*
X160154744Y-113189169D01*
X159952461Y-113193879D01*
X159736650Y-113197577D01*
X159514513Y-113200192D01*
X159293249Y-113201652D01*
X159080058Y-113201885D01*
X158882140Y-113200819D01*
X158706696Y-113198382D01*
X158560926Y-113194503D01*
X158481184Y-113190935D01*
X157589518Y-113120513D01*
X156711964Y-113010200D01*
X155848286Y-112859936D01*
X154998251Y-112669658D01*
X154161623Y-112439304D01*
X153338169Y-112168813D01*
X152527655Y-111858124D01*
X151729845Y-111507174D01*
X151308131Y-111302853D01*
X150541644Y-110895874D01*
X149798048Y-110453701D01*
X149078412Y-109977415D01*
X148383807Y-109468096D01*
X147715302Y-108926826D01*
X147073968Y-108354686D01*
X146460874Y-107752758D01*
X145877089Y-107122123D01*
X145323685Y-106463861D01*
X144801730Y-105779055D01*
X144312294Y-105068786D01*
X143856448Y-104334134D01*
X143435261Y-103576181D01*
X143196837Y-103104950D01*
X142849249Y-102351438D01*
X142539915Y-101593940D01*
X142267978Y-100829248D01*
X142032579Y-100054150D01*
X141832860Y-99265437D01*
X141667964Y-98459900D01*
X141537034Y-97634328D01*
X141439210Y-96785512D01*
X141406579Y-96405700D01*
X141398807Y-96276178D01*
X141392422Y-96111244D01*
X141387425Y-95917796D01*
X141383814Y-95702732D01*
X141381588Y-95472950D01*
X141380748Y-95235348D01*
X141381053Y-95101429D01*
X142385428Y-95101429D01*
X142385461Y-95329129D01*
X142386849Y-95552778D01*
X142389593Y-95764650D01*
X142393693Y-95957018D01*
X142399149Y-96122153D01*
X142405600Y-96246950D01*
X142483310Y-97109267D01*
X142601334Y-97958855D01*
X142759430Y-98795136D01*
X142957360Y-99617533D01*
X143194885Y-100425466D01*
X143471763Y-101218357D01*
X143787757Y-101995628D01*
X144142627Y-102756701D01*
X144536132Y-103500996D01*
X144968034Y-104227937D01*
X145438092Y-104936943D01*
X145946068Y-105627438D01*
X146491721Y-106298842D01*
X146639944Y-106470450D01*
X146762527Y-106606722D01*
X146910394Y-106764737D01*
X147077167Y-106938137D01*
X147256466Y-107120566D01*
X147441913Y-107305668D01*
X147627128Y-107487086D01*
X147805733Y-107658464D01*
X147971348Y-107813445D01*
X148117594Y-107945672D01*
X148141267Y-107966477D01*
X148801901Y-108516869D01*
X149481709Y-109029546D01*
X150181091Y-109504738D01*
X150900451Y-109942672D01*
X151640190Y-110343578D01*
X152400709Y-110707686D01*
X153182412Y-111035224D01*
X153985699Y-111326420D01*
X154110267Y-111367696D01*
X154875984Y-111597901D01*
X155655294Y-111792256D01*
X156442092Y-111949551D01*
X157230271Y-112068579D01*
X158013724Y-112148131D01*
X158079017Y-112152970D01*
X158197049Y-112161556D01*
X158305838Y-112169637D01*
X158395647Y-112176477D01*
X158456737Y-112181342D01*
X158470600Y-112182539D01*
X158533742Y-112186045D01*
X158633117Y-112188781D01*
X158762629Y-112190774D01*
X158916187Y-112192050D01*
X159087695Y-112192636D01*
X159271061Y-112192558D01*
X159460191Y-112191843D01*
X159648990Y-112190518D01*
X159831366Y-112188609D01*
X160001224Y-112186142D01*
X160152472Y-112183144D01*
X160279014Y-112179642D01*
X160374758Y-112175662D01*
X160400375Y-112174127D01*
X161267538Y-112095228D01*
X162120353Y-111976655D01*
X162958491Y-111818530D01*
X163781623Y-111620973D01*
X164589420Y-111384106D01*
X165381554Y-111108050D01*
X166157695Y-110792925D01*
X166917515Y-110438853D01*
X167660685Y-110045954D01*
X168386877Y-109614349D01*
X169095761Y-109144160D01*
X169572056Y-108799225D01*
X169872354Y-108570025D01*
X170149961Y-108349065D01*
X170413464Y-108128864D01*
X170671452Y-107901942D01*
X170932513Y-107660819D01*
X171205233Y-107398016D01*
X171382626Y-107222226D01*
X171662852Y-106937686D01*
X171916735Y-106670129D01*
X172151709Y-106411017D01*
X172375207Y-106151815D01*
X172594665Y-105883986D01*
X172817516Y-105598994D01*
X172959015Y-105412117D01*
X173455570Y-104714684D01*
X173913783Y-103999405D01*
X174333491Y-103266723D01*
X174714532Y-102517082D01*
X175056740Y-101750926D01*
X175359954Y-100968698D01*
X175624010Y-100170842D01*
X175848745Y-99357802D01*
X176033995Y-98530021D01*
X176179597Y-97687943D01*
X176285388Y-96832012D01*
X176334658Y-96239975D01*
X176341800Y-96102727D01*
X176347468Y-95931089D01*
X176351662Y-95732977D01*
X176354380Y-95516309D01*
X176355625Y-95289000D01*
X176355395Y-95058968D01*
X176353690Y-94834129D01*
X176350511Y-94622402D01*
X176345858Y-94431702D01*
X176339730Y-94269946D01*
X176334658Y-94179592D01*
X176256158Y-93313665D01*
X176137875Y-92461903D01*
X175979885Y-91624534D01*
X175782265Y-90801788D01*
X175545092Y-89993893D01*
X175268444Y-89201077D01*
X174952396Y-88423569D01*
X174597025Y-87661597D01*
X174202410Y-86915390D01*
X173768626Y-86185177D01*
X173513481Y-85790617D01*
X173030009Y-85102466D01*
X172511756Y-84437676D01*
X171960402Y-83798105D01*
X171377630Y-83185609D01*
X170765122Y-82602045D01*
X170124562Y-82049271D01*
X170122850Y-82047866D01*
X169468759Y-81538438D01*
X168788928Y-81061871D01*
X168085351Y-80619044D01*
X167360020Y-80210834D01*
X166614930Y-79838119D01*
X165852073Y-79501777D01*
X165073444Y-79202686D01*
X164281035Y-78941724D01*
X163476841Y-78719768D01*
X162662854Y-78537696D01*
X161841068Y-78396386D01*
X161825517Y-78394120D01*
X161579434Y-78359148D01*
X161357697Y-78329619D01*
X161153497Y-78305086D01*
X160960026Y-78285101D01*
X160770476Y-78269219D01*
X160578038Y-78256993D01*
X160375905Y-78247975D01*
X160157268Y-78241719D01*
X159915319Y-78237779D01*
X159643250Y-78235707D01*
X159401934Y-78235098D01*
X159148256Y-78235037D01*
X158930658Y-78235555D01*
X158742886Y-78236930D01*
X158578686Y-78239442D01*
X158431806Y-78243370D01*
X158295991Y-78248994D01*
X158164990Y-78256592D01*
X158032548Y-78266445D01*
X157892413Y-78278831D01*
X157738331Y-78294029D01*
X157564049Y-78312320D01*
X157486350Y-78320665D01*
X156674007Y-78429378D01*
X155865019Y-78579562D01*
X155061718Y-78770362D01*
X154266431Y-79000929D01*
X153481490Y-79270410D01*
X152709224Y-79577954D01*
X151951963Y-79922710D01*
X151212036Y-80303824D01*
X150491774Y-80720447D01*
X149919499Y-81086617D01*
X149355373Y-81479748D01*
X148819228Y-81886679D01*
X148302300Y-82314630D01*
X147795827Y-82770822D01*
X147346680Y-83206513D01*
X147048003Y-83511115D01*
X146775752Y-83800718D01*
X146521764Y-84084733D01*
X146277880Y-84372574D01*
X146035938Y-84673654D01*
X145787778Y-84997384D01*
X145748539Y-85049784D01*
X145258072Y-85741645D01*
X144804754Y-86453494D01*
X144388921Y-87184416D01*
X144010905Y-87933499D01*
X143671042Y-88699833D01*
X143369665Y-89482504D01*
X143107109Y-90280601D01*
X142883709Y-91093211D01*
X142699797Y-91919423D01*
X142555709Y-92758324D01*
X142451779Y-93609002D01*
X142405600Y-94172617D01*
X142398854Y-94304664D01*
X142393464Y-94471296D01*
X142389429Y-94664785D01*
X142386751Y-94877405D01*
X142385428Y-95101429D01*
X141381053Y-95101429D01*
X141381292Y-94996826D01*
X141383219Y-94764280D01*
X141386529Y-94544609D01*
X141391222Y-94344712D01*
X141397297Y-94171486D01*
X141404752Y-94031830D01*
X141406807Y-94003284D01*
X141492169Y-93129735D01*
X141612499Y-92278547D01*
X141768464Y-91447266D01*
X141960732Y-90633443D01*
X142189968Y-89834625D01*
X142456842Y-89048363D01*
X142762019Y-88272204D01*
X143106167Y-87503697D01*
X143264278Y-87179032D01*
X143671887Y-86408585D01*
X144114244Y-85661624D01*
X144590337Y-84939160D01*
X145099154Y-84242200D01*
X145639685Y-83571754D01*
X146210919Y-82928831D01*
X146811843Y-82314439D01*
X147441448Y-81729588D01*
X148098721Y-81175287D01*
X148782651Y-80652543D01*
X149492228Y-80162368D01*
X150226439Y-79705768D01*
X150984274Y-79283754D01*
X151379767Y-79082057D01*
X152169317Y-78714931D01*
X152972606Y-78387315D01*
X153788142Y-78099403D01*
X154614436Y-77851391D01*
X155449998Y-77643472D01*
X156293335Y-77475842D01*
X157142959Y-77348695D01*
X157997378Y-77262225D01*
X158855102Y-77216628D01*
X159714641Y-77212098D01*
X160574504Y-77248830D01*
X160574504Y-77248830D01*
G37*
X160574504Y-77248830D02*
X161433201Y-77327018D01*
X162289241Y-77446856D01*
X162957934Y-77570142D01*
X163812270Y-77765909D01*
X164651907Y-78001280D01*
X165476148Y-78275909D01*
X166284297Y-78589450D01*
X167075660Y-78941557D01*
X167849539Y-79331884D01*
X168605240Y-79760085D01*
X169342066Y-80225814D01*
X170059323Y-80728726D01*
X170756314Y-81268473D01*
X171276434Y-81706938D01*
X171399561Y-81817629D01*
X171545504Y-81953918D01*
X171708578Y-82110102D01*
X171883095Y-82280478D01*
X172063369Y-82459343D01*
X172243715Y-82640994D01*
X172418447Y-82819729D01*
X172581877Y-82989844D01*
X172728320Y-83145637D01*
X172852090Y-83281405D01*
X172896903Y-83332183D01*
X173463391Y-84013509D01*
X173992150Y-84713952D01*
X174483347Y-85433759D01*
X174937148Y-86173178D01*
X175353719Y-86932456D01*
X175463253Y-87147731D01*
X175834690Y-87937066D01*
X176166480Y-88740317D01*
X176458403Y-89556085D01*
X176710238Y-90382969D01*
X176921766Y-91219569D01*
X177092767Y-92064483D01*
X177223021Y-92916310D01*
X177312308Y-93773651D01*
X177360408Y-94635104D01*
X177367101Y-95499269D01*
X177332168Y-96364745D01*
X177255387Y-97230131D01*
X177159274Y-97950238D01*
X177006381Y-98805890D01*
X176813612Y-99648668D01*
X176581772Y-100477419D01*
X176311665Y-101290990D01*
X176004093Y-102088226D01*
X175659860Y-102867974D01*
X175279770Y-103629082D01*
X174864627Y-104370395D01*
X174415233Y-105090760D01*
X173932394Y-105789024D01*
X173416911Y-106464033D01*
X172869590Y-107114634D01*
X172291232Y-107739672D01*
X171682643Y-108337996D01*
X171044625Y-108908450D01*
X170377983Y-109449883D01*
X169683519Y-109961140D01*
X168962037Y-110441067D01*
X168214342Y-110888512D01*
X168101434Y-110951944D01*
X167336619Y-111353969D01*
X166555193Y-111717063D01*
X165757147Y-112041229D01*
X164942476Y-112326467D01*
X164111172Y-112572781D01*
X163263230Y-112780172D01*
X162398643Y-112948641D01*
X161517404Y-113078192D01*
X160619507Y-113168825D01*
X160608434Y-113169692D01*
X160489931Y-113177004D01*
X160336301Y-113183520D01*
X160154744Y-113189169D01*
X159952461Y-113193879D01*
X159736650Y-113197577D01*
X159514513Y-113200192D01*
X159293249Y-113201652D01*
X159080058Y-113201885D01*
X158882140Y-113200819D01*
X158706696Y-113198382D01*
X158560926Y-113194503D01*
X158481184Y-113190935D01*
X157589518Y-113120513D01*
X156711964Y-113010200D01*
X155848286Y-112859936D01*
X154998251Y-112669658D01*
X154161623Y-112439304D01*
X153338169Y-112168813D01*
X152527655Y-111858124D01*
X151729845Y-111507174D01*
X151308131Y-111302853D01*
X150541644Y-110895874D01*
X149798048Y-110453701D01*
X149078412Y-109977415D01*
X148383807Y-109468096D01*
X147715302Y-108926826D01*
X147073968Y-108354686D01*
X146460874Y-107752758D01*
X145877089Y-107122123D01*
X145323685Y-106463861D01*
X144801730Y-105779055D01*
X144312294Y-105068786D01*
X143856448Y-104334134D01*
X143435261Y-103576181D01*
X143196837Y-103104950D01*
X142849249Y-102351438D01*
X142539915Y-101593940D01*
X142267978Y-100829248D01*
X142032579Y-100054150D01*
X141832860Y-99265437D01*
X141667964Y-98459900D01*
X141537034Y-97634328D01*
X141439210Y-96785512D01*
X141406579Y-96405700D01*
X141398807Y-96276178D01*
X141392422Y-96111244D01*
X141387425Y-95917796D01*
X141383814Y-95702732D01*
X141381588Y-95472950D01*
X141380748Y-95235348D01*
X141381053Y-95101429D01*
X142385428Y-95101429D01*
X142385461Y-95329129D01*
X142386849Y-95552778D01*
X142389593Y-95764650D01*
X142393693Y-95957018D01*
X142399149Y-96122153D01*
X142405600Y-96246950D01*
X142483310Y-97109267D01*
X142601334Y-97958855D01*
X142759430Y-98795136D01*
X142957360Y-99617533D01*
X143194885Y-100425466D01*
X143471763Y-101218357D01*
X143787757Y-101995628D01*
X144142627Y-102756701D01*
X144536132Y-103500996D01*
X144968034Y-104227937D01*
X145438092Y-104936943D01*
X145946068Y-105627438D01*
X146491721Y-106298842D01*
X146639944Y-106470450D01*
X146762527Y-106606722D01*
X146910394Y-106764737D01*
X147077167Y-106938137D01*
X147256466Y-107120566D01*
X147441913Y-107305668D01*
X147627128Y-107487086D01*
X147805733Y-107658464D01*
X147971348Y-107813445D01*
X148117594Y-107945672D01*
X148141267Y-107966477D01*
X148801901Y-108516869D01*
X149481709Y-109029546D01*
X150181091Y-109504738D01*
X150900451Y-109942672D01*
X151640190Y-110343578D01*
X152400709Y-110707686D01*
X153182412Y-111035224D01*
X153985699Y-111326420D01*
X154110267Y-111367696D01*
X154875984Y-111597901D01*
X155655294Y-111792256D01*
X156442092Y-111949551D01*
X157230271Y-112068579D01*
X158013724Y-112148131D01*
X158079017Y-112152970D01*
X158197049Y-112161556D01*
X158305838Y-112169637D01*
X158395647Y-112176477D01*
X158456737Y-112181342D01*
X158470600Y-112182539D01*
X158533742Y-112186045D01*
X158633117Y-112188781D01*
X158762629Y-112190774D01*
X158916187Y-112192050D01*
X159087695Y-112192636D01*
X159271061Y-112192558D01*
X159460191Y-112191843D01*
X159648990Y-112190518D01*
X159831366Y-112188609D01*
X160001224Y-112186142D01*
X160152472Y-112183144D01*
X160279014Y-112179642D01*
X160374758Y-112175662D01*
X160400375Y-112174127D01*
X161267538Y-112095228D01*
X162120353Y-111976655D01*
X162958491Y-111818530D01*
X163781623Y-111620973D01*
X164589420Y-111384106D01*
X165381554Y-111108050D01*
X166157695Y-110792925D01*
X166917515Y-110438853D01*
X167660685Y-110045954D01*
X168386877Y-109614349D01*
X169095761Y-109144160D01*
X169572056Y-108799225D01*
X169872354Y-108570025D01*
X170149961Y-108349065D01*
X170413464Y-108128864D01*
X170671452Y-107901942D01*
X170932513Y-107660819D01*
X171205233Y-107398016D01*
X171382626Y-107222226D01*
X171662852Y-106937686D01*
X171916735Y-106670129D01*
X172151709Y-106411017D01*
X172375207Y-106151815D01*
X172594665Y-105883986D01*
X172817516Y-105598994D01*
X172959015Y-105412117D01*
X173455570Y-104714684D01*
X173913783Y-103999405D01*
X174333491Y-103266723D01*
X174714532Y-102517082D01*
X175056740Y-101750926D01*
X175359954Y-100968698D01*
X175624010Y-100170842D01*
X175848745Y-99357802D01*
X176033995Y-98530021D01*
X176179597Y-97687943D01*
X176285388Y-96832012D01*
X176334658Y-96239975D01*
X176341800Y-96102727D01*
X176347468Y-95931089D01*
X176351662Y-95732977D01*
X176354380Y-95516309D01*
X176355625Y-95289000D01*
X176355395Y-95058968D01*
X176353690Y-94834129D01*
X176350511Y-94622402D01*
X176345858Y-94431702D01*
X176339730Y-94269946D01*
X176334658Y-94179592D01*
X176256158Y-93313665D01*
X176137875Y-92461903D01*
X175979885Y-91624534D01*
X175782265Y-90801788D01*
X175545092Y-89993893D01*
X175268444Y-89201077D01*
X174952396Y-88423569D01*
X174597025Y-87661597D01*
X174202410Y-86915390D01*
X173768626Y-86185177D01*
X173513481Y-85790617D01*
X173030009Y-85102466D01*
X172511756Y-84437676D01*
X171960402Y-83798105D01*
X171377630Y-83185609D01*
X170765122Y-82602045D01*
X170124562Y-82049271D01*
X170122850Y-82047866D01*
X169468759Y-81538438D01*
X168788928Y-81061871D01*
X168085351Y-80619044D01*
X167360020Y-80210834D01*
X166614930Y-79838119D01*
X165852073Y-79501777D01*
X165073444Y-79202686D01*
X164281035Y-78941724D01*
X163476841Y-78719768D01*
X162662854Y-78537696D01*
X161841068Y-78396386D01*
X161825517Y-78394120D01*
X161579434Y-78359148D01*
X161357697Y-78329619D01*
X161153497Y-78305086D01*
X160960026Y-78285101D01*
X160770476Y-78269219D01*
X160578038Y-78256993D01*
X160375905Y-78247975D01*
X160157268Y-78241719D01*
X159915319Y-78237779D01*
X159643250Y-78235707D01*
X159401934Y-78235098D01*
X159148256Y-78235037D01*
X158930658Y-78235555D01*
X158742886Y-78236930D01*
X158578686Y-78239442D01*
X158431806Y-78243370D01*
X158295991Y-78248994D01*
X158164990Y-78256592D01*
X158032548Y-78266445D01*
X157892413Y-78278831D01*
X157738331Y-78294029D01*
X157564049Y-78312320D01*
X157486350Y-78320665D01*
X156674007Y-78429378D01*
X155865019Y-78579562D01*
X155061718Y-78770362D01*
X154266431Y-79000929D01*
X153481490Y-79270410D01*
X152709224Y-79577954D01*
X151951963Y-79922710D01*
X151212036Y-80303824D01*
X150491774Y-80720447D01*
X149919499Y-81086617D01*
X149355373Y-81479748D01*
X148819228Y-81886679D01*
X148302300Y-82314630D01*
X147795827Y-82770822D01*
X147346680Y-83206513D01*
X147048003Y-83511115D01*
X146775752Y-83800718D01*
X146521764Y-84084733D01*
X146277880Y-84372574D01*
X146035938Y-84673654D01*
X145787778Y-84997384D01*
X145748539Y-85049784D01*
X145258072Y-85741645D01*
X144804754Y-86453494D01*
X144388921Y-87184416D01*
X144010905Y-87933499D01*
X143671042Y-88699833D01*
X143369665Y-89482504D01*
X143107109Y-90280601D01*
X142883709Y-91093211D01*
X142699797Y-91919423D01*
X142555709Y-92758324D01*
X142451779Y-93609002D01*
X142405600Y-94172617D01*
X142398854Y-94304664D01*
X142393464Y-94471296D01*
X142389429Y-94664785D01*
X142386751Y-94877405D01*
X142385428Y-95101429D01*
X141381053Y-95101429D01*
X141381292Y-94996826D01*
X141383219Y-94764280D01*
X141386529Y-94544609D01*
X141391222Y-94344712D01*
X141397297Y-94171486D01*
X141404752Y-94031830D01*
X141406807Y-94003284D01*
X141492169Y-93129735D01*
X141612499Y-92278547D01*
X141768464Y-91447266D01*
X141960732Y-90633443D01*
X142189968Y-89834625D01*
X142456842Y-89048363D01*
X142762019Y-88272204D01*
X143106167Y-87503697D01*
X143264278Y-87179032D01*
X143671887Y-86408585D01*
X144114244Y-85661624D01*
X144590337Y-84939160D01*
X145099154Y-84242200D01*
X145639685Y-83571754D01*
X146210919Y-82928831D01*
X146811843Y-82314439D01*
X147441448Y-81729588D01*
X148098721Y-81175287D01*
X148782651Y-80652543D01*
X149492228Y-80162368D01*
X150226439Y-79705768D01*
X150984274Y-79283754D01*
X151379767Y-79082057D01*
X152169317Y-78714931D01*
X152972606Y-78387315D01*
X153788142Y-78099403D01*
X154614436Y-77851391D01*
X155449998Y-77643472D01*
X156293335Y-77475842D01*
X157142959Y-77348695D01*
X157997378Y-77262225D01*
X158855102Y-77216628D01*
X159714641Y-77212098D01*
X160574504Y-77248830D01*
G36*
X159583267Y-87886862D02*
X159774069Y-87889512D01*
X159951091Y-87894188D01*
X160106326Y-87900883D01*
X160231764Y-87909594D01*
X160280350Y-87914649D01*
X160738128Y-87983987D01*
X161162971Y-88077269D01*
X161557557Y-88195543D01*
X161924561Y-88339863D01*
X162266659Y-88511277D01*
X162586528Y-88710839D01*
X162883850Y-88937096D01*
X163165532Y-89196732D01*
X163408331Y-89473057D01*
X163612357Y-89766319D01*
X163777720Y-90076764D01*
X163904529Y-90404638D01*
X163992893Y-90750188D01*
X164042922Y-91113660D01*
X164054725Y-91495301D01*
X164052683Y-91569117D01*
X164020165Y-91949258D01*
X163950862Y-92308744D01*
X163844211Y-92648839D01*
X163699646Y-92970803D01*
X163516601Y-93275898D01*
X163294513Y-93565387D01*
X163037498Y-93836060D01*
X162907312Y-93957496D01*
X162788652Y-94060574D01*
X162669458Y-94154806D01*
X162537671Y-94249707D01*
X162381230Y-94354790D01*
X162373528Y-94359837D01*
X162232030Y-94447637D01*
X162065137Y-94543442D01*
X161886526Y-94639947D01*
X161709876Y-94729847D01*
X161548864Y-94805836D01*
X161491973Y-94830671D01*
X161423657Y-94862304D01*
X161374968Y-94890041D01*
X161355140Y-94908517D01*
X161355208Y-94910107D01*
X161376745Y-94924080D01*
X161430016Y-94947045D01*
X161506311Y-94975481D01*
X161572853Y-94998101D01*
X161978420Y-95147336D01*
X162349528Y-95319046D01*
X162688667Y-95515044D01*
X162998327Y-95737142D01*
X163280995Y-95987153D01*
X163539163Y-96266890D01*
X163775320Y-96578166D01*
X163807218Y-96625036D01*
X164010335Y-96961546D01*
X164171847Y-97304870D01*
X164292156Y-97656581D01*
X164371665Y-98018251D01*
X164410776Y-98391450D01*
X164409891Y-98777751D01*
X164398536Y-98935117D01*
X164346239Y-99334839D01*
X164264265Y-99706047D01*
X164151398Y-100051558D01*
X164006428Y-100374191D01*
X163828141Y-100676764D01*
X163615324Y-100962095D01*
X163443536Y-101154778D01*
X163161099Y-101426041D01*
X162858831Y-101668148D01*
X162534837Y-101881872D01*
X162187217Y-102067984D01*
X161814076Y-102227259D01*
X161413517Y-102360469D01*
X160983642Y-102468386D01*
X160522553Y-102551782D01*
X160028355Y-102611432D01*
X159825267Y-102628498D01*
X159689544Y-102636186D01*
X159524592Y-102641709D01*
X159340004Y-102645082D01*
X159145372Y-102646320D01*
X158950290Y-102645438D01*
X158764351Y-102642452D01*
X158597147Y-102637375D01*
X158458273Y-102630223D01*
X158407100Y-102626290D01*
X157929142Y-102567239D01*
X157473644Y-102476855D01*
X157041892Y-102355818D01*
X156635171Y-102204809D01*
X156254768Y-102024506D01*
X155901968Y-101815591D01*
X155578056Y-101578743D01*
X155284319Y-101314642D01*
X155022041Y-101023970D01*
X154799255Y-100717806D01*
X154622830Y-100408646D01*
X154481207Y-100079480D01*
X154374326Y-99734322D01*
X154302132Y-99377185D01*
X154264566Y-99012084D01*
X154261570Y-98643033D01*
X154276156Y-98472258D01*
X157290102Y-98472258D01*
X157302482Y-98743419D01*
X157353295Y-98997042D01*
X157442500Y-99232986D01*
X157570052Y-99451107D01*
X157735908Y-99651265D01*
X157775070Y-99690488D01*
X157984123Y-99864976D01*
X158221752Y-100012195D01*
X158482265Y-100129730D01*
X158759969Y-100215166D01*
X159049171Y-100266087D01*
X159153811Y-100275425D01*
X159363825Y-100282181D01*
X159578360Y-100276094D01*
X159783938Y-100258094D01*
X159967082Y-100229111D01*
X160030019Y-100214907D01*
X160314586Y-100125580D01*
X160570857Y-100007449D01*
X160797492Y-99861731D01*
X160993150Y-99689640D01*
X161156491Y-99492392D01*
X161286175Y-99271201D01*
X161380861Y-99027283D01*
X161395058Y-98977450D01*
X161420448Y-98847649D01*
X161436798Y-98688993D01*
X161444106Y-98513982D01*
X161442371Y-98335117D01*
X161431593Y-98164900D01*
X161411770Y-98015832D01*
X161395144Y-97940284D01*
X161301411Y-97672312D01*
X161168210Y-97418924D01*
X160995955Y-97180506D01*
X160785061Y-96957446D01*
X160535941Y-96750130D01*
X160249011Y-96558948D01*
X159924683Y-96384284D01*
X159563373Y-96226528D01*
X159561522Y-96225802D01*
X159308361Y-96126435D01*
X159191106Y-96174186D01*
X159120810Y-96204619D01*
X159027481Y-96247482D01*
X158925791Y-96295955D01*
X158867794Y-96324435D01*
X158536598Y-96506704D01*
X158244686Y-96704548D01*
X157991908Y-96918148D01*
X157778114Y-97147683D01*
X157603154Y-97393333D01*
X157466878Y-97655279D01*
X157369135Y-97933700D01*
X157316199Y-98183700D01*
X157290102Y-98472258D01*
X154276156Y-98472258D01*
X154293086Y-98274046D01*
X154359058Y-97909136D01*
X154459427Y-97552317D01*
X154594136Y-97207605D01*
X154763127Y-96879012D01*
X154856595Y-96727898D01*
X155066672Y-96436145D01*
X155301870Y-96164939D01*
X155565139Y-95911829D01*
X155859426Y-95674365D01*
X156187681Y-95450096D01*
X156552852Y-95236571D01*
X156814309Y-95100942D01*
X156927508Y-95043985D01*
X157026426Y-94992653D01*
X157105241Y-94950093D01*
X157158135Y-94919458D01*
X157179286Y-94903895D01*
X157179434Y-94903350D01*
X157161812Y-94885392D01*
X157118599Y-94862951D01*
X157110642Y-94859702D01*
X157021058Y-94820948D01*
X156905629Y-94766055D01*
X156774898Y-94700518D01*
X156639409Y-94629830D01*
X156509705Y-94559486D01*
X156396328Y-94494981D01*
X156314014Y-94444548D01*
X155983018Y-94208540D01*
X155690961Y-93956184D01*
X155437576Y-93687099D01*
X155222593Y-93400901D01*
X155045745Y-93097209D01*
X154906762Y-92775639D01*
X154805377Y-92435810D01*
X154764664Y-92235867D01*
X154742253Y-92062143D01*
X154728337Y-91860859D01*
X154724877Y-91720977D01*
X157721666Y-91720977D01*
X157721687Y-91727867D01*
X157728363Y-91919198D01*
X157748531Y-92083855D01*
X157784835Y-92236085D01*
X157839917Y-92390132D01*
X157848286Y-92410300D01*
X157963626Y-92632222D01*
X158118296Y-92845522D01*
X158309785Y-93048021D01*
X158535582Y-93237540D01*
X158793178Y-93411899D01*
X159080060Y-93568920D01*
X159296100Y-93666991D01*
X159364474Y-93693552D01*
X159420435Y-93711628D01*
X159445474Y-93716639D01*
X159475498Y-93707941D01*
X159535517Y-93683431D01*
X159617799Y-93646502D01*
X159714612Y-93600545D01*
X159752391Y-93582019D01*
X160058919Y-93413118D01*
X160326400Y-93228736D01*
X160555445Y-93028212D01*
X160746662Y-92810881D01*
X160900661Y-92576082D01*
X161018050Y-92323152D01*
X161077233Y-92140617D01*
X161105011Y-91999581D01*
X161121320Y-91831755D01*
X161126154Y-91651099D01*
X161119506Y-91471573D01*
X161101372Y-91307139D01*
X161077650Y-91192340D01*
X160997217Y-90965831D01*
X160884633Y-90765095D01*
X160737330Y-90585619D01*
X160724814Y-90572892D01*
X160538811Y-90412283D01*
X160333422Y-90285690D01*
X160106363Y-90192270D01*
X159855345Y-90131182D01*
X159578084Y-90101583D01*
X159436203Y-90098312D01*
X159151042Y-90116759D01*
X158885825Y-90170760D01*
X158642221Y-90259347D01*
X158421896Y-90381552D01*
X158226516Y-90536406D01*
X158057749Y-90722942D01*
X157917262Y-90940192D01*
X157887531Y-90997617D01*
X157818692Y-91147096D01*
X157770977Y-91279681D01*
X157741095Y-91409862D01*
X157725755Y-91552131D01*
X157721666Y-91720977D01*
X154724877Y-91720977D01*
X154723020Y-91645945D01*
X154726407Y-91431336D01*
X154738603Y-91230963D01*
X154755968Y-91082284D01*
X154832095Y-90712236D01*
X154945267Y-90361825D01*
X155095864Y-90030404D01*
X155284264Y-89717326D01*
X155510846Y-89421943D01*
X155775989Y-89143607D01*
X156011687Y-88936393D01*
X156335732Y-88698612D01*
X156690254Y-88488863D01*
X157073358Y-88307893D01*
X157483152Y-88156451D01*
X157917742Y-88035287D01*
X158375234Y-87945149D01*
X158597600Y-87913718D01*
X158702888Y-87904129D01*
X158842451Y-87896591D01*
X159008279Y-87891100D01*
X159192363Y-87887651D01*
X159386696Y-87886240D01*
X159583267Y-87886862D01*
X159583267Y-87886862D01*
G37*
X159583267Y-87886862D02*
X159774069Y-87889512D01*
X159951091Y-87894188D01*
X160106326Y-87900883D01*
X160231764Y-87909594D01*
X160280350Y-87914649D01*
X160738128Y-87983987D01*
X161162971Y-88077269D01*
X161557557Y-88195543D01*
X161924561Y-88339863D01*
X162266659Y-88511277D01*
X162586528Y-88710839D01*
X162883850Y-88937096D01*
X163165532Y-89196732D01*
X163408331Y-89473057D01*
X163612357Y-89766319D01*
X163777720Y-90076764D01*
X163904529Y-90404638D01*
X163992893Y-90750188D01*
X164042922Y-91113660D01*
X164054725Y-91495301D01*
X164052683Y-91569117D01*
X164020165Y-91949258D01*
X163950862Y-92308744D01*
X163844211Y-92648839D01*
X163699646Y-92970803D01*
X163516601Y-93275898D01*
X163294513Y-93565387D01*
X163037498Y-93836060D01*
X162907312Y-93957496D01*
X162788652Y-94060574D01*
X162669458Y-94154806D01*
X162537671Y-94249707D01*
X162381230Y-94354790D01*
X162373528Y-94359837D01*
X162232030Y-94447637D01*
X162065137Y-94543442D01*
X161886526Y-94639947D01*
X161709876Y-94729847D01*
X161548864Y-94805836D01*
X161491973Y-94830671D01*
X161423657Y-94862304D01*
X161374968Y-94890041D01*
X161355140Y-94908517D01*
X161355208Y-94910107D01*
X161376745Y-94924080D01*
X161430016Y-94947045D01*
X161506311Y-94975481D01*
X161572853Y-94998101D01*
X161978420Y-95147336D01*
X162349528Y-95319046D01*
X162688667Y-95515044D01*
X162998327Y-95737142D01*
X163280995Y-95987153D01*
X163539163Y-96266890D01*
X163775320Y-96578166D01*
X163807218Y-96625036D01*
X164010335Y-96961546D01*
X164171847Y-97304870D01*
X164292156Y-97656581D01*
X164371665Y-98018251D01*
X164410776Y-98391450D01*
X164409891Y-98777751D01*
X164398536Y-98935117D01*
X164346239Y-99334839D01*
X164264265Y-99706047D01*
X164151398Y-100051558D01*
X164006428Y-100374191D01*
X163828141Y-100676764D01*
X163615324Y-100962095D01*
X163443536Y-101154778D01*
X163161099Y-101426041D01*
X162858831Y-101668148D01*
X162534837Y-101881872D01*
X162187217Y-102067984D01*
X161814076Y-102227259D01*
X161413517Y-102360469D01*
X160983642Y-102468386D01*
X160522553Y-102551782D01*
X160028355Y-102611432D01*
X159825267Y-102628498D01*
X159689544Y-102636186D01*
X159524592Y-102641709D01*
X159340004Y-102645082D01*
X159145372Y-102646320D01*
X158950290Y-102645438D01*
X158764351Y-102642452D01*
X158597147Y-102637375D01*
X158458273Y-102630223D01*
X158407100Y-102626290D01*
X157929142Y-102567239D01*
X157473644Y-102476855D01*
X157041892Y-102355818D01*
X156635171Y-102204809D01*
X156254768Y-102024506D01*
X155901968Y-101815591D01*
X155578056Y-101578743D01*
X155284319Y-101314642D01*
X155022041Y-101023970D01*
X154799255Y-100717806D01*
X154622830Y-100408646D01*
X154481207Y-100079480D01*
X154374326Y-99734322D01*
X154302132Y-99377185D01*
X154264566Y-99012084D01*
X154261570Y-98643033D01*
X154276156Y-98472258D01*
X157290102Y-98472258D01*
X157302482Y-98743419D01*
X157353295Y-98997042D01*
X157442500Y-99232986D01*
X157570052Y-99451107D01*
X157735908Y-99651265D01*
X157775070Y-99690488D01*
X157984123Y-99864976D01*
X158221752Y-100012195D01*
X158482265Y-100129730D01*
X158759969Y-100215166D01*
X159049171Y-100266087D01*
X159153811Y-100275425D01*
X159363825Y-100282181D01*
X159578360Y-100276094D01*
X159783938Y-100258094D01*
X159967082Y-100229111D01*
X160030019Y-100214907D01*
X160314586Y-100125580D01*
X160570857Y-100007449D01*
X160797492Y-99861731D01*
X160993150Y-99689640D01*
X161156491Y-99492392D01*
X161286175Y-99271201D01*
X161380861Y-99027283D01*
X161395058Y-98977450D01*
X161420448Y-98847649D01*
X161436798Y-98688993D01*
X161444106Y-98513982D01*
X161442371Y-98335117D01*
X161431593Y-98164900D01*
X161411770Y-98015832D01*
X161395144Y-97940284D01*
X161301411Y-97672312D01*
X161168210Y-97418924D01*
X160995955Y-97180506D01*
X160785061Y-96957446D01*
X160535941Y-96750130D01*
X160249011Y-96558948D01*
X159924683Y-96384284D01*
X159563373Y-96226528D01*
X159561522Y-96225802D01*
X159308361Y-96126435D01*
X159191106Y-96174186D01*
X159120810Y-96204619D01*
X159027481Y-96247482D01*
X158925791Y-96295955D01*
X158867794Y-96324435D01*
X158536598Y-96506704D01*
X158244686Y-96704548D01*
X157991908Y-96918148D01*
X157778114Y-97147683D01*
X157603154Y-97393333D01*
X157466878Y-97655279D01*
X157369135Y-97933700D01*
X157316199Y-98183700D01*
X157290102Y-98472258D01*
X154276156Y-98472258D01*
X154293086Y-98274046D01*
X154359058Y-97909136D01*
X154459427Y-97552317D01*
X154594136Y-97207605D01*
X154763127Y-96879012D01*
X154856595Y-96727898D01*
X155066672Y-96436145D01*
X155301870Y-96164939D01*
X155565139Y-95911829D01*
X155859426Y-95674365D01*
X156187681Y-95450096D01*
X156552852Y-95236571D01*
X156814309Y-95100942D01*
X156927508Y-95043985D01*
X157026426Y-94992653D01*
X157105241Y-94950093D01*
X157158135Y-94919458D01*
X157179286Y-94903895D01*
X157179434Y-94903350D01*
X157161812Y-94885392D01*
X157118599Y-94862951D01*
X157110642Y-94859702D01*
X157021058Y-94820948D01*
X156905629Y-94766055D01*
X156774898Y-94700518D01*
X156639409Y-94629830D01*
X156509705Y-94559486D01*
X156396328Y-94494981D01*
X156314014Y-94444548D01*
X155983018Y-94208540D01*
X155690961Y-93956184D01*
X155437576Y-93687099D01*
X155222593Y-93400901D01*
X155045745Y-93097209D01*
X154906762Y-92775639D01*
X154805377Y-92435810D01*
X154764664Y-92235867D01*
X154742253Y-92062143D01*
X154728337Y-91860859D01*
X154724877Y-91720977D01*
X157721666Y-91720977D01*
X157721687Y-91727867D01*
X157728363Y-91919198D01*
X157748531Y-92083855D01*
X157784835Y-92236085D01*
X157839917Y-92390132D01*
X157848286Y-92410300D01*
X157963626Y-92632222D01*
X158118296Y-92845522D01*
X158309785Y-93048021D01*
X158535582Y-93237540D01*
X158793178Y-93411899D01*
X159080060Y-93568920D01*
X159296100Y-93666991D01*
X159364474Y-93693552D01*
X159420435Y-93711628D01*
X159445474Y-93716639D01*
X159475498Y-93707941D01*
X159535517Y-93683431D01*
X159617799Y-93646502D01*
X159714612Y-93600545D01*
X159752391Y-93582019D01*
X160058919Y-93413118D01*
X160326400Y-93228736D01*
X160555445Y-93028212D01*
X160746662Y-92810881D01*
X160900661Y-92576082D01*
X161018050Y-92323152D01*
X161077233Y-92140617D01*
X161105011Y-91999581D01*
X161121320Y-91831755D01*
X161126154Y-91651099D01*
X161119506Y-91471573D01*
X161101372Y-91307139D01*
X161077650Y-91192340D01*
X160997217Y-90965831D01*
X160884633Y-90765095D01*
X160737330Y-90585619D01*
X160724814Y-90572892D01*
X160538811Y-90412283D01*
X160333422Y-90285690D01*
X160106363Y-90192270D01*
X159855345Y-90131182D01*
X159578084Y-90101583D01*
X159436203Y-90098312D01*
X159151042Y-90116759D01*
X158885825Y-90170760D01*
X158642221Y-90259347D01*
X158421896Y-90381552D01*
X158226516Y-90536406D01*
X158057749Y-90722942D01*
X157917262Y-90940192D01*
X157887531Y-90997617D01*
X157818692Y-91147096D01*
X157770977Y-91279681D01*
X157741095Y-91409862D01*
X157725755Y-91552131D01*
X157721666Y-91720977D01*
X154724877Y-91720977D01*
X154723020Y-91645945D01*
X154726407Y-91431336D01*
X154738603Y-91230963D01*
X154755968Y-91082284D01*
X154832095Y-90712236D01*
X154945267Y-90361825D01*
X155095864Y-90030404D01*
X155284264Y-89717326D01*
X155510846Y-89421943D01*
X155775989Y-89143607D01*
X156011687Y-88936393D01*
X156335732Y-88698612D01*
X156690254Y-88488863D01*
X157073358Y-88307893D01*
X157483152Y-88156451D01*
X157917742Y-88035287D01*
X158375234Y-87945149D01*
X158597600Y-87913718D01*
X158702888Y-87904129D01*
X158842451Y-87896591D01*
X159008279Y-87891100D01*
X159192363Y-87887651D01*
X159386696Y-87886240D01*
X159583267Y-87886862D01*
D12*
X159593090Y-50917872D03*
D13*
X178615600Y-102258799D03*
D14*
X178615600Y-87258799D03*
D15*
X161149601Y-135585601D03*
D16*
X161149601Y-138125601D03*
X158609601Y-135585601D03*
X158609601Y-138125601D03*
D15*
X120149201Y-93828001D03*
D16*
X120149201Y-96368001D03*
X117609201Y-93828001D03*
X117609201Y-96368001D03*
D15*
X202135601Y-93523201D03*
D16*
X202135601Y-96063201D03*
X199595601Y-93523201D03*
X199595601Y-96063201D03*
D17*
X165709600Y-95554800D03*
X157022800Y-86563200D03*
X168706800Y-107289600D03*
X183743600Y-87223600D03*
X177647600Y-109067600D03*
X183184800Y-108204000D03*
X142240000Y-114909600D03*
D18*
X165709600Y-95554800D02*
X165760400Y-95504000D01*
X165760400Y-95504000D02*
X168300400Y-95504000D01*
X158292800Y-85293200D02*
X157022800Y-86563200D01*
X162915600Y-85293200D02*
X158292800Y-85293200D01*
X168300400Y-90678000D02*
X162915600Y-85293200D01*
X168300400Y-106883200D02*
X168300400Y-95504000D01*
X168300400Y-95504000D02*
X168300400Y-90678000D01*
X168706800Y-107289600D02*
X168300400Y-106883200D01*
X185521600Y-89001600D02*
X183743600Y-87223600D01*
X185521600Y-101193600D02*
X185521600Y-89001600D01*
X177647600Y-109067600D02*
X185521600Y-101193600D01*
X176377600Y-115011200D02*
X183184800Y-108204000D01*
X142341600Y-115011200D02*
X176377600Y-115011200D01*
X142240000Y-114909600D02*
X142341600Y-115011200D01*
M02*
