G04 #@! TF.FileFunction,Profile,NP*
%FSLAX46Y46*%
G04 Gerber Fmt 4.6, Leading zero omitted, Abs format (unit mm)*
G04 Created by KiCad (PCBNEW 4.0.7) date 07/18/18 17:21:38*
%MOMM*%
%LPD*%
G01*
G04 APERTURE LIST*
%ADD10C,0.100000*%
G04 APERTURE END LIST*
D10*
X159359421Y-45699200D02*
X158719524Y-45703249D01*
X158719524Y-45703249D02*
X158081573Y-45715363D01*
X158081573Y-45715363D02*
X157445618Y-45735495D01*
X157445618Y-45735495D02*
X156811708Y-45763594D01*
X156811708Y-45763594D02*
X156179894Y-45799613D01*
X156179894Y-45799613D02*
X155550220Y-45843504D01*
X155550220Y-45843504D02*
X154922740Y-45895217D01*
X154922740Y-45895217D02*
X154297495Y-45954705D01*
X154297495Y-45954705D02*
X153674539Y-46021918D01*
X153674539Y-46021918D02*
X153053921Y-46096808D01*
X153053921Y-46096808D02*
X152435685Y-46179327D01*
X152435685Y-46179327D02*
X151819886Y-46269425D01*
X151819886Y-46269425D02*
X151206566Y-46367055D01*
X151206566Y-46367055D02*
X150595778Y-46472168D01*
X150595778Y-46472168D02*
X149987570Y-46584715D01*
X149987570Y-46584715D02*
X149381989Y-46704647D01*
X149381989Y-46704647D02*
X148779083Y-46831917D01*
X148779083Y-46831917D02*
X148178902Y-46966476D01*
X148178902Y-46966476D02*
X147581494Y-47108274D01*
X147581494Y-47108274D02*
X146986909Y-47257264D01*
X146986909Y-47257264D02*
X146395195Y-47413397D01*
X146395195Y-47413397D02*
X145806399Y-47576625D01*
X145806399Y-47576625D02*
X145220572Y-47746898D01*
X145220572Y-47746898D02*
X144637758Y-47924169D01*
X144637758Y-47924169D02*
X144058011Y-48108388D01*
X144058011Y-48108388D02*
X143481376Y-48299508D01*
X143481376Y-48299508D02*
X142907902Y-48497479D01*
X142907902Y-48497479D02*
X142337640Y-48702253D01*
X142337640Y-48702253D02*
X141770636Y-48913782D01*
X141770636Y-48913782D02*
X141206941Y-49132017D01*
X141206941Y-49132017D02*
X140646601Y-49356909D01*
X140646601Y-49356909D02*
X140089664Y-49588410D01*
X140089664Y-49588410D02*
X139536182Y-49826472D01*
X139536182Y-49826472D02*
X138986200Y-50071045D01*
X138986200Y-50071045D02*
X138439770Y-50322082D01*
X138439770Y-50322082D02*
X137896937Y-50579533D01*
X137896937Y-50579533D02*
X137357751Y-50843351D01*
X137357751Y-50843351D02*
X136822261Y-51113486D01*
X136822261Y-51113486D02*
X136290516Y-51389890D01*
X136290516Y-51389890D02*
X135762564Y-51672514D01*
X135762564Y-51672514D02*
X135238453Y-51961311D01*
X135238453Y-51961311D02*
X134718232Y-52256231D01*
X134718232Y-52256231D02*
X134201950Y-52557225D01*
X134201950Y-52557225D02*
X133689655Y-52864246D01*
X133689655Y-52864246D02*
X133181395Y-53177245D01*
X133181395Y-53177245D02*
X132677220Y-53496173D01*
X132677220Y-53496173D02*
X132177177Y-53820981D01*
X132177177Y-53820981D02*
X131681316Y-54151622D01*
X131681316Y-54151622D02*
X131189685Y-54488046D01*
X131189685Y-54488046D02*
X130702332Y-54830205D01*
X130702332Y-54830205D02*
X130219306Y-55178050D01*
X130219306Y-55178050D02*
X129740655Y-55531533D01*
X129740655Y-55531533D02*
X129266429Y-55890606D01*
X129266429Y-55890606D02*
X128796675Y-56255219D01*
X128796675Y-56255219D02*
X128331443Y-56625325D01*
X128331443Y-56625325D02*
X127870780Y-57000874D01*
X127870780Y-57000874D02*
X127414735Y-57381818D01*
X127414735Y-57381818D02*
X126963357Y-57768109D01*
X126963357Y-57768109D02*
X126516695Y-58159698D01*
X126516695Y-58159698D02*
X126074797Y-58556536D01*
X126074797Y-58556536D02*
X125637710Y-58958575D01*
X125637710Y-58958575D02*
X125205486Y-59365767D01*
X125205486Y-59365767D02*
X124778170Y-59778062D01*
X124778170Y-59778062D02*
X124355813Y-60195413D01*
X124355813Y-60195413D02*
X123938462Y-60617770D01*
X123938462Y-60617770D02*
X123526167Y-61045086D01*
X123526167Y-61045086D02*
X123118975Y-61477310D01*
X123118975Y-61477310D02*
X122716936Y-61914397D01*
X122716936Y-61914397D02*
X122320098Y-62356295D01*
X122320098Y-62356295D02*
X121928509Y-62802957D01*
X121928509Y-62802957D02*
X121542218Y-63254335D01*
X121542218Y-63254335D02*
X121161274Y-63710380D01*
X121161274Y-63710380D02*
X120785725Y-64171043D01*
X120785725Y-64171043D02*
X120415619Y-64636275D01*
X120415619Y-64636275D02*
X120051006Y-65106029D01*
X120051006Y-65106029D02*
X119691933Y-65580255D01*
X119691933Y-65580255D02*
X119338450Y-66058906D01*
X119338450Y-66058906D02*
X118990605Y-66541932D01*
X118990605Y-66541932D02*
X118648446Y-67029285D01*
X118648446Y-67029285D02*
X118312022Y-67520916D01*
X118312022Y-67520916D02*
X117981381Y-68016777D01*
X117981381Y-68016777D02*
X117656573Y-68516820D01*
X117656573Y-68516820D02*
X117337645Y-69020995D01*
X117337645Y-69020995D02*
X117024646Y-69529255D01*
X117024646Y-69529255D02*
X116717625Y-70041550D01*
X116717625Y-70041550D02*
X116416631Y-70557832D01*
X116416631Y-70557832D02*
X116121711Y-71078053D01*
X116121711Y-71078053D02*
X115832914Y-71602164D01*
X115832914Y-71602164D02*
X115550290Y-72130116D01*
X115550290Y-72130116D02*
X115273886Y-72661861D01*
X115273886Y-72661861D02*
X115003751Y-73197351D01*
X115003751Y-73197351D02*
X114739933Y-73736537D01*
X114739933Y-73736537D02*
X114482482Y-74279370D01*
X114482482Y-74279370D02*
X114231445Y-74825800D01*
X114231445Y-74825800D02*
X113986872Y-75375782D01*
X113986872Y-75375782D02*
X113748810Y-75929264D01*
X113748810Y-75929264D02*
X113517309Y-76486201D01*
X113517309Y-76486201D02*
X113292417Y-77046541D01*
X113292417Y-77046541D02*
X113074182Y-77610236D01*
X113074182Y-77610236D02*
X112862653Y-78177240D01*
X112862653Y-78177240D02*
X112657879Y-78747502D01*
X112657879Y-78747502D02*
X112459908Y-79320976D01*
X112459908Y-79320976D02*
X112268788Y-79897611D01*
X112268788Y-79897611D02*
X112084569Y-80477358D01*
X112084569Y-80477358D02*
X111907298Y-81060172D01*
X111907298Y-81060172D02*
X111737025Y-81645999D01*
X111737025Y-81645999D02*
X111573797Y-82234795D01*
X111573797Y-82234795D02*
X111417664Y-82826509D01*
X111417664Y-82826509D02*
X111268674Y-83421094D01*
X111268674Y-83421094D02*
X111126876Y-84018502D01*
X111126876Y-84018502D02*
X110992317Y-84618683D01*
X110992317Y-84618683D02*
X110865047Y-85221589D01*
X110865047Y-85221589D02*
X110745115Y-85827170D01*
X110745115Y-85827170D02*
X110632568Y-86435378D01*
X110632568Y-86435378D02*
X110527455Y-87046166D01*
X110527455Y-87046166D02*
X110429825Y-87659486D01*
X110429825Y-87659486D02*
X110339727Y-88275285D01*
X110339727Y-88275285D02*
X110257208Y-88893521D01*
X110257208Y-88893521D02*
X110182318Y-89514139D01*
X110182318Y-89514139D02*
X110115105Y-90137095D01*
X110115105Y-90137095D02*
X110055617Y-90762340D01*
X110055617Y-90762340D02*
X110003904Y-91389820D01*
X110003904Y-91389820D02*
X109960013Y-92019494D01*
X109960013Y-92019494D02*
X109923994Y-92651308D01*
X109923994Y-92651308D02*
X109895895Y-93285218D01*
X109895895Y-93285218D02*
X109875763Y-93921173D01*
X109875763Y-93921173D02*
X109863649Y-94559124D01*
X109863649Y-94559124D02*
X109859600Y-95199021D01*
X109859600Y-95199021D02*
X109863649Y-95838918D01*
X109863649Y-95838918D02*
X109875763Y-96476871D01*
X109875763Y-96476871D02*
X109895895Y-97112824D01*
X109895895Y-97112824D02*
X109923994Y-97746734D01*
X109923994Y-97746734D02*
X109960013Y-98378551D01*
X109960013Y-98378551D02*
X110003904Y-99008225D01*
X110003904Y-99008225D02*
X110055617Y-99635708D01*
X110055617Y-99635708D02*
X110115105Y-100260953D01*
X110115105Y-100260953D02*
X110182318Y-100883909D01*
X110182318Y-100883909D02*
X110257208Y-101504529D01*
X110257208Y-101504529D02*
X110339727Y-102122765D01*
X110339727Y-102122765D02*
X110429825Y-102738569D01*
X110429825Y-102738569D02*
X110527455Y-103351889D01*
X110527455Y-103351889D02*
X110632568Y-103962680D01*
X110632568Y-103962680D02*
X110745115Y-104570891D01*
X110745115Y-104570891D02*
X110865047Y-105176474D01*
X110865047Y-105176474D02*
X110992317Y-105779383D01*
X110992317Y-105779383D02*
X111126876Y-106379566D01*
X111126876Y-106379566D02*
X111268674Y-106976977D01*
X111268674Y-106976977D02*
X111417664Y-107571565D01*
X111417664Y-107571565D02*
X111573797Y-108163284D01*
X111573797Y-108163284D02*
X111737025Y-108752082D01*
X111737025Y-108752082D02*
X111907298Y-109337915D01*
X111907298Y-109337915D02*
X112084569Y-109920731D01*
X112084569Y-109920731D02*
X112268788Y-110500481D01*
X112268788Y-110500481D02*
X112459908Y-111077122D01*
X112459908Y-111077122D02*
X112657879Y-111650598D01*
X112657879Y-111650598D02*
X112862653Y-112220865D01*
X112862653Y-112220865D02*
X113074182Y-112787873D01*
X113074182Y-112787873D02*
X113292417Y-113351573D01*
X113292417Y-113351573D02*
X113517309Y-113911918D01*
X113517309Y-113911918D02*
X113748810Y-114468858D01*
X113748810Y-114468858D02*
X113986872Y-115022345D01*
X113986872Y-115022345D02*
X114231445Y-115572332D01*
X114231445Y-115572332D02*
X114482482Y-116118768D01*
X114482482Y-116118768D02*
X114739933Y-116661605D01*
X114739933Y-116661605D02*
X115003751Y-117200794D01*
X115003751Y-117200794D02*
X115273886Y-117736290D01*
X115273886Y-117736290D02*
X115550290Y-118268039D01*
X115550290Y-118268039D02*
X115832914Y-118795996D01*
X115832914Y-118795996D02*
X116121711Y-119320112D01*
X116121711Y-119320112D02*
X116416631Y-119840339D01*
X116416631Y-119840339D02*
X116717625Y-120356628D01*
X116717625Y-120356628D02*
X117024646Y-120868927D01*
X117024646Y-120868927D02*
X117337645Y-121377192D01*
X117337645Y-121377192D02*
X117656573Y-121881374D01*
X117656573Y-121881374D02*
X117981381Y-122381421D01*
X117981381Y-122381421D02*
X118312022Y-122877290D01*
X118312022Y-122877290D02*
X118648446Y-123368925D01*
X118648446Y-123368925D02*
X118990605Y-123856285D01*
X118990605Y-123856285D02*
X119338450Y-124339316D01*
X119338450Y-124339316D02*
X119691933Y-124817971D01*
X119691933Y-124817971D02*
X120051006Y-125292205D01*
X120051006Y-125292205D02*
X120415619Y-125761965D01*
X120415619Y-125761965D02*
X120785725Y-126227203D01*
X120785725Y-126227203D02*
X121161274Y-126687872D01*
X121161274Y-126687872D02*
X121542218Y-127143923D01*
X121542218Y-127143923D02*
X121928509Y-127595305D01*
X121928509Y-127595305D02*
X122320098Y-128041975D01*
X122320098Y-128041975D02*
X122716936Y-128483879D01*
X122716936Y-128483879D02*
X123118975Y-128920971D01*
X123118975Y-128920971D02*
X123526167Y-129353202D01*
X123526167Y-129353202D02*
X123938462Y-129780523D01*
X123938462Y-129780523D02*
X124355813Y-130202888D01*
X124355813Y-130202888D02*
X124778170Y-130620244D01*
X124778170Y-130620244D02*
X125205486Y-131032544D01*
X125205486Y-131032544D02*
X125637710Y-131439743D01*
X125637710Y-131439743D02*
X126074797Y-131841788D01*
X126074797Y-131841788D02*
X126516695Y-132238631D01*
X126516695Y-132238631D02*
X126963357Y-132630225D01*
X126963357Y-132630225D02*
X127414735Y-133016522D01*
X127414735Y-133016522D02*
X127870780Y-133397475D01*
X127870780Y-133397475D02*
X128331443Y-133773029D01*
X128331443Y-133773029D02*
X128796675Y-134143139D01*
X128796675Y-134143139D02*
X129266429Y-134507759D01*
X129266429Y-134507759D02*
X129740655Y-134866838D01*
X129740655Y-134866838D02*
X130219306Y-135220327D01*
X130219306Y-135220327D02*
X130702332Y-135568177D01*
X130702332Y-135568177D02*
X131189685Y-135910344D01*
X131189685Y-135910344D02*
X131681316Y-136246773D01*
X131681316Y-136246773D02*
X132177177Y-136577420D01*
X132177177Y-136577420D02*
X132677220Y-136902233D01*
X132677220Y-136902233D02*
X133181395Y-137221167D01*
X133181395Y-137221167D02*
X133689655Y-137534171D01*
X133689655Y-137534171D02*
X134201950Y-137841197D01*
X134201950Y-137841197D02*
X134718232Y-138142197D01*
X134718232Y-138142197D02*
X135238453Y-138437123D01*
X135238453Y-138437123D02*
X135762564Y-138725924D01*
X135762564Y-138725924D02*
X136290516Y-139008554D01*
X136290516Y-139008554D02*
X136822261Y-139284962D01*
X136822261Y-139284962D02*
X137357751Y-139555101D01*
X137357751Y-139555101D02*
X137896937Y-139818925D01*
X137896937Y-139818925D02*
X138439770Y-140076381D01*
X138439770Y-140076381D02*
X138986200Y-140327423D01*
X138986200Y-140327423D02*
X139536182Y-140572001D01*
X139536182Y-140572001D02*
X140089664Y-140810068D01*
X140089664Y-140810068D02*
X140646601Y-141041573D01*
X140646601Y-141041573D02*
X141206941Y-141266469D01*
X141206941Y-141266469D02*
X141770636Y-141484708D01*
X141770636Y-141484708D02*
X142337640Y-141696242D01*
X142337640Y-141696242D02*
X142907902Y-141901019D01*
X142907902Y-141901019D02*
X143481376Y-142098996D01*
X143481376Y-142098996D02*
X144058011Y-142290118D01*
X144058011Y-142290118D02*
X144637758Y-142474342D01*
X144637758Y-142474342D02*
X145220572Y-142651615D01*
X145220572Y-142651615D02*
X145806399Y-142821893D01*
X145806399Y-142821893D02*
X146395195Y-142985123D01*
X146395195Y-142985123D02*
X146986909Y-143141261D01*
X146986909Y-143141261D02*
X147581494Y-143290253D01*
X147581494Y-143290253D02*
X148178902Y-143432054D01*
X148178902Y-143432054D02*
X148779083Y-143566616D01*
X148779083Y-143566616D02*
X149381989Y-143693888D01*
X149381989Y-143693888D02*
X149987570Y-143813824D01*
X149987570Y-143813824D02*
X150595778Y-143926372D01*
X150595778Y-143926372D02*
X151206566Y-144031489D01*
X151206566Y-144031489D02*
X151819886Y-144129120D01*
X151819886Y-144129120D02*
X152435685Y-144219221D01*
X152435685Y-144219221D02*
X153053921Y-144301742D01*
X153053921Y-144301742D02*
X153674539Y-144376632D01*
X153674539Y-144376632D02*
X154297495Y-144443847D01*
X154297495Y-144443847D02*
X154922740Y-144503336D01*
X154922740Y-144503336D02*
X155550220Y-144555052D01*
X155550220Y-144555052D02*
X156179894Y-144598943D01*
X156179894Y-144598943D02*
X156811708Y-144634964D01*
X156811708Y-144634964D02*
X157445618Y-144663062D01*
X157445618Y-144663062D02*
X158081573Y-144683197D01*
X158081573Y-144683197D02*
X158719524Y-144695315D01*
X158719524Y-144695315D02*
X159359421Y-144699363D01*
X159359421Y-144699363D02*
X159999318Y-144695315D01*
X159999318Y-144695315D02*
X160637271Y-144683197D01*
X160637271Y-144683197D02*
X161273224Y-144663062D01*
X161273224Y-144663062D02*
X161907134Y-144634964D01*
X161907134Y-144634964D02*
X162538951Y-144598943D01*
X162538951Y-144598943D02*
X163168625Y-144555052D01*
X163168625Y-144555052D02*
X163796108Y-144503336D01*
X163796108Y-144503336D02*
X164421353Y-144443847D01*
X164421353Y-144443847D02*
X165044309Y-144376632D01*
X165044309Y-144376632D02*
X165664929Y-144301742D01*
X165664929Y-144301742D02*
X166283165Y-144219221D01*
X166283165Y-144219221D02*
X166898969Y-144129120D01*
X166898969Y-144129120D02*
X167512289Y-144031489D01*
X167512289Y-144031489D02*
X168123080Y-143926372D01*
X168123080Y-143926372D02*
X168731291Y-143813824D01*
X168731291Y-143813824D02*
X169336874Y-143693888D01*
X169336874Y-143693888D02*
X169939783Y-143566616D01*
X169939783Y-143566616D02*
X170539966Y-143432054D01*
X170539966Y-143432054D02*
X171137377Y-143290253D01*
X171137377Y-143290253D02*
X171731965Y-143141261D01*
X171731965Y-143141261D02*
X172323684Y-142985123D01*
X172323684Y-142985123D02*
X172912482Y-142821893D01*
X172912482Y-142821893D02*
X173498315Y-142651615D01*
X173498315Y-142651615D02*
X174081131Y-142474342D01*
X174081131Y-142474342D02*
X174660881Y-142290118D01*
X174660881Y-142290118D02*
X175237522Y-142098996D01*
X175237522Y-142098996D02*
X175810998Y-141901019D01*
X175810998Y-141901019D02*
X176381265Y-141696242D01*
X176381265Y-141696242D02*
X176948273Y-141484708D01*
X176948273Y-141484708D02*
X177511973Y-141266469D01*
X177511973Y-141266469D02*
X178072318Y-141041573D01*
X178072318Y-141041573D02*
X178629258Y-140810068D01*
X178629258Y-140810068D02*
X179182745Y-140572001D01*
X179182745Y-140572001D02*
X179732732Y-140327423D01*
X179732732Y-140327423D02*
X180279168Y-140076381D01*
X180279168Y-140076381D02*
X180822005Y-139818925D01*
X180822005Y-139818925D02*
X181361194Y-139555101D01*
X181361194Y-139555101D02*
X181896690Y-139284962D01*
X181896690Y-139284962D02*
X182428439Y-139008554D01*
X182428439Y-139008554D02*
X182956396Y-138725924D01*
X182956396Y-138725924D02*
X183480512Y-138437123D01*
X183480512Y-138437123D02*
X184000739Y-138142197D01*
X184000739Y-138142197D02*
X184517028Y-137841197D01*
X184517028Y-137841197D02*
X185029327Y-137534171D01*
X185029327Y-137534171D02*
X185537592Y-137221167D01*
X185537592Y-137221167D02*
X186041774Y-136902233D01*
X186041774Y-136902233D02*
X186541821Y-136577420D01*
X186541821Y-136577420D02*
X187037690Y-136246773D01*
X187037690Y-136246773D02*
X187529325Y-135910344D01*
X187529325Y-135910344D02*
X188016685Y-135568177D01*
X188016685Y-135568177D02*
X188499716Y-135220327D01*
X188499716Y-135220327D02*
X188978371Y-134866838D01*
X188978371Y-134866838D02*
X189452605Y-134507759D01*
X189452605Y-134507759D02*
X189922365Y-134143139D01*
X189922365Y-134143139D02*
X190387603Y-133773029D01*
X190387603Y-133773029D02*
X190848272Y-133397475D01*
X190848272Y-133397475D02*
X191304323Y-133016522D01*
X191304323Y-133016522D02*
X191755705Y-132630225D01*
X191755705Y-132630225D02*
X192202375Y-132238631D01*
X192202375Y-132238631D02*
X192644279Y-131841788D01*
X192644279Y-131841788D02*
X193081371Y-131439743D01*
X193081371Y-131439743D02*
X193513602Y-131032544D01*
X193513602Y-131032544D02*
X193940923Y-130620244D01*
X193940923Y-130620244D02*
X194363288Y-130202888D01*
X194363288Y-130202888D02*
X194780644Y-129780523D01*
X194780644Y-129780523D02*
X195192944Y-129353202D01*
X195192944Y-129353202D02*
X195600143Y-128920971D01*
X195600143Y-128920971D02*
X196002188Y-128483879D01*
X196002188Y-128483879D02*
X196399031Y-128041975D01*
X196399031Y-128041975D02*
X196790625Y-127595305D01*
X196790625Y-127595305D02*
X197176922Y-127143923D01*
X197176922Y-127143923D02*
X197557875Y-126687872D01*
X197557875Y-126687872D02*
X197933429Y-126227203D01*
X197933429Y-126227203D02*
X198303539Y-125761965D01*
X198303539Y-125761965D02*
X198668159Y-125292205D01*
X198668159Y-125292205D02*
X199027238Y-124817971D01*
X199027238Y-124817971D02*
X199380727Y-124339316D01*
X199380727Y-124339316D02*
X199728577Y-123856285D01*
X199728577Y-123856285D02*
X200070744Y-123368925D01*
X200070744Y-123368925D02*
X200407173Y-122877290D01*
X200407173Y-122877290D02*
X200737820Y-122381421D01*
X200737820Y-122381421D02*
X201062633Y-121881374D01*
X201062633Y-121881374D02*
X201381567Y-121377192D01*
X201381567Y-121377192D02*
X201694571Y-120868927D01*
X201694571Y-120868927D02*
X202001597Y-120356628D01*
X202001597Y-120356628D02*
X202302597Y-119840339D01*
X202302597Y-119840339D02*
X202597523Y-119320112D01*
X202597523Y-119320112D02*
X202886324Y-118795996D01*
X202886324Y-118795996D02*
X203168954Y-118268039D01*
X203168954Y-118268039D02*
X203445362Y-117736290D01*
X203445362Y-117736290D02*
X203715501Y-117200794D01*
X203715501Y-117200794D02*
X203979325Y-116661605D01*
X203979325Y-116661605D02*
X204236781Y-116118768D01*
X204236781Y-116118768D02*
X204487823Y-115572332D01*
X204487823Y-115572332D02*
X204732401Y-115022345D01*
X204732401Y-115022345D02*
X204970468Y-114468858D01*
X204970468Y-114468858D02*
X205201973Y-113911918D01*
X205201973Y-113911918D02*
X205426869Y-113351573D01*
X205426869Y-113351573D02*
X205645108Y-112787873D01*
X205645108Y-112787873D02*
X205856642Y-112220865D01*
X205856642Y-112220865D02*
X206061419Y-111650598D01*
X206061419Y-111650598D02*
X206259396Y-111077122D01*
X206259396Y-111077122D02*
X206450518Y-110500481D01*
X206450518Y-110500481D02*
X206634742Y-109920731D01*
X206634742Y-109920731D02*
X206812015Y-109337915D01*
X206812015Y-109337915D02*
X206982293Y-108752082D01*
X206982293Y-108752082D02*
X207145523Y-108163284D01*
X207145523Y-108163284D02*
X207301661Y-107571565D01*
X207301661Y-107571565D02*
X207450653Y-106976977D01*
X207450653Y-106976977D02*
X207592454Y-106379566D01*
X207592454Y-106379566D02*
X207727016Y-105779383D01*
X207727016Y-105779383D02*
X207854288Y-105176474D01*
X207854288Y-105176474D02*
X207974224Y-104570891D01*
X207974224Y-104570891D02*
X208086772Y-103962680D01*
X208086772Y-103962680D02*
X208191889Y-103351889D01*
X208191889Y-103351889D02*
X208289520Y-102738569D01*
X208289520Y-102738569D02*
X208379621Y-102122765D01*
X208379621Y-102122765D02*
X208462142Y-101504529D01*
X208462142Y-101504529D02*
X208537032Y-100883909D01*
X208537032Y-100883909D02*
X208604247Y-100260953D01*
X208604247Y-100260953D02*
X208663736Y-99635708D01*
X208663736Y-99635708D02*
X208715452Y-99008225D01*
X208715452Y-99008225D02*
X208759343Y-98378551D01*
X208759343Y-98378551D02*
X208795364Y-97746734D01*
X208795364Y-97746734D02*
X208823462Y-97112824D01*
X208823462Y-97112824D02*
X208843597Y-96476871D01*
X208843597Y-96476871D02*
X208855715Y-95838918D01*
X208855715Y-95838918D02*
X208859763Y-95199021D01*
X208859763Y-95199021D02*
X208855715Y-94559124D01*
X208855715Y-94559124D02*
X208843597Y-93921173D01*
X208843597Y-93921173D02*
X208823462Y-93285218D01*
X208823462Y-93285218D02*
X208795364Y-92651308D01*
X208795364Y-92651308D02*
X208759343Y-92019494D01*
X208759343Y-92019494D02*
X208715452Y-91389820D01*
X208715452Y-91389820D02*
X208663736Y-90762340D01*
X208663736Y-90762340D02*
X208604247Y-90137095D01*
X208604247Y-90137095D02*
X208537032Y-89514139D01*
X208537032Y-89514139D02*
X208462142Y-88893521D01*
X208462142Y-88893521D02*
X208379621Y-88275285D01*
X208379621Y-88275285D02*
X208289520Y-87659486D01*
X208289520Y-87659486D02*
X208191889Y-87046166D01*
X208191889Y-87046166D02*
X208086772Y-86435378D01*
X208086772Y-86435378D02*
X207974224Y-85827170D01*
X207974224Y-85827170D02*
X207854288Y-85221589D01*
X207854288Y-85221589D02*
X207727016Y-84618683D01*
X207727016Y-84618683D02*
X207592454Y-84018502D01*
X207592454Y-84018502D02*
X207450653Y-83421094D01*
X207450653Y-83421094D02*
X207301661Y-82826509D01*
X207301661Y-82826509D02*
X207145523Y-82234795D01*
X207145523Y-82234795D02*
X206982293Y-81645999D01*
X206982293Y-81645999D02*
X206812015Y-81060172D01*
X206812015Y-81060172D02*
X206634742Y-80477358D01*
X206634742Y-80477358D02*
X206450518Y-79897611D01*
X206450518Y-79897611D02*
X206259396Y-79320976D01*
X206259396Y-79320976D02*
X206061419Y-78747502D01*
X206061419Y-78747502D02*
X205856642Y-78177240D01*
X205856642Y-78177240D02*
X205645108Y-77610236D01*
X205645108Y-77610236D02*
X205426869Y-77046541D01*
X205426869Y-77046541D02*
X205201973Y-76486201D01*
X205201973Y-76486201D02*
X204970468Y-75929264D01*
X204970468Y-75929264D02*
X204732401Y-75375782D01*
X204732401Y-75375782D02*
X204487823Y-74825800D01*
X204487823Y-74825800D02*
X204236781Y-74279370D01*
X204236781Y-74279370D02*
X203979325Y-73736537D01*
X203979325Y-73736537D02*
X203715501Y-73197351D01*
X203715501Y-73197351D02*
X203445362Y-72661861D01*
X203445362Y-72661861D02*
X203168954Y-72130116D01*
X203168954Y-72130116D02*
X202886324Y-71602164D01*
X202886324Y-71602164D02*
X202597523Y-71078053D01*
X202597523Y-71078053D02*
X202302597Y-70557832D01*
X202302597Y-70557832D02*
X202001597Y-70041550D01*
X202001597Y-70041550D02*
X201694571Y-69529255D01*
X201694571Y-69529255D02*
X201381567Y-69020995D01*
X201381567Y-69020995D02*
X201062633Y-68516820D01*
X201062633Y-68516820D02*
X200737820Y-68016777D01*
X200737820Y-68016777D02*
X200407173Y-67520916D01*
X200407173Y-67520916D02*
X200070744Y-67029285D01*
X200070744Y-67029285D02*
X199728577Y-66541932D01*
X199728577Y-66541932D02*
X199380727Y-66058906D01*
X199380727Y-66058906D02*
X199027238Y-65580255D01*
X199027238Y-65580255D02*
X198668159Y-65106029D01*
X198668159Y-65106029D02*
X198303539Y-64636275D01*
X198303539Y-64636275D02*
X197933429Y-64171043D01*
X197933429Y-64171043D02*
X197557875Y-63710380D01*
X197557875Y-63710380D02*
X197176922Y-63254335D01*
X197176922Y-63254335D02*
X196790625Y-62802957D01*
X196790625Y-62802957D02*
X196399031Y-62356295D01*
X196399031Y-62356295D02*
X196002188Y-61914397D01*
X196002188Y-61914397D02*
X195600143Y-61477310D01*
X195600143Y-61477310D02*
X195192944Y-61045086D01*
X195192944Y-61045086D02*
X194780644Y-60617770D01*
X194780644Y-60617770D02*
X194363288Y-60195413D01*
X194363288Y-60195413D02*
X193940923Y-59778062D01*
X193940923Y-59778062D02*
X193513602Y-59365767D01*
X193513602Y-59365767D02*
X193081371Y-58958575D01*
X193081371Y-58958575D02*
X192644279Y-58556536D01*
X192644279Y-58556536D02*
X192202375Y-58159698D01*
X192202375Y-58159698D02*
X191755705Y-57768109D01*
X191755705Y-57768109D02*
X191304323Y-57381818D01*
X191304323Y-57381818D02*
X190848272Y-57000874D01*
X190848272Y-57000874D02*
X190387603Y-56625325D01*
X190387603Y-56625325D02*
X189922365Y-56255219D01*
X189922365Y-56255219D02*
X189452605Y-55890606D01*
X189452605Y-55890606D02*
X188978371Y-55531533D01*
X188978371Y-55531533D02*
X188499716Y-55178050D01*
X188499716Y-55178050D02*
X188016685Y-54830205D01*
X188016685Y-54830205D02*
X187529325Y-54488046D01*
X187529325Y-54488046D02*
X187037690Y-54151622D01*
X187037690Y-54151622D02*
X186541821Y-53820981D01*
X186541821Y-53820981D02*
X186041774Y-53496173D01*
X186041774Y-53496173D02*
X185537592Y-53177245D01*
X185537592Y-53177245D02*
X185029327Y-52864246D01*
X185029327Y-52864246D02*
X184517028Y-52557225D01*
X184517028Y-52557225D02*
X184000739Y-52256231D01*
X184000739Y-52256231D02*
X183480512Y-51961311D01*
X183480512Y-51961311D02*
X182956396Y-51672514D01*
X182956396Y-51672514D02*
X182428439Y-51389890D01*
X182428439Y-51389890D02*
X181896690Y-51113486D01*
X181896690Y-51113486D02*
X181361194Y-50843351D01*
X181361194Y-50843351D02*
X180822005Y-50579533D01*
X180822005Y-50579533D02*
X180279168Y-50322082D01*
X180279168Y-50322082D02*
X179732732Y-50071045D01*
X179732732Y-50071045D02*
X179182745Y-49826472D01*
X179182745Y-49826472D02*
X178629258Y-49588410D01*
X178629258Y-49588410D02*
X178072318Y-49356909D01*
X178072318Y-49356909D02*
X177511973Y-49132017D01*
X177511973Y-49132017D02*
X176948273Y-48913782D01*
X176948273Y-48913782D02*
X176381265Y-48702253D01*
X176381265Y-48702253D02*
X175810998Y-48497479D01*
X175810998Y-48497479D02*
X175237522Y-48299508D01*
X175237522Y-48299508D02*
X174660881Y-48108388D01*
X174660881Y-48108388D02*
X174081131Y-47924169D01*
X174081131Y-47924169D02*
X173498315Y-47746898D01*
X173498315Y-47746898D02*
X172912482Y-47576625D01*
X172912482Y-47576625D02*
X172323684Y-47413397D01*
X172323684Y-47413397D02*
X171731965Y-47257264D01*
X171731965Y-47257264D02*
X171137377Y-47108274D01*
X171137377Y-47108274D02*
X170539966Y-46966476D01*
X170539966Y-46966476D02*
X169939783Y-46831917D01*
X169939783Y-46831917D02*
X169336874Y-46704647D01*
X169336874Y-46704647D02*
X168731291Y-46584715D01*
X168731291Y-46584715D02*
X168123080Y-46472168D01*
X168123080Y-46472168D02*
X167512289Y-46367055D01*
X167512289Y-46367055D02*
X166898969Y-46269425D01*
X166898969Y-46269425D02*
X166283165Y-46179327D01*
X166283165Y-46179327D02*
X165664929Y-46096808D01*
X165664929Y-46096808D02*
X165044309Y-46021918D01*
X165044309Y-46021918D02*
X164421353Y-45954705D01*
X164421353Y-45954705D02*
X163796108Y-45895217D01*
X163796108Y-45895217D02*
X163168625Y-45843504D01*
X163168625Y-45843504D02*
X162538951Y-45799613D01*
X162538951Y-45799613D02*
X161907134Y-45763594D01*
X161907134Y-45763594D02*
X161273224Y-45735495D01*
X161273224Y-45735495D02*
X160637271Y-45715363D01*
X160637271Y-45715363D02*
X159999318Y-45703249D01*
X159999318Y-45703249D02*
X159359421Y-45699200D01*
X159359421Y-45699200D02*
X159359421Y-45699200D01*
X159359421Y-45699200D02*
X159359421Y-45699200D01*
M02*
